%TF.GenerationSoftware,Altium Limited,Altium Designer,19.1.7 (138)*%
G04 Layer_Color=16711935*
%FSLAX26Y26*%
%MOIN*%
%TF.FileFunction,Other,Mechanical_1*%
%TF.Part,Single*%
G01*
G75*
G36*
X1658427Y1313099D02*
Y1313086D01*
Y1313060D01*
Y1313021D01*
Y1312969D01*
Y1312904D01*
Y1312826D01*
X1658414Y1312618D01*
Y1312371D01*
X1658388Y1312098D01*
X1658374Y1311773D01*
X1658349Y1311435D01*
X1658310Y1311071D01*
X1658271Y1310707D01*
X1658153Y1309940D01*
X1658075Y1309550D01*
X1657997Y1309186D01*
X1657893Y1308835D01*
X1657776Y1308497D01*
X1657764Y1308484D01*
X1657751Y1308419D01*
X1657711Y1308328D01*
X1657647Y1308211D01*
X1657569Y1308068D01*
X1657477Y1307899D01*
X1657373Y1307717D01*
X1657244Y1307509D01*
X1657088Y1307301D01*
X1656918Y1307067D01*
X1656724Y1306846D01*
X1656503Y1306612D01*
X1656268Y1306378D01*
X1656008Y1306157D01*
X1655723Y1305936D01*
X1655410Y1305728D01*
X1655398Y1305715D01*
X1655332Y1305689D01*
X1655242Y1305637D01*
X1655099Y1305559D01*
X1654929Y1305481D01*
X1654722Y1305390D01*
X1654487Y1305299D01*
X1654215Y1305208D01*
X1653902Y1305104D01*
X1653564Y1305013D01*
X1653200Y1304922D01*
X1652811Y1304844D01*
X1652381Y1304779D01*
X1651927Y1304727D01*
X1651446Y1304688D01*
X1650938Y1304675D01*
X1650678D01*
X1650484Y1304688D01*
X1650263Y1304701D01*
X1649989Y1304727D01*
X1649690Y1304753D01*
X1649379Y1304792D01*
X1649027Y1304844D01*
X1648677Y1304896D01*
X1648300Y1304974D01*
X1647936Y1305065D01*
X1647559Y1305169D01*
X1647207Y1305299D01*
X1646857Y1305442D01*
X1646518Y1305598D01*
X1646505Y1305611D01*
X1646440Y1305637D01*
X1646350Y1305689D01*
X1646245Y1305767D01*
X1646102Y1305871D01*
X1645934Y1305988D01*
X1645764Y1306118D01*
X1645570Y1306274D01*
X1645374Y1306456D01*
X1645167Y1306664D01*
X1644958Y1306872D01*
X1644764Y1307119D01*
X1644569Y1307379D01*
X1644387Y1307652D01*
X1644217Y1307951D01*
X1644074Y1308276D01*
X1644062Y1308302D01*
X1644049Y1308354D01*
X1644009Y1308458D01*
X1643957Y1308601D01*
X1643906Y1308783D01*
X1643841Y1308991D01*
X1643775Y1309251D01*
X1643710Y1309537D01*
X1643646Y1309875D01*
X1643581Y1310226D01*
X1643515Y1310629D01*
X1643464Y1311058D01*
X1643411Y1311526D01*
X1643372Y1312020D01*
X1643360Y1312540D01*
X1643347Y1313099D01*
Y1324188D01*
X1645881D01*
Y1313112D01*
Y1313099D01*
Y1313086D01*
Y1313047D01*
Y1313008D01*
Y1312878D01*
X1645895Y1312696D01*
Y1312488D01*
X1645908Y1312254D01*
X1645920Y1311994D01*
X1645934Y1311708D01*
X1645959Y1311409D01*
X1645998Y1311110D01*
X1646076Y1310499D01*
X1646129Y1310200D01*
X1646180Y1309914D01*
X1646258Y1309654D01*
X1646336Y1309420D01*
Y1309407D01*
X1646362Y1309368D01*
X1646389Y1309303D01*
X1646428Y1309225D01*
X1646479Y1309121D01*
X1646544Y1309017D01*
X1646622Y1308887D01*
X1646714Y1308744D01*
X1646818Y1308601D01*
X1646935Y1308458D01*
X1647064Y1308302D01*
X1647207Y1308159D01*
X1647363Y1308003D01*
X1647545Y1307860D01*
X1647727Y1307730D01*
X1647936Y1307600D01*
X1647948Y1307587D01*
X1647987Y1307574D01*
X1648053Y1307548D01*
X1648143Y1307496D01*
X1648247Y1307457D01*
X1648378Y1307405D01*
X1648534Y1307340D01*
X1648716Y1307288D01*
X1648898Y1307223D01*
X1649119Y1307171D01*
X1649340Y1307106D01*
X1649586Y1307067D01*
X1649847Y1307028D01*
X1650120Y1306989D01*
X1650406Y1306976D01*
X1650705Y1306963D01*
X1650899D01*
X1650977Y1306976D01*
X1651159Y1306989D01*
X1651393Y1307002D01*
X1651653Y1307028D01*
X1651953Y1307067D01*
X1652252Y1307119D01*
X1652576Y1307184D01*
X1652915Y1307275D01*
X1653253Y1307379D01*
X1653578Y1307496D01*
X1653889Y1307639D01*
X1654188Y1307808D01*
X1654461Y1308003D01*
X1654696Y1308224D01*
X1654708Y1308237D01*
X1654747Y1308289D01*
X1654812Y1308367D01*
X1654878Y1308484D01*
X1654968Y1308627D01*
X1655072Y1308822D01*
X1655177Y1309043D01*
X1655293Y1309316D01*
X1655410Y1309628D01*
X1655514Y1309979D01*
X1655619Y1310382D01*
X1655709Y1310824D01*
X1655787Y1311318D01*
X1655840Y1311864D01*
X1655866Y1312163D01*
X1655879Y1312462D01*
X1655891Y1312774D01*
Y1313112D01*
Y1324188D01*
X1658427D01*
Y1313099D01*
D02*
G37*
G36*
X1668345Y1324253D02*
X1668527Y1324240D01*
X1668762Y1324214D01*
X1669034Y1324188D01*
X1669333Y1324136D01*
X1669659Y1324071D01*
X1669996Y1323993D01*
X1670361Y1323889D01*
X1670725Y1323772D01*
X1671089Y1323616D01*
X1671453Y1323447D01*
X1671803Y1323239D01*
X1672141Y1323005D01*
X1672454Y1322732D01*
X1672466Y1322719D01*
X1672518Y1322667D01*
X1672597Y1322576D01*
X1672700Y1322459D01*
X1672831Y1322303D01*
X1672960Y1322134D01*
X1673103Y1321913D01*
X1673259Y1321679D01*
X1673416Y1321419D01*
X1673559Y1321133D01*
X1673688Y1320821D01*
X1673819Y1320483D01*
X1673922Y1320132D01*
X1674001Y1319755D01*
X1674053Y1319352D01*
X1674065Y1318936D01*
Y1318923D01*
Y1318884D01*
Y1318819D01*
X1674053Y1318741D01*
Y1318637D01*
X1674040Y1318507D01*
X1674026Y1318377D01*
X1674001Y1318221D01*
X1673975Y1318052D01*
X1673948Y1317870D01*
X1673858Y1317493D01*
X1673741Y1317077D01*
X1673584Y1316661D01*
Y1316648D01*
X1673559Y1316609D01*
X1673533Y1316557D01*
X1673494Y1316466D01*
X1673441Y1316362D01*
X1673377Y1316245D01*
X1673299Y1316115D01*
X1673220Y1315959D01*
X1673117Y1315790D01*
X1672999Y1315608D01*
X1672870Y1315413D01*
X1672726Y1315205D01*
X1672571Y1314997D01*
X1672401Y1314776D01*
X1672219Y1314555D01*
X1672024Y1314321D01*
X1672012Y1314308D01*
X1671973Y1314269D01*
X1671908Y1314191D01*
X1671816Y1314100D01*
X1671699Y1313970D01*
X1671543Y1313827D01*
X1671374Y1313645D01*
X1671167Y1313437D01*
X1670919Y1313216D01*
X1670659Y1312956D01*
X1670361Y1312683D01*
X1670035Y1312384D01*
X1669671Y1312059D01*
X1669282Y1311721D01*
X1668852Y1311344D01*
X1668398Y1310954D01*
X1668371Y1310928D01*
X1668306Y1310876D01*
X1668203Y1310785D01*
X1668060Y1310668D01*
X1667890Y1310525D01*
X1667696Y1310356D01*
X1667475Y1310174D01*
X1667254Y1309979D01*
X1666799Y1309576D01*
X1666564Y1309381D01*
X1666343Y1309186D01*
X1666136Y1308991D01*
X1665954Y1308822D01*
X1665797Y1308666D01*
X1665668Y1308536D01*
Y1308523D01*
X1665641Y1308510D01*
X1665616Y1308471D01*
X1665563Y1308432D01*
X1665459Y1308302D01*
X1665316Y1308133D01*
X1665160Y1307951D01*
X1665005Y1307730D01*
X1664835Y1307496D01*
X1664679Y1307262D01*
X1674091D01*
Y1305000D01*
X1661403D01*
Y1305013D01*
Y1305039D01*
Y1305078D01*
Y1305143D01*
Y1305221D01*
X1661417Y1305312D01*
X1661429Y1305520D01*
X1661456Y1305767D01*
X1661507Y1306040D01*
X1661585Y1306326D01*
X1661677Y1306625D01*
Y1306638D01*
X1661703Y1306690D01*
X1661728Y1306755D01*
X1661767Y1306846D01*
X1661820Y1306963D01*
X1661884Y1307106D01*
X1661963Y1307262D01*
X1662053Y1307431D01*
X1662158Y1307613D01*
X1662262Y1307821D01*
X1662391Y1308029D01*
X1662534Y1308250D01*
X1662690Y1308471D01*
X1662847Y1308705D01*
X1663028Y1308939D01*
X1663224Y1309173D01*
X1663236Y1309186D01*
X1663275Y1309225D01*
X1663341Y1309303D01*
X1663418Y1309394D01*
X1663535Y1309511D01*
X1663666Y1309654D01*
X1663822Y1309823D01*
X1664004Y1310005D01*
X1664211Y1310213D01*
X1664446Y1310434D01*
X1664693Y1310681D01*
X1664978Y1310928D01*
X1665277Y1311201D01*
X1665590Y1311487D01*
X1665940Y1311786D01*
X1666304Y1312085D01*
X1666318Y1312098D01*
X1666343Y1312111D01*
X1666382Y1312150D01*
X1666447Y1312202D01*
X1666513Y1312254D01*
X1666603Y1312332D01*
X1666812Y1312514D01*
X1667059Y1312722D01*
X1667358Y1312982D01*
X1667669Y1313255D01*
X1668007Y1313554D01*
X1668359Y1313879D01*
X1668709Y1314204D01*
X1669061Y1314542D01*
X1669411Y1314893D01*
X1669736Y1315218D01*
X1670035Y1315556D01*
X1670309Y1315868D01*
X1670530Y1316154D01*
X1670543Y1316167D01*
X1670582Y1316219D01*
X1670633Y1316297D01*
X1670698Y1316414D01*
X1670790Y1316544D01*
X1670880Y1316700D01*
X1670985Y1316869D01*
X1671089Y1317064D01*
X1671179Y1317285D01*
X1671284Y1317506D01*
X1671466Y1317987D01*
X1671531Y1318234D01*
X1671582Y1318481D01*
X1671621Y1318741D01*
X1671634Y1318988D01*
Y1319001D01*
Y1319053D01*
Y1319118D01*
X1671621Y1319222D01*
X1671609Y1319339D01*
X1671582Y1319482D01*
X1671556Y1319638D01*
X1671505Y1319807D01*
X1671453Y1319989D01*
X1671388Y1320184D01*
X1671310Y1320379D01*
X1671218Y1320574D01*
X1671101Y1320782D01*
X1670958Y1320977D01*
X1670815Y1321172D01*
X1670633Y1321354D01*
X1670620Y1321367D01*
X1670582Y1321393D01*
X1670530Y1321445D01*
X1670451Y1321510D01*
X1670348Y1321575D01*
X1670230Y1321653D01*
X1670088Y1321744D01*
X1669931Y1321835D01*
X1669749Y1321926D01*
X1669554Y1322017D01*
X1669347Y1322095D01*
X1669112Y1322160D01*
X1668866Y1322225D01*
X1668592Y1322277D01*
X1668320Y1322303D01*
X1668021Y1322316D01*
X1667864D01*
X1667735Y1322303D01*
X1667591Y1322290D01*
X1667436Y1322264D01*
X1667254Y1322225D01*
X1667045Y1322186D01*
X1666838Y1322134D01*
X1666617Y1322069D01*
X1666396Y1321978D01*
X1666161Y1321887D01*
X1665940Y1321770D01*
X1665719Y1321627D01*
X1665498Y1321471D01*
X1665303Y1321289D01*
X1665291Y1321276D01*
X1665264Y1321237D01*
X1665213Y1321185D01*
X1665148Y1321107D01*
X1665070Y1320990D01*
X1664978Y1320873D01*
X1664888Y1320717D01*
X1664784Y1320548D01*
X1664693Y1320366D01*
X1664601Y1320145D01*
X1664511Y1319924D01*
X1664432Y1319664D01*
X1664368Y1319391D01*
X1664315Y1319105D01*
X1664276Y1318793D01*
X1664264Y1318468D01*
X1661845Y1318715D01*
Y1318728D01*
Y1318741D01*
X1661859Y1318780D01*
Y1318832D01*
X1661884Y1318975D01*
X1661910Y1319157D01*
X1661949Y1319391D01*
X1662014Y1319651D01*
X1662080Y1319937D01*
X1662170Y1320249D01*
X1662287Y1320574D01*
X1662418Y1320912D01*
X1662561Y1321250D01*
X1662743Y1321601D01*
X1662938Y1321926D01*
X1663171Y1322251D01*
X1663431Y1322563D01*
X1663717Y1322836D01*
X1663730Y1322849D01*
X1663795Y1322901D01*
X1663887Y1322966D01*
X1664016Y1323057D01*
X1664172Y1323174D01*
X1664380Y1323291D01*
X1664601Y1323421D01*
X1664874Y1323551D01*
X1665174Y1323681D01*
X1665498Y1323811D01*
X1665850Y1323941D01*
X1666239Y1324045D01*
X1666656Y1324136D01*
X1667098Y1324201D01*
X1667579Y1324253D01*
X1668072Y1324266D01*
X1668255D01*
X1668345Y1324253D01*
D02*
G37*
%TF.MD5,36ed55e944e0026bf551c8344186da12*%
M02*
