%TF.GenerationSoftware,Altium Limited,Altium Designer,19.1.7 (138)*%
G04 Layer_Color=128*
%FSLAX26Y26*%
%MOIN*%
%TF.FileFunction,Drillmap*%
%TF.Part,Single*%
G01*
G75*
%TA.AperFunction,NonConductor*%
%ADD68C,0.005000*%
D68*
X1049921Y1175000D02*
X1090079D01*
X1070000Y1154921D02*
Y1195079D01*
X1909921Y1075000D02*
X1950079D01*
X1930000Y1054921D02*
Y1095079D01*
X1909921Y1175000D02*
X1950079D01*
X1930000Y1154921D02*
Y1195079D01*
X1909921Y1275000D02*
X1950079D01*
X1930000Y1254921D02*
Y1295079D01*
X1909921Y1375000D02*
X1950079D01*
X1930000Y1354921D02*
Y1395079D01*
X1049921Y1075000D02*
X1090079D01*
X1070000Y1054921D02*
Y1095079D01*
X1049921Y1275000D02*
X1090079D01*
X1070000Y1254921D02*
Y1295079D01*
X1049921Y1375000D02*
X1090079D01*
X1070000Y1354921D02*
Y1395079D01*
X1386063Y1311063D02*
X1396063D01*
X1391063Y1306063D02*
Y1316063D01*
X1305000Y1310000D02*
X1315000D01*
X1310000Y1305000D02*
Y1315000D01*
X1305000Y1130000D02*
X1315000D01*
X1310000Y1125000D02*
Y1135000D01*
X1520250Y1147323D02*
X1530250D01*
X1525250Y1142323D02*
Y1152323D01*
X1520000Y1110000D02*
X1530000D01*
X1525000Y1105000D02*
Y1115000D01*
X1840000Y1390000D02*
X1850000D01*
X1845000Y1385000D02*
Y1395000D01*
X1640000Y1340000D02*
X1650000D01*
X1645000Y1335000D02*
Y1345000D01*
X1635000Y1290000D02*
X1645000D01*
X1640000Y1285000D02*
Y1295000D01*
X1545000Y1415000D02*
X1555000D01*
X1550000Y1410000D02*
Y1420000D01*
X1445000Y1390000D02*
X1455000D01*
X1450000Y1385000D02*
Y1395000D01*
X1400000Y1430000D02*
X1410000D01*
X1405000Y1425000D02*
Y1435000D01*
X1180000Y1430000D02*
X1190000D01*
X1185000Y1425000D02*
Y1435000D01*
X1140000Y1430000D02*
X1150000D01*
X1145000Y1425000D02*
Y1435000D01*
X1140000Y1020000D02*
X1150000D01*
X1145000Y1015000D02*
Y1025000D01*
X1180000Y1020000D02*
X1190000D01*
X1185000Y1015000D02*
Y1025000D01*
X1475000Y1020000D02*
X1485000D01*
X1480000Y1015000D02*
Y1025000D01*
X1515000Y1020000D02*
X1525000D01*
X1520000Y1015000D02*
Y1025000D01*
X1610000Y1020000D02*
X1620000D01*
X1615000Y1015000D02*
Y1025000D01*
X1665000Y1020000D02*
X1675000D01*
X1670000Y1015000D02*
Y1025000D01*
X1745000Y1020000D02*
X1755000D01*
X1750000Y1015000D02*
Y1025000D01*
X1780000Y1130000D02*
X1790000D01*
X1785000Y1125000D02*
Y1135000D01*
X1680000Y1200000D02*
X1690000D01*
X1685000Y1195000D02*
Y1205000D01*
X1680000Y1170000D02*
X1690000D01*
X1685000Y1165000D02*
Y1175000D01*
X1680000Y1140000D02*
X1690000D01*
X1685000Y1135000D02*
Y1145000D01*
X1280000Y1430000D02*
X1290000D01*
X1285000Y1425000D02*
Y1435000D01*
X1250000Y1180000D02*
X1260000D01*
X1255000Y1175000D02*
Y1185000D01*
X1250000Y1210000D02*
X1260000D01*
X1255000Y1205000D02*
Y1215000D01*
X1425000Y1015000D02*
X1435000D01*
X1430000Y1010000D02*
Y1020000D01*
X1395000Y1015000D02*
X1405000D01*
X1400000Y1010000D02*
Y1020000D01*
X1215000Y1200000D02*
X1225000D01*
X1220000Y1195000D02*
Y1205000D01*
X1215000Y1240000D02*
X1225000D01*
X1220000Y1235000D02*
Y1245000D01*
X1380000Y1220000D02*
X1390000D01*
X1385000Y1215000D02*
Y1225000D01*
X1420000Y1250000D02*
X1430000D01*
X1425000Y1245000D02*
Y1255000D01*
X1380000Y1280000D02*
X1390000D01*
X1385000Y1275000D02*
Y1285000D01*
X1520000Y1330000D02*
X1530000D01*
X1525000Y1325000D02*
Y1335000D01*
%TF.MD5,9a2a69117211997b27ba7f517ec170c5*%
M02*
