M48
;Layer_Color=9474304
;FILE_FORMAT=2:5
INCH,LZ
;TYPE=PLATED
T1F00S00C0.01000
T2F00S00C0.04016
%
T01
X01145Y0102
X01185
X0122Y012
Y0124
X01255Y0121
Y0118
X0131Y0113
X01385Y0122
Y0128
X0139106Y0131106
X0131Y0131
X01285Y0143
X01185
X01145
X01405
X0145Y0139
X0155Y01415
X01525Y0133
X01425Y0125
X0152525Y0114732
X01525Y0111
X0152Y0102
X0148
X0143Y01015
X014
X01615Y0102
X0167
X0175
X01785Y0113
X01685Y0114
Y0117
Y012
X0164Y0129
X01645Y0134
X01845Y0139
T02
X0107Y01075
Y01175
Y01275
Y01375
X0193
Y01275
Y01175
Y01075
M30
