%TF.GenerationSoftware,Altium Limited,Altium Designer,19.1.7 (138)*%
G04 Layer_Physical_Order=1*
G04 Layer_Color=255*
%FSLAX26Y26*%
%MOIN*%
%TF.FileFunction,Copper,L1,Top,Signal*%
%TF.Part,Single*%
G01*
G75*
%TA.AperFunction,SMDPad,CuDef*%
%ADD10R,0.029528X0.025591*%
%ADD11R,0.031496X0.031496*%
%ADD12O,0.061024X0.009842*%
%ADD13O,0.009842X0.061024*%
%ADD14R,0.024409X0.025984*%
%ADD15R,0.028346X0.029921*%
G04:AMPARAMS|DCode=16|XSize=21.654mil|YSize=49.213mil|CornerRadius=1.949mil|HoleSize=0mil|Usage=FLASHONLY|Rotation=90.000|XOffset=0mil|YOffset=0mil|HoleType=Round|Shape=RoundedRectangle|*
%AMROUNDEDRECTD16*
21,1,0.021654,0.045315,0,0,90.0*
21,1,0.017756,0.049213,0,0,90.0*
1,1,0.003898,0.022657,0.008878*
1,1,0.003898,0.022657,-0.008878*
1,1,0.003898,-0.022657,-0.008878*
1,1,0.003898,-0.022657,0.008878*
%
%ADD16ROUNDEDRECTD16*%
%TA.AperFunction,Conductor*%
%ADD17C,0.005000*%
%ADD18C,0.010000*%
%ADD19C,0.015000*%
%ADD20R,0.028131X0.052804*%
%TA.AperFunction,ComponentPad*%
%ADD21C,0.061024*%
%ADD22R,0.061024X0.061024*%
%TA.AperFunction,ViaPad*%
%ADD23C,0.020000*%
D10*
X1785000Y1091654D02*
D03*
Y1048347D02*
D03*
D11*
X1705000Y1035000D02*
D03*
Y1097992D02*
D03*
D12*
X1161535Y1330748D02*
D03*
Y1311063D02*
D03*
Y1291378D02*
D03*
Y1271693D02*
D03*
Y1252008D02*
D03*
Y1232323D02*
D03*
Y1212638D02*
D03*
Y1192953D02*
D03*
Y1173268D02*
D03*
Y1153583D02*
D03*
Y1133898D02*
D03*
Y1114213D02*
D03*
X1478465D02*
D03*
Y1133898D02*
D03*
Y1153583D02*
D03*
Y1173268D02*
D03*
Y1192953D02*
D03*
Y1212638D02*
D03*
Y1232323D02*
D03*
Y1252008D02*
D03*
Y1271693D02*
D03*
Y1291378D02*
D03*
Y1311063D02*
D03*
Y1330748D02*
D03*
D13*
X1211732Y1064016D02*
D03*
X1231417D02*
D03*
X1251102D02*
D03*
X1270787D02*
D03*
X1290472D02*
D03*
X1310157D02*
D03*
X1329842D02*
D03*
X1349527D02*
D03*
X1369213D02*
D03*
X1388898D02*
D03*
X1408583D02*
D03*
X1428268D02*
D03*
Y1380945D02*
D03*
X1408583D02*
D03*
X1388898D02*
D03*
X1369213D02*
D03*
X1349527D02*
D03*
X1329842D02*
D03*
X1310157D02*
D03*
X1290472D02*
D03*
X1270787D02*
D03*
X1251102D02*
D03*
X1231417D02*
D03*
X1211732D02*
D03*
D14*
X1595000Y1142677D02*
D03*
Y1177323D02*
D03*
D15*
X1635000Y1140709D02*
D03*
Y1179291D02*
D03*
D16*
X1801693Y1290000D02*
D03*
Y1340000D02*
D03*
Y1240000D02*
D03*
Y1390000D02*
D03*
X1595000Y1240000D02*
D03*
Y1290000D02*
D03*
Y1340000D02*
D03*
Y1390000D02*
D03*
D17*
X1184291Y1353504D02*
Y1429291D01*
X1185000Y1430000D01*
X1171028Y1340240D02*
X1184291Y1353504D01*
X1171028Y1332985D02*
Y1340240D01*
X1168791Y1330748D02*
X1171028Y1332985D01*
X1161535Y1330748D02*
X1168791D01*
X1391063Y1311063D02*
X1478465D01*
X1231815Y1348185D02*
X1270000Y1310000D01*
X1310000D01*
X1231815Y1348185D02*
Y1380548D01*
X1231417Y1380945D02*
X1231815Y1380548D01*
X1185000Y1430000D02*
X1205000D01*
X1211732Y1423268D01*
Y1380945D02*
Y1423268D01*
X1537741Y1097992D02*
X1705000D01*
X1532249Y1092500D02*
X1537741Y1097992D01*
X1517751Y1092500D02*
X1532249D01*
X1512259Y1097992D02*
X1517751Y1092500D01*
X1437448Y1097992D02*
X1512259D01*
X1433413Y1102027D02*
X1437448Y1097992D01*
X1801693Y1390000D02*
X1845000D01*
X1595000Y1290000D02*
X1640000D01*
X1785000Y1091654D02*
Y1130000D01*
X1654291Y1179291D02*
X1672626Y1197626D01*
X1682626D01*
X1685000Y1200000D01*
X1635000Y1179291D02*
X1654291D01*
X1633032Y1177323D02*
X1635000Y1179291D01*
X1595000Y1177323D02*
X1633032D01*
Y1142677D02*
X1635000Y1140709D01*
X1595000Y1142677D02*
X1633032D01*
X1653744Y1143744D02*
X1675126Y1165126D01*
X1676067D01*
X1680941Y1170000D01*
X1685000D01*
X1638036Y1143744D02*
X1653744D01*
X1635000Y1140709D02*
X1638036Y1143744D01*
X1313889Y1092028D02*
X1314698D01*
X1310157Y1088296D02*
X1313889Y1092028D01*
X1310157Y1064016D02*
Y1088296D01*
X1314698Y1092028D02*
X1324697Y1102027D01*
X1433413D01*
X1705000Y1035000D02*
X1718347Y1048347D01*
X1785000D01*
X1287870Y1418853D02*
X1290472Y1416251D01*
Y1380945D02*
Y1416251D01*
X1287870Y1418853D02*
Y1427130D01*
X1285000Y1430000D02*
X1287870Y1427130D01*
X1070000Y1375000D02*
X1120000Y1325000D01*
Y1140000D02*
Y1325000D01*
Y1140000D02*
X1126102Y1133898D01*
X1085000Y1275000D02*
X1110000Y1250000D01*
Y1120000D02*
Y1250000D01*
Y1120000D02*
X1115787Y1114213D01*
X1161535D01*
X1126102Y1133898D02*
X1161535D01*
Y1232323D02*
X1202677D01*
X1220000Y1215000D01*
Y1200000D02*
Y1215000D01*
X1235000Y1170000D02*
X1242626Y1177626D01*
X1252626D01*
X1255000Y1180000D01*
X1197960Y1170000D02*
X1235000D01*
X1193980Y1173980D02*
X1197960Y1170000D01*
X1162248Y1173980D02*
X1193980D01*
X1161535Y1173268D02*
X1162248Y1173980D01*
X1192974Y1192026D02*
X1205000Y1180000D01*
X1225000D01*
X1255000Y1210000D01*
X1162462Y1192026D02*
X1192974D01*
X1161535Y1192953D02*
X1162462Y1192026D01*
X1429194Y1015806D02*
X1430000Y1015000D01*
X1429194Y1015806D02*
Y1063089D01*
X1428268Y1064016D02*
X1429194Y1063089D01*
X1400000Y1016846D02*
X1408583Y1025429D01*
X1400000Y1015000D02*
Y1016846D01*
X1408583Y1025429D02*
Y1064016D01*
X1207992Y1252008D02*
X1220000Y1240000D01*
X1161535Y1252008D02*
X1207992D01*
X1429661Y1173268D02*
X1478465D01*
X1425000Y1177929D02*
X1429661Y1173268D01*
X1425000Y1177929D02*
Y1250000D01*
X1405000Y1170000D02*
X1430000Y1145000D01*
Y1140000D02*
Y1145000D01*
X1385000Y1255000D02*
X1405000Y1235000D01*
Y1170000D02*
Y1235000D01*
X1385000Y1255000D02*
Y1280000D01*
X1440787Y1114213D02*
X1478465D01*
X1385000Y1170000D02*
X1440787Y1114213D01*
X1385000Y1170000D02*
Y1220000D01*
X1430000Y1140000D02*
X1436102Y1133898D01*
X1478465D01*
X1070000Y1275000D02*
X1085000D01*
X1572894Y1240000D02*
Y1248327D01*
X1540000Y1240000D02*
X1572894D01*
X1527992Y1252008D02*
X1540000Y1240000D01*
X1478465Y1252008D02*
X1527992D01*
X1581220Y1240000D02*
X1595000D01*
X1572894Y1248327D02*
X1581220Y1240000D01*
X1552500Y1382500D02*
X1560000Y1390000D01*
X1595000D01*
X1552500Y1318358D02*
Y1382500D01*
X1508256Y1274114D02*
X1552500Y1318358D01*
X1507787Y1274114D02*
X1508256D01*
X1505365Y1271693D02*
X1507787Y1274114D01*
X1478465Y1271693D02*
X1505365D01*
X1542500Y1322500D02*
Y1337500D01*
X1511500Y1291500D02*
X1542500Y1322500D01*
X1478586Y1291500D02*
X1511500D01*
X1520000Y1360000D02*
Y1385000D01*
Y1360000D02*
X1542500Y1337500D01*
X1478465Y1291378D02*
X1478586Y1291500D01*
X1431197Y1420000D02*
X1480000D01*
X1428268Y1417071D02*
X1431197Y1420000D01*
X1428268Y1380945D02*
Y1417071D01*
D18*
X1595000Y1340000D02*
X1645000D01*
X1524252Y1330748D02*
X1525000Y1330000D01*
X1478465Y1330748D02*
X1524252D01*
D19*
X1801693Y1290000D02*
X1902546D01*
X1917546Y1275000D01*
X1930000D01*
X1895000Y1340000D02*
X1930000Y1375000D01*
X1801693Y1340000D02*
X1895000D01*
D20*
X1479596Y1408598D02*
D03*
X1520935D02*
D03*
D21*
X1070000Y1175000D02*
D03*
X1930000D02*
D03*
Y1275000D02*
D03*
Y1375000D02*
D03*
X1070000Y1275000D02*
D03*
Y1375000D02*
D03*
D22*
X1930000Y1075000D02*
D03*
X1070000D02*
D03*
D23*
X1391063Y1311063D02*
D03*
X1310000Y1310000D02*
D03*
Y1130000D02*
D03*
X1525250Y1147323D02*
D03*
X1525000Y1110000D02*
D03*
X1845000Y1390000D02*
D03*
X1645000Y1340000D02*
D03*
X1640000Y1290000D02*
D03*
X1550000Y1415000D02*
D03*
X1450000Y1390000D02*
D03*
X1405000Y1430000D02*
D03*
X1185000D02*
D03*
X1145000D02*
D03*
Y1020000D02*
D03*
X1185000D02*
D03*
X1480000D02*
D03*
X1520000D02*
D03*
X1615000D02*
D03*
X1670000D02*
D03*
X1750000D02*
D03*
X1785000Y1130000D02*
D03*
X1685000Y1200000D02*
D03*
Y1170000D02*
D03*
Y1140000D02*
D03*
X1285000Y1430000D02*
D03*
X1255000Y1180000D02*
D03*
Y1210000D02*
D03*
X1430000Y1015000D02*
D03*
X1400000D02*
D03*
X1220000Y1200000D02*
D03*
Y1240000D02*
D03*
X1385000Y1220000D02*
D03*
X1425000Y1250000D02*
D03*
X1385000Y1280000D02*
D03*
X1525000Y1330000D02*
D03*
%TF.MD5,63293362c1f10a57643f7ce74c4b6efb*%
M02*
