%TF.GenerationSoftware,Altium Limited,Altium Designer,19.1.7 (138)*%
G04 Layer_Color=8421504*
%FSLAX26Y26*%
%MOIN*%
%TF.FileFunction,Paste,Top*%
%TF.Part,Single*%
G01*
G75*
%TA.AperFunction,SMDPad,CuDef*%
%ADD10R,0.029528X0.025591*%
%ADD11R,0.031496X0.031496*%
%ADD12O,0.061024X0.009842*%
%ADD13O,0.009842X0.061024*%
%ADD14R,0.024409X0.025984*%
%ADD15R,0.028346X0.029921*%
G04:AMPARAMS|DCode=16|XSize=21.654mil|YSize=49.213mil|CornerRadius=1.949mil|HoleSize=0mil|Usage=FLASHONLY|Rotation=90.000|XOffset=0mil|YOffset=0mil|HoleType=Round|Shape=RoundedRectangle|*
%AMROUNDEDRECTD16*
21,1,0.021654,0.045315,0,0,90.0*
21,1,0.017756,0.049213,0,0,90.0*
1,1,0.003898,0.022657,0.008878*
1,1,0.003898,0.022657,-0.008878*
1,1,0.003898,-0.022657,-0.008878*
1,1,0.003898,-0.022657,0.008878*
%
%ADD16ROUNDEDRECTD16*%
D10*
X1785000Y1091654D02*
D03*
Y1048347D02*
D03*
D11*
X1705000Y1035000D02*
D03*
Y1097992D02*
D03*
D12*
X1161535Y1330748D02*
D03*
Y1311063D02*
D03*
Y1291378D02*
D03*
Y1271693D02*
D03*
Y1252008D02*
D03*
Y1232323D02*
D03*
Y1212638D02*
D03*
Y1192953D02*
D03*
Y1173268D02*
D03*
Y1153583D02*
D03*
Y1133898D02*
D03*
Y1114213D02*
D03*
X1478465D02*
D03*
Y1133898D02*
D03*
Y1153583D02*
D03*
Y1173268D02*
D03*
Y1192953D02*
D03*
Y1212638D02*
D03*
Y1232323D02*
D03*
Y1252008D02*
D03*
Y1271693D02*
D03*
Y1291378D02*
D03*
Y1311063D02*
D03*
Y1330748D02*
D03*
D13*
X1211732Y1064016D02*
D03*
X1231417D02*
D03*
X1251102D02*
D03*
X1270787D02*
D03*
X1290472D02*
D03*
X1310157D02*
D03*
X1329842D02*
D03*
X1349527D02*
D03*
X1369213D02*
D03*
X1388898D02*
D03*
X1408583D02*
D03*
X1428268D02*
D03*
Y1380945D02*
D03*
X1408583D02*
D03*
X1388898D02*
D03*
X1369213D02*
D03*
X1349527D02*
D03*
X1329842D02*
D03*
X1310157D02*
D03*
X1290472D02*
D03*
X1270787D02*
D03*
X1251102D02*
D03*
X1231417D02*
D03*
X1211732D02*
D03*
D14*
X1595000Y1142677D02*
D03*
Y1177323D02*
D03*
D15*
X1635000Y1140709D02*
D03*
Y1179291D02*
D03*
D16*
X1801693Y1290000D02*
D03*
Y1340000D02*
D03*
Y1240000D02*
D03*
Y1390000D02*
D03*
X1595000Y1240000D02*
D03*
Y1290000D02*
D03*
Y1340000D02*
D03*
Y1390000D02*
D03*
%TF.MD5,653968fd12c76270b13cfff02813ba53*%
M02*
