%TF.GenerationSoftware,Altium Limited,Altium Designer,19.1.7 (138)*%
G04 Layer_Color=8388736*
%FSLAX26Y26*%
%MOIN*%
%TF.FileFunction,Soldermask,Top*%
%TF.Part,Single*%
G01*
G75*
%TA.AperFunction,SMDPad,CuDef*%
%ADD40R,0.032409X0.033984*%
%TA.AperFunction,ComponentPad*%
%ADD51C,0.069024*%
%ADD52R,0.069024X0.069024*%
%TA.AperFunction,ViaPad*%
%ADD53C,0.028000*%
%TA.AperFunction,NonConductor*%
%ADD55R,0.028131X0.052804*%
%TA.AperFunction,SMDPad,CuDef*%
%ADD56R,0.037528X0.033591*%
%ADD57R,0.039496X0.039496*%
%ADD58O,0.069024X0.017843*%
%ADD59O,0.017843X0.069024*%
%ADD60R,0.036346X0.037921*%
G04:AMPARAMS|DCode=61|XSize=29.654mil|YSize=57.213mil|CornerRadius=5.949mil|HoleSize=0mil|Usage=FLASHONLY|Rotation=90.000|XOffset=0mil|YOffset=0mil|HoleType=Round|Shape=RoundedRectangle|*
%AMROUNDEDRECTD61*
21,1,0.029654,0.045315,0,0,90.0*
21,1,0.017756,0.057213,0,0,90.0*
1,1,0.011898,0.022657,0.008878*
1,1,0.011898,0.022657,-0.008878*
1,1,0.011898,-0.022657,-0.008878*
1,1,0.011898,-0.022657,0.008878*
%
%ADD61ROUNDEDRECTD61*%
D40*
X1595000Y1142677D02*
D03*
Y1177323D02*
D03*
D51*
X1070000Y1175000D02*
D03*
X1930000D02*
D03*
Y1275000D02*
D03*
Y1375000D02*
D03*
X1070000Y1275000D02*
D03*
Y1375000D02*
D03*
D52*
X1930000Y1075000D02*
D03*
X1070000D02*
D03*
D53*
X1391063Y1311063D02*
D03*
X1310000Y1310000D02*
D03*
Y1130000D02*
D03*
X1525250Y1147323D02*
D03*
X1525000Y1110000D02*
D03*
X1845000Y1390000D02*
D03*
X1645000Y1340000D02*
D03*
X1640000Y1290000D02*
D03*
X1550000Y1415000D02*
D03*
X1450000Y1390000D02*
D03*
X1405000Y1430000D02*
D03*
X1185000D02*
D03*
X1145000D02*
D03*
Y1020000D02*
D03*
X1185000D02*
D03*
X1480000D02*
D03*
X1520000D02*
D03*
X1615000D02*
D03*
X1670000D02*
D03*
X1750000D02*
D03*
X1785000Y1130000D02*
D03*
X1685000Y1200000D02*
D03*
Y1170000D02*
D03*
Y1140000D02*
D03*
X1285000Y1430000D02*
D03*
X1255000Y1180000D02*
D03*
Y1210000D02*
D03*
X1430000Y1015000D02*
D03*
X1400000D02*
D03*
X1220000Y1200000D02*
D03*
Y1240000D02*
D03*
X1385000Y1220000D02*
D03*
X1425000Y1250000D02*
D03*
X1385000Y1280000D02*
D03*
X1525000Y1330000D02*
D03*
D55*
X1479596Y1408598D02*
D03*
X1520935D02*
D03*
D56*
X1785000Y1091654D02*
D03*
Y1048347D02*
D03*
D57*
X1705000Y1035000D02*
D03*
Y1097992D02*
D03*
D58*
X1161535Y1330748D02*
D03*
Y1311063D02*
D03*
Y1291378D02*
D03*
Y1271693D02*
D03*
Y1252008D02*
D03*
Y1232323D02*
D03*
Y1212638D02*
D03*
Y1192953D02*
D03*
Y1173268D02*
D03*
Y1153583D02*
D03*
Y1133898D02*
D03*
Y1114213D02*
D03*
X1478465D02*
D03*
Y1133898D02*
D03*
Y1153583D02*
D03*
Y1173268D02*
D03*
Y1192953D02*
D03*
Y1212638D02*
D03*
Y1232323D02*
D03*
Y1252008D02*
D03*
Y1271693D02*
D03*
Y1291378D02*
D03*
Y1311063D02*
D03*
Y1330748D02*
D03*
D59*
X1211732Y1064016D02*
D03*
X1231417D02*
D03*
X1251102D02*
D03*
X1270787D02*
D03*
X1290472D02*
D03*
X1310157D02*
D03*
X1329842D02*
D03*
X1349527D02*
D03*
X1369213D02*
D03*
X1388898D02*
D03*
X1408583D02*
D03*
X1428268D02*
D03*
Y1380945D02*
D03*
X1408583D02*
D03*
X1388898D02*
D03*
X1369213D02*
D03*
X1349527D02*
D03*
X1329842D02*
D03*
X1310157D02*
D03*
X1290472D02*
D03*
X1270787D02*
D03*
X1251102D02*
D03*
X1231417D02*
D03*
X1211732D02*
D03*
D60*
X1635000Y1140709D02*
D03*
Y1179291D02*
D03*
D61*
X1801693Y1290000D02*
D03*
Y1340000D02*
D03*
Y1240000D02*
D03*
Y1390000D02*
D03*
X1595000Y1240000D02*
D03*
Y1290000D02*
D03*
Y1340000D02*
D03*
Y1390000D02*
D03*
%TF.MD5,ba14ba8ebaa353ddc8f0d2429a4824a9*%
M02*
