%TF.GenerationSoftware,Altium Limited,Altium Designer,19.1.7 (138)*%
G04 Layer_Color=32768*
%FSLAX26Y26*%
%MOIN*%
%TF.FileFunction,Other,Mechanical_15*%
%TF.Part,Single*%
G01*
G75*
%TA.AperFunction,NonConductor*%
%ADD62C,0.003937*%
%ADD63C,0.001968*%
D62*
X1679409Y1006457D02*
X1730591D01*
X1679409Y1126535D02*
X1730591D01*
X1679409Y1006457D02*
Y1126535D01*
X1730591Y1006457D02*
Y1126535D01*
X1705000Y1048780D02*
Y1084213D01*
X1687284Y1066496D02*
X1722717D01*
X1325906Y1415394D02*
X1363307D01*
X1344606Y1396693D02*
Y1434094D01*
X1300315Y1222480D02*
X1339685D01*
X1320000Y1202795D02*
Y1242165D01*
X1555000Y1119173D02*
Y1140827D01*
X1544173Y1130000D02*
X1565827D01*
X1489173Y1390000D02*
X1510827D01*
X1500000Y1379173D02*
Y1400827D01*
X1154173Y1390000D02*
X1175827D01*
X1165000Y1379173D02*
Y1400827D01*
X1489173Y1055000D02*
X1510827D01*
X1500000Y1044173D02*
Y1065827D01*
X1154173Y1055000D02*
X1175827D01*
X1165000Y1044173D02*
Y1065827D01*
X1315000Y1201299D02*
Y1238701D01*
X1296299Y1220000D02*
X1333701D01*
X1280000Y1134173D02*
Y1155827D01*
X1269173Y1145000D02*
X1290827D01*
X1280000Y1284173D02*
Y1305827D01*
X1269173Y1295000D02*
X1290827D01*
X1584173Y1160000D02*
X1605827D01*
X1595000Y1149173D02*
Y1170827D01*
X1624173Y1160000D02*
X1645827D01*
X1635000Y1149173D02*
Y1170827D01*
X1537284Y1225000D02*
X1572716D01*
X1555000Y1207284D02*
Y1242716D01*
X1627284Y1070000D02*
X1662716D01*
X1645000Y1052284D02*
Y1087716D01*
X1765315Y1070000D02*
X1804685D01*
X1785000Y1050315D02*
Y1089685D01*
X1170315Y1215000D02*
X1209685D01*
X1190000Y1195315D02*
Y1234685D01*
X1735000Y1264488D02*
Y1303858D01*
X1715315Y1284173D02*
X1754685D01*
X1698347Y1295315D02*
Y1334685D01*
X1678661Y1315000D02*
X1718032D01*
D63*
X1774173Y1070000D02*
X1795827D01*
X1785000Y1059173D02*
Y1080827D01*
X1808622Y1026693D02*
Y1113307D01*
X1761378Y1026693D02*
Y1113307D01*
X1808622D01*
X1761378Y1026693D02*
X1808622D01*
X1301299Y1391772D02*
Y1439016D01*
X1387913Y1391772D02*
Y1439016D01*
X1301299Y1391772D02*
X1387913D01*
X1301299Y1439016D02*
X1387913D01*
X1127087Y1029567D02*
Y1415394D01*
X1512913Y1029567D02*
Y1415394D01*
X1127087D02*
X1512913D01*
X1127087Y1029567D02*
X1512913D01*
X1535315Y1167401D02*
X1574685D01*
X1535315Y1092598D02*
X1574685D01*
X1535315D02*
Y1167401D01*
X1574685Y1092598D02*
Y1167401D01*
X1543307Y1366378D02*
Y1413622D01*
X1456693Y1366378D02*
Y1413622D01*
X1543307D01*
X1456693Y1366378D02*
X1543307D01*
X1208307D02*
Y1413622D01*
X1121693Y1366378D02*
Y1413622D01*
X1208307D01*
X1121693Y1366378D02*
X1208307D01*
X1456693Y1031378D02*
Y1078622D01*
X1543307Y1031378D02*
Y1078622D01*
X1456693Y1031378D02*
X1543307D01*
X1456693Y1078622D02*
X1543307D01*
X1121693Y1031378D02*
Y1078622D01*
X1208307Y1031378D02*
Y1078622D01*
X1121693Y1031378D02*
X1208307D01*
X1121693Y1078622D02*
X1208307D01*
X1291378Y1263307D02*
X1338622D01*
X1291378Y1176693D02*
X1338622D01*
X1291378D02*
Y1263307D01*
X1338622Y1176693D02*
Y1263307D01*
X1264252Y1113504D02*
X1295748D01*
X1264252Y1176496D02*
X1295748D01*
Y1113504D02*
Y1176496D01*
X1264252Y1113504D02*
Y1176496D01*
X1264252Y1326496D02*
X1295748D01*
X1264252Y1263504D02*
X1295748D01*
X1264252D02*
Y1326496D01*
X1295748Y1263504D02*
Y1326496D01*
X1575315Y1122598D02*
Y1197401D01*
X1614685Y1122598D02*
Y1197401D01*
X1575315Y1122598D02*
X1614685D01*
X1575315Y1197401D02*
X1614685D01*
X1611378Y1116693D02*
Y1203307D01*
X1658622Y1116693D02*
Y1203307D01*
X1611378Y1116693D02*
X1658622D01*
X1611378Y1203307D02*
X1658622D01*
X1584527Y1171850D02*
Y1278150D01*
X1525472Y1171850D02*
Y1278150D01*
Y1171850D02*
X1584527D01*
X1525472Y1278150D02*
X1584527D01*
X1591850Y1040472D02*
Y1099527D01*
X1698150Y1040472D02*
Y1099527D01*
X1591850Y1040472D02*
X1698150D01*
X1591850Y1099527D02*
X1698150D01*
X1871614Y1018819D02*
Y1121181D01*
X1698386Y1018819D02*
Y1121181D01*
X1871614D01*
X1698386Y1018819D02*
X1871614D01*
X1123071Y1092953D02*
X1256929D01*
Y1337047D01*
X1123071D02*
X1256929D01*
X1123071Y1092953D02*
Y1337047D01*
X1593268Y1112913D02*
X1876732D01*
X1593268Y1455433D02*
X1876732D01*
Y1112913D02*
Y1455433D01*
X1593268Y1112913D02*
Y1455433D01*
X1871142Y1441339D02*
X1988858D01*
Y1008661D02*
Y1441339D01*
X1871142Y1008661D02*
X1988858D01*
X1871142D02*
Y1441339D01*
X1011142D02*
X1128858D01*
Y1008661D02*
Y1441339D01*
X1011142Y1008661D02*
X1128858D01*
X1011142D02*
Y1441339D01*
X1566457Y1212638D02*
X1830236D01*
X1566457Y1417362D02*
X1830236D01*
Y1212638D02*
Y1417362D01*
X1566457Y1212638D02*
Y1417362D01*
%TF.MD5,41f208b7cb9237fc1ef75bf42bf5270d*%
M02*
