%TF.GenerationSoftware,Altium Limited,Altium Designer,19.1.7 (138)*%
G04 Layer_Color=255*
%FSLAX26Y26*%
%MOIN*%
%TF.FileFunction,Pads,Bot*%
%TF.Part,Single*%
G01*
G75*
%TA.AperFunction,SMDPad,CuDef*%
%ADD14R,0.024409X0.025984*%
%TA.AperFunction,ComponentPad*%
%ADD21C,0.061024*%
%ADD22R,0.061024X0.061024*%
%TA.AperFunction,SMDPad,CuDef*%
%ADD24R,0.027559X0.033465*%
%ADD25R,0.029921X0.028346*%
%ADD26R,0.033465X0.027559*%
%ADD27R,0.020472X0.022047*%
%ADD28R,0.037402X0.033465*%
%ADD29R,0.033465X0.037402*%
%ADD30R,0.061024X0.061024*%
%ADD31R,0.013000X0.059000*%
%ADD32R,0.094488X0.074803*%
%TA.AperFunction,ConnectorPad*%
%ADD33R,0.039370X0.094488*%
%ADD34R,0.129921X0.094488*%
D14*
X1555000Y1147323D02*
D03*
Y1112677D02*
D03*
D21*
X1070000Y1175000D02*
D03*
X1930000D02*
D03*
Y1275000D02*
D03*
Y1375000D02*
D03*
X1070000Y1275000D02*
D03*
Y1375000D02*
D03*
D22*
X1930000Y1075000D02*
D03*
X1070000D02*
D03*
D24*
X1320000Y1415394D02*
D03*
X1369213D02*
D03*
D25*
X1519291Y1390000D02*
D03*
X1480709D02*
D03*
X1184291D02*
D03*
X1145709D02*
D03*
X1480709Y1055000D02*
D03*
X1519291D02*
D03*
X1145709D02*
D03*
X1184291D02*
D03*
D26*
X1315000Y1244606D02*
D03*
Y1195394D02*
D03*
D27*
X1280000Y1129646D02*
D03*
Y1160354D02*
D03*
Y1310354D02*
D03*
Y1279646D02*
D03*
D28*
X1555000Y1198425D02*
D03*
Y1251575D02*
D03*
D29*
X1618425Y1070000D02*
D03*
X1671575D02*
D03*
D30*
X1821417D02*
D03*
X1748583D02*
D03*
D31*
X1494000Y1134000D02*
D03*
X1475000D02*
D03*
X1455000D02*
D03*
X1435000D02*
D03*
X1416000D02*
D03*
Y1306000D02*
D03*
X1435000D02*
D03*
X1455000D02*
D03*
X1475000D02*
D03*
X1494000D02*
D03*
D32*
X1190000Y1134291D02*
D03*
Y1295709D02*
D03*
D33*
X1825551Y1170000D02*
D03*
X1735000D02*
D03*
X1644449D02*
D03*
D34*
X1735000Y1398347D02*
D03*
%TF.MD5,a6fe0359893fa45051644df390b562b6*%
M02*
