%TF.GenerationSoftware,Altium Limited,Altium Designer,19.1.7 (138)*%
G04 Layer_Physical_Order=3*
G04 Layer_Color=16440176*
%FSLAX26Y26*%
%MOIN*%
%TF.FileFunction,Copper,L3,Inr,Signal*%
%TF.Part,Single*%
G01*
G75*
%TA.AperFunction,ComponentPad*%
%ADD21C,0.061024*%
%ADD22R,0.061024X0.061024*%
%TA.AperFunction,ViaPad*%
%ADD23C,0.020000*%
G36*
X2000000Y1000000D02*
X1751970D01*
X1751478Y1005000D01*
X1753243Y1005351D01*
X1755853Y1005870D01*
X1760814Y1009186D01*
X1764130Y1014147D01*
X1765294Y1020000D01*
X1764130Y1025853D01*
X1760814Y1030814D01*
X1755853Y1034130D01*
X1750000Y1035294D01*
X1744147Y1034130D01*
X1739186Y1030814D01*
X1735870Y1025853D01*
X1734706Y1020000D01*
X1735870Y1014147D01*
X1739186Y1009186D01*
X1744147Y1005870D01*
X1746757Y1005351D01*
X1748522Y1005000D01*
X1748030Y1000000D01*
X1671970D01*
X1671478Y1005000D01*
X1673243Y1005351D01*
X1675853Y1005870D01*
X1680814Y1009186D01*
X1684130Y1014147D01*
X1685294Y1020000D01*
X1684130Y1025853D01*
X1680814Y1030814D01*
X1675853Y1034130D01*
X1670000Y1035294D01*
X1664147Y1034130D01*
X1659186Y1030814D01*
X1655870Y1025853D01*
X1654706Y1020000D01*
X1655870Y1014147D01*
X1659186Y1009186D01*
X1664147Y1005870D01*
X1666757Y1005351D01*
X1668522Y1005000D01*
X1668030Y1000000D01*
X1630067D01*
X1628550Y1005000D01*
X1629419Y1005581D01*
X1633840Y1012196D01*
X1634397Y1015000D01*
X1595603D01*
X1596160Y1012196D01*
X1600581Y1005581D01*
X1601450Y1005000D01*
X1599933Y1000000D01*
X1521970D01*
X1521478Y1005000D01*
X1525853Y1005870D01*
X1530814Y1009186D01*
X1534130Y1014147D01*
X1535294Y1020000D01*
X1534130Y1025853D01*
X1530814Y1030814D01*
X1525853Y1034130D01*
X1520000Y1035294D01*
X1514147Y1034130D01*
X1509186Y1030814D01*
X1505870Y1025853D01*
X1505098Y1021970D01*
X1500000D01*
X1498840Y1027804D01*
X1494419Y1034419D01*
X1487804Y1038840D01*
X1485000Y1039397D01*
Y1020000D01*
X1480000D01*
Y1015000D01*
X1460603D01*
X1461160Y1012196D01*
X1465581Y1005581D01*
X1466450Y1005000D01*
X1464933Y1000000D01*
X1450045D01*
X1447372Y1005000D01*
X1448840Y1007196D01*
X1449397Y1010000D01*
X1430000D01*
Y1015000D01*
X1425000D01*
Y1034397D01*
X1422196Y1033840D01*
X1415581Y1029419D01*
X1413172Y1025814D01*
X1410814D01*
X1405853Y1029130D01*
X1400000Y1030294D01*
X1394147Y1029130D01*
X1389186Y1025814D01*
X1385870Y1020853D01*
X1384706Y1015000D01*
X1385870Y1009147D01*
X1388641Y1005000D01*
X1387721Y1001945D01*
X1386450Y1000000D01*
X1186970D01*
X1186478Y1005000D01*
X1190853Y1005870D01*
X1195814Y1009186D01*
X1199130Y1014147D01*
X1200294Y1020000D01*
X1199130Y1025853D01*
X1195814Y1030814D01*
X1190853Y1034130D01*
X1185000Y1035294D01*
X1179147Y1034130D01*
X1174186Y1030814D01*
X1170870Y1025853D01*
X1170098Y1021970D01*
X1165000D01*
X1163840Y1027804D01*
X1159419Y1034419D01*
X1152804Y1038840D01*
X1150000Y1039397D01*
Y1020000D01*
X1145000D01*
Y1015000D01*
X1125603D01*
X1126160Y1012196D01*
X1130581Y1005581D01*
X1131450Y1005000D01*
X1129933Y1000000D01*
X1000000D01*
Y1450000D01*
X1143030D01*
X1143522Y1445000D01*
X1139147Y1444130D01*
X1134186Y1440814D01*
X1130870Y1435853D01*
X1129706Y1430000D01*
X1130870Y1424147D01*
X1134186Y1419186D01*
X1139147Y1415870D01*
X1145000Y1414706D01*
X1150853Y1415870D01*
X1155814Y1419186D01*
X1159130Y1424147D01*
X1159902Y1428030D01*
X1165000D01*
X1166160Y1422196D01*
X1170581Y1415581D01*
X1177196Y1411160D01*
X1180000Y1410603D01*
Y1430000D01*
X1185000D01*
Y1435000D01*
X1204397D01*
X1203840Y1437804D01*
X1199419Y1444419D01*
X1198550Y1445000D01*
X1200067Y1450000D01*
X1283030D01*
X1283522Y1445000D01*
X1281757Y1444649D01*
X1279147Y1444130D01*
X1274186Y1440814D01*
X1270870Y1435853D01*
X1269706Y1430000D01*
X1270870Y1424147D01*
X1274186Y1419186D01*
X1279147Y1415870D01*
X1285000Y1414706D01*
X1290853Y1415870D01*
X1295814Y1419186D01*
X1299130Y1424147D01*
X1300294Y1430000D01*
X1299130Y1435853D01*
X1295814Y1440814D01*
X1290853Y1444130D01*
X1288243Y1444649D01*
X1286478Y1445000D01*
X1286970Y1450000D01*
X1403030D01*
X1403522Y1445000D01*
X1401757Y1444649D01*
X1399147Y1444130D01*
X1394186Y1440814D01*
X1390870Y1435853D01*
X1389706Y1430000D01*
X1390870Y1424147D01*
X1394186Y1419186D01*
X1399147Y1415870D01*
X1405000Y1414706D01*
X1410853Y1415870D01*
X1415814Y1419186D01*
X1419130Y1424147D01*
X1420294Y1430000D01*
X1419130Y1435853D01*
X1415814Y1440814D01*
X1410853Y1444130D01*
X1408243Y1444649D01*
X1406478Y1445000D01*
X1406970Y1450000D01*
X2000000D01*
Y1000000D01*
D02*
G37*
%LPC*%
G36*
X1555000Y1434397D02*
Y1420000D01*
X1569397D01*
X1568840Y1422804D01*
X1564419Y1429419D01*
X1557804Y1433840D01*
X1555000Y1434397D01*
D02*
G37*
G36*
X1545000D02*
X1542196Y1433840D01*
X1535581Y1429419D01*
X1531160Y1422804D01*
X1530603Y1420000D01*
X1545000D01*
Y1434397D01*
D02*
G37*
G36*
X1204397Y1425000D02*
X1190000D01*
Y1410603D01*
X1192804Y1411160D01*
X1199419Y1415581D01*
X1203840Y1422196D01*
X1204397Y1425000D01*
D02*
G37*
G36*
X1569397Y1410000D02*
X1555000D01*
Y1395603D01*
X1557804Y1396160D01*
X1564419Y1400581D01*
X1568840Y1407196D01*
X1569397Y1410000D01*
D02*
G37*
G36*
X1545000D02*
X1530603D01*
X1531160Y1407196D01*
X1535581Y1400581D01*
X1542196Y1396160D01*
X1545000Y1395603D01*
Y1410000D01*
D02*
G37*
G36*
X1845000Y1405294D02*
X1839147Y1404130D01*
X1834186Y1400814D01*
X1830870Y1395853D01*
X1829706Y1390000D01*
X1830870Y1384147D01*
X1834186Y1379186D01*
X1839147Y1375870D01*
X1845000Y1374706D01*
X1850853Y1375870D01*
X1855814Y1379186D01*
X1859130Y1384147D01*
X1860294Y1390000D01*
X1859130Y1395853D01*
X1855814Y1400814D01*
X1850853Y1404130D01*
X1845000Y1405294D01*
D02*
G37*
G36*
X1450000D02*
X1444147Y1404130D01*
X1439186Y1400814D01*
X1435870Y1395853D01*
X1434706Y1390000D01*
X1435870Y1384147D01*
X1439186Y1379186D01*
X1444147Y1375870D01*
X1450000Y1374706D01*
X1455853Y1375870D01*
X1460814Y1379186D01*
X1464130Y1384147D01*
X1465294Y1390000D01*
X1464130Y1395853D01*
X1460814Y1400814D01*
X1455853Y1404130D01*
X1450000Y1405294D01*
D02*
G37*
G36*
X1930000Y1410818D02*
X1920730Y1409598D01*
X1912091Y1406020D01*
X1904673Y1400327D01*
X1898980Y1392909D01*
X1895402Y1384270D01*
X1894182Y1375000D01*
X1895402Y1365730D01*
X1898980Y1357091D01*
X1904673Y1349673D01*
X1912091Y1343980D01*
X1920730Y1340402D01*
X1930000Y1339182D01*
X1939270Y1340402D01*
X1947909Y1343980D01*
X1955327Y1349673D01*
X1961020Y1357091D01*
X1964598Y1365730D01*
X1965818Y1375000D01*
X1964598Y1384270D01*
X1961020Y1392909D01*
X1955327Y1400327D01*
X1947909Y1406020D01*
X1939270Y1409598D01*
X1930000Y1410818D01*
D02*
G37*
G36*
X1070000D02*
X1060730Y1409598D01*
X1052091Y1406020D01*
X1044673Y1400327D01*
X1038980Y1392909D01*
X1035402Y1384270D01*
X1034182Y1375000D01*
X1035402Y1365730D01*
X1038980Y1357091D01*
X1044673Y1349673D01*
X1052091Y1343980D01*
X1060730Y1340402D01*
X1070000Y1339182D01*
X1079270Y1340402D01*
X1087909Y1343980D01*
X1095327Y1349673D01*
X1101020Y1357091D01*
X1104598Y1365730D01*
X1105818Y1375000D01*
X1104598Y1384270D01*
X1101020Y1392909D01*
X1095327Y1400327D01*
X1087909Y1406020D01*
X1079270Y1409598D01*
X1070000Y1410818D01*
D02*
G37*
G36*
X1530000Y1349397D02*
Y1335000D01*
X1544397D01*
X1543840Y1337804D01*
X1539419Y1344419D01*
X1532804Y1348840D01*
X1530000Y1349397D01*
D02*
G37*
G36*
X1520000D02*
X1517196Y1348840D01*
X1510581Y1344419D01*
X1506160Y1337804D01*
X1505603Y1335000D01*
X1520000D01*
Y1349397D01*
D02*
G37*
G36*
X1645000Y1355294D02*
X1639147Y1354130D01*
X1634186Y1350814D01*
X1630870Y1345853D01*
X1629706Y1340000D01*
X1630870Y1334147D01*
X1634186Y1329186D01*
X1639147Y1325870D01*
X1645000Y1324706D01*
X1650853Y1325870D01*
X1655814Y1329186D01*
X1659130Y1334147D01*
X1660294Y1340000D01*
X1659130Y1345853D01*
X1655814Y1350814D01*
X1650853Y1354130D01*
X1645000Y1355294D01*
D02*
G37*
G36*
X1544397Y1325000D02*
X1530000D01*
Y1310603D01*
X1532804Y1311160D01*
X1539419Y1315581D01*
X1543840Y1322196D01*
X1544397Y1325000D01*
D02*
G37*
G36*
X1520000D02*
X1505603D01*
X1506160Y1322196D01*
X1510581Y1315581D01*
X1517196Y1311160D01*
X1520000Y1310603D01*
Y1325000D01*
D02*
G37*
G36*
X1645000Y1309397D02*
Y1295000D01*
X1659397D01*
X1658840Y1297804D01*
X1654419Y1304419D01*
X1647804Y1308840D01*
X1645000Y1309397D01*
D02*
G37*
G36*
X1635000D02*
X1632196Y1308840D01*
X1625581Y1304419D01*
X1621160Y1297804D01*
X1620603Y1295000D01*
X1635000D01*
Y1309397D01*
D02*
G37*
G36*
X1310000Y1325294D02*
X1304147Y1324130D01*
X1299186Y1320814D01*
X1295870Y1315853D01*
X1294706Y1310000D01*
X1295870Y1304147D01*
X1299186Y1299186D01*
X1304147Y1295870D01*
X1310000Y1294706D01*
X1315853Y1295870D01*
X1320814Y1299186D01*
X1324130Y1304147D01*
X1325294Y1310000D01*
X1324130Y1315853D01*
X1320814Y1320814D01*
X1315853Y1324130D01*
X1310000Y1325294D01*
D02*
G37*
G36*
X1659397Y1285000D02*
X1645000D01*
Y1270603D01*
X1647804Y1271160D01*
X1654419Y1275581D01*
X1658840Y1282196D01*
X1659397Y1285000D01*
D02*
G37*
G36*
X1635000D02*
X1620603D01*
X1621160Y1282196D01*
X1625581Y1275581D01*
X1632196Y1271160D01*
X1635000Y1270603D01*
Y1285000D01*
D02*
G37*
G36*
X1391063Y1326357D02*
X1385210Y1325193D01*
X1380249Y1321877D01*
X1376933Y1316916D01*
X1375769Y1311063D01*
X1376933Y1305210D01*
X1380249Y1300249D01*
X1381173Y1299631D01*
X1380118Y1294323D01*
X1379147Y1294130D01*
X1374186Y1290814D01*
X1370870Y1285853D01*
X1369706Y1280000D01*
X1370870Y1274147D01*
X1374186Y1269186D01*
X1379147Y1265870D01*
X1385000Y1264706D01*
X1390853Y1265870D01*
X1395814Y1269186D01*
X1399130Y1274147D01*
X1400294Y1280000D01*
X1399130Y1285853D01*
X1395814Y1290814D01*
X1394890Y1291432D01*
X1395946Y1296740D01*
X1396916Y1296933D01*
X1401877Y1300249D01*
X1405193Y1305210D01*
X1406357Y1311063D01*
X1405193Y1316916D01*
X1401877Y1321877D01*
X1396916Y1325193D01*
X1391063Y1326357D01*
D02*
G37*
G36*
X1930000Y1310818D02*
X1920730Y1309598D01*
X1912091Y1306020D01*
X1904673Y1300327D01*
X1898980Y1292909D01*
X1895402Y1284270D01*
X1894182Y1275000D01*
X1895402Y1265730D01*
X1898980Y1257091D01*
X1904673Y1249673D01*
X1912091Y1243980D01*
X1920730Y1240402D01*
X1930000Y1239182D01*
X1939270Y1240402D01*
X1947909Y1243980D01*
X1955327Y1249673D01*
X1961020Y1257091D01*
X1964598Y1265730D01*
X1965818Y1275000D01*
X1964598Y1284270D01*
X1961020Y1292909D01*
X1955327Y1300327D01*
X1947909Y1306020D01*
X1939270Y1309598D01*
X1930000Y1310818D01*
D02*
G37*
G36*
X1070000D02*
X1060730Y1309598D01*
X1052091Y1306020D01*
X1044673Y1300327D01*
X1038980Y1292909D01*
X1035402Y1284270D01*
X1034182Y1275000D01*
X1035402Y1265730D01*
X1038980Y1257091D01*
X1044673Y1249673D01*
X1052091Y1243980D01*
X1060730Y1240402D01*
X1070000Y1239182D01*
X1079270Y1240402D01*
X1087909Y1243980D01*
X1095327Y1249673D01*
X1101020Y1257091D01*
X1104598Y1265730D01*
X1105818Y1275000D01*
X1104598Y1284270D01*
X1101020Y1292909D01*
X1095327Y1300327D01*
X1087909Y1306020D01*
X1079270Y1309598D01*
X1070000Y1310818D01*
D02*
G37*
G36*
X1425000Y1265294D02*
X1419147Y1264130D01*
X1414186Y1260814D01*
X1410870Y1255853D01*
X1409706Y1250000D01*
X1410870Y1244147D01*
X1414186Y1239186D01*
X1419147Y1235870D01*
X1425000Y1234706D01*
X1430853Y1235870D01*
X1435814Y1239186D01*
X1439130Y1244147D01*
X1440294Y1250000D01*
X1439130Y1255853D01*
X1435814Y1260814D01*
X1430853Y1264130D01*
X1425000Y1265294D01*
D02*
G37*
G36*
X1220000Y1255294D02*
X1214147Y1254130D01*
X1209186Y1250814D01*
X1205870Y1245853D01*
X1204706Y1240000D01*
X1205870Y1234147D01*
X1209186Y1229186D01*
X1214147Y1225870D01*
X1220000Y1224706D01*
X1225853Y1225870D01*
X1230814Y1229186D01*
X1234130Y1234147D01*
X1235294Y1240000D01*
X1234130Y1245853D01*
X1230814Y1250814D01*
X1225853Y1254130D01*
X1220000Y1255294D01*
D02*
G37*
G36*
X1690000Y1219397D02*
Y1205000D01*
X1704397D01*
X1703840Y1207804D01*
X1699419Y1214419D01*
X1692804Y1218840D01*
X1690000Y1219397D01*
D02*
G37*
G36*
X1680000D02*
X1677196Y1218840D01*
X1670581Y1214419D01*
X1666160Y1207804D01*
X1665603Y1205000D01*
X1680000D01*
Y1219397D01*
D02*
G37*
G36*
X1385000Y1235294D02*
X1379147Y1234130D01*
X1374186Y1230814D01*
X1370870Y1225853D01*
X1369706Y1220000D01*
X1370870Y1214147D01*
X1374186Y1209186D01*
X1379147Y1205870D01*
X1385000Y1204706D01*
X1390853Y1205870D01*
X1395814Y1209186D01*
X1399130Y1214147D01*
X1400294Y1220000D01*
X1399130Y1225853D01*
X1395814Y1230814D01*
X1390853Y1234130D01*
X1385000Y1235294D01*
D02*
G37*
G36*
X1255000Y1225294D02*
X1249147Y1224130D01*
X1244186Y1220814D01*
X1240870Y1215853D01*
X1239706Y1210000D01*
X1240870Y1204147D01*
X1242798Y1201262D01*
X1241793Y1195229D01*
X1240581Y1194419D01*
X1236160Y1187804D01*
X1235603Y1185000D01*
X1274397D01*
X1273840Y1187804D01*
X1269419Y1194419D01*
X1265814Y1196828D01*
Y1199186D01*
X1269130Y1204147D01*
X1270294Y1210000D01*
X1269130Y1215853D01*
X1265814Y1220814D01*
X1260853Y1224130D01*
X1255000Y1225294D01*
D02*
G37*
G36*
X1220000Y1215294D02*
X1214147Y1214130D01*
X1209186Y1210814D01*
X1205870Y1205853D01*
X1204706Y1200000D01*
X1205870Y1194147D01*
X1209186Y1189186D01*
X1214147Y1185870D01*
X1220000Y1184706D01*
X1225853Y1185870D01*
X1230814Y1189186D01*
X1234130Y1194147D01*
X1235294Y1200000D01*
X1234130Y1205853D01*
X1230814Y1210814D01*
X1225853Y1214130D01*
X1220000Y1215294D01*
D02*
G37*
G36*
X1075000Y1215203D02*
Y1180000D01*
X1110203D01*
X1109469Y1185576D01*
X1105387Y1195431D01*
X1098893Y1203893D01*
X1090431Y1210387D01*
X1080576Y1214469D01*
X1075000Y1215203D01*
D02*
G37*
G36*
X1065000D02*
X1059424Y1214469D01*
X1049569Y1210387D01*
X1041107Y1203893D01*
X1034613Y1195431D01*
X1030531Y1185576D01*
X1029797Y1180000D01*
X1065000D01*
Y1215203D01*
D02*
G37*
G36*
X1274397Y1175000D02*
X1260000D01*
Y1160603D01*
X1262804Y1161160D01*
X1269419Y1165581D01*
X1273840Y1172196D01*
X1274397Y1175000D01*
D02*
G37*
G36*
X1250000D02*
X1235603D01*
X1236160Y1172196D01*
X1240581Y1165581D01*
X1247196Y1161160D01*
X1250000Y1160603D01*
Y1175000D01*
D02*
G37*
G36*
X1530250Y1166720D02*
Y1152323D01*
X1544647D01*
X1544090Y1155126D01*
X1539669Y1161742D01*
X1533054Y1166162D01*
X1530250Y1166720D01*
D02*
G37*
G36*
X1520250D02*
X1517446Y1166162D01*
X1510831Y1161742D01*
X1506410Y1155126D01*
X1505853Y1152323D01*
X1520250D01*
Y1166720D01*
D02*
G37*
G36*
X1704397Y1195000D02*
X1665603D01*
X1666160Y1192196D01*
X1670581Y1185581D01*
X1674186Y1183172D01*
Y1180814D01*
X1670870Y1175853D01*
X1669706Y1170000D01*
X1670870Y1164147D01*
X1672798Y1161262D01*
X1671793Y1155229D01*
X1670581Y1154419D01*
X1666160Y1147804D01*
X1665603Y1145000D01*
X1704397D01*
X1703840Y1147804D01*
X1699419Y1154419D01*
X1698207Y1155229D01*
X1697503Y1161713D01*
X1699130Y1164147D01*
X1700294Y1170000D01*
X1699130Y1175853D01*
X1697503Y1178287D01*
X1698207Y1184771D01*
X1699419Y1185581D01*
X1703840Y1192196D01*
X1704397Y1195000D01*
D02*
G37*
G36*
X1930000Y1210818D02*
X1920730Y1209598D01*
X1912091Y1206020D01*
X1904673Y1200327D01*
X1898980Y1192909D01*
X1895402Y1184270D01*
X1894182Y1175000D01*
X1895402Y1165730D01*
X1898980Y1157091D01*
X1904673Y1149673D01*
X1912091Y1143980D01*
X1920730Y1140402D01*
X1930000Y1139182D01*
X1939270Y1140402D01*
X1947909Y1143980D01*
X1955327Y1149673D01*
X1961020Y1157091D01*
X1964598Y1165730D01*
X1965818Y1175000D01*
X1964598Y1184270D01*
X1961020Y1192909D01*
X1955327Y1200327D01*
X1947909Y1206020D01*
X1939270Y1209598D01*
X1930000Y1210818D01*
D02*
G37*
G36*
X1110203Y1170000D02*
X1075000D01*
Y1134797D01*
X1080576Y1135531D01*
X1090431Y1139613D01*
X1098893Y1146107D01*
X1105387Y1154569D01*
X1109469Y1164424D01*
X1110203Y1170000D01*
D02*
G37*
G36*
X1065000D02*
X1029797D01*
X1030531Y1164424D01*
X1034613Y1154569D01*
X1041107Y1146107D01*
X1049569Y1139613D01*
X1059424Y1135531D01*
X1065000Y1134797D01*
Y1170000D01*
D02*
G37*
G36*
X1704397Y1135000D02*
X1690000D01*
Y1120603D01*
X1692804Y1121160D01*
X1699419Y1125581D01*
X1703840Y1132196D01*
X1704397Y1135000D01*
D02*
G37*
G36*
X1680000D02*
X1665603D01*
X1666160Y1132196D01*
X1670581Y1125581D01*
X1677196Y1121160D01*
X1680000Y1120603D01*
Y1135000D01*
D02*
G37*
G36*
X1785000Y1145294D02*
X1779147Y1144130D01*
X1774186Y1140814D01*
X1770870Y1135853D01*
X1769706Y1130000D01*
X1770870Y1124147D01*
X1774186Y1119186D01*
X1779147Y1115870D01*
X1785000Y1114706D01*
X1790853Y1115870D01*
X1795814Y1119186D01*
X1799130Y1124147D01*
X1800294Y1130000D01*
X1799130Y1135853D01*
X1795814Y1140814D01*
X1790853Y1144130D01*
X1785000Y1145294D01*
D02*
G37*
G36*
X1310000D02*
X1304147Y1144130D01*
X1299186Y1140814D01*
X1295870Y1135853D01*
X1294706Y1130000D01*
X1295870Y1124147D01*
X1299186Y1119186D01*
X1304147Y1115870D01*
X1310000Y1114706D01*
X1315853Y1115870D01*
X1320814Y1119186D01*
X1324130Y1124147D01*
X1325294Y1130000D01*
X1324130Y1135853D01*
X1320814Y1140814D01*
X1315853Y1144130D01*
X1310000Y1145294D01*
D02*
G37*
G36*
X1544647Y1142323D02*
X1505853D01*
X1506410Y1139519D01*
X1510831Y1132904D01*
X1517397Y1128516D01*
X1517444Y1128399D01*
X1517462Y1128302D01*
X1517899Y1123295D01*
X1514186Y1120814D01*
X1510870Y1115853D01*
X1509706Y1110000D01*
X1510870Y1104147D01*
X1514186Y1099186D01*
X1519147Y1095870D01*
X1525000Y1094706D01*
X1530853Y1095870D01*
X1535814Y1099186D01*
X1539130Y1104147D01*
X1540294Y1110000D01*
X1539130Y1115853D01*
X1535814Y1120814D01*
X1532216Y1123219D01*
X1532849Y1128443D01*
X1533054Y1128483D01*
X1539669Y1132904D01*
X1544090Y1139519D01*
X1544647Y1142323D01*
D02*
G37*
G36*
X1965512Y1110512D02*
X1894488D01*
Y1039488D01*
X1965512D01*
Y1110512D01*
D02*
G37*
G36*
X1105512D02*
X1034488D01*
Y1039488D01*
X1105512D01*
Y1110512D01*
D02*
G37*
G36*
X1620000Y1039397D02*
Y1025000D01*
X1634397D01*
X1633840Y1027804D01*
X1629419Y1034419D01*
X1622804Y1038840D01*
X1620000Y1039397D01*
D02*
G37*
G36*
X1610000D02*
X1607196Y1038840D01*
X1600581Y1034419D01*
X1596160Y1027804D01*
X1595603Y1025000D01*
X1610000D01*
Y1039397D01*
D02*
G37*
G36*
X1475000D02*
X1472196Y1038840D01*
X1465581Y1034419D01*
X1461160Y1027804D01*
X1460603Y1025000D01*
X1475000D01*
Y1039397D01*
D02*
G37*
G36*
X1140000D02*
X1137196Y1038840D01*
X1130581Y1034419D01*
X1126160Y1027804D01*
X1125603Y1025000D01*
X1140000D01*
Y1039397D01*
D02*
G37*
G36*
X1435000Y1034397D02*
Y1020000D01*
X1449397D01*
X1448840Y1022804D01*
X1444419Y1029419D01*
X1437804Y1033840D01*
X1435000Y1034397D01*
D02*
G37*
%LPD*%
D21*
X1070000Y1175000D02*
D03*
X1930000D02*
D03*
Y1275000D02*
D03*
Y1375000D02*
D03*
X1070000Y1275000D02*
D03*
Y1375000D02*
D03*
D22*
X1930000Y1075000D02*
D03*
X1070000D02*
D03*
D23*
X1391063Y1311063D02*
D03*
X1310000Y1310000D02*
D03*
Y1130000D02*
D03*
X1525250Y1147323D02*
D03*
X1525000Y1110000D02*
D03*
X1845000Y1390000D02*
D03*
X1645000Y1340000D02*
D03*
X1640000Y1290000D02*
D03*
X1550000Y1415000D02*
D03*
X1450000Y1390000D02*
D03*
X1405000Y1430000D02*
D03*
X1185000D02*
D03*
X1145000D02*
D03*
Y1020000D02*
D03*
X1185000D02*
D03*
X1480000D02*
D03*
X1520000D02*
D03*
X1615000D02*
D03*
X1670000D02*
D03*
X1750000D02*
D03*
X1785000Y1130000D02*
D03*
X1685000Y1200000D02*
D03*
Y1170000D02*
D03*
Y1140000D02*
D03*
X1285000Y1430000D02*
D03*
X1255000Y1180000D02*
D03*
Y1210000D02*
D03*
X1430000Y1015000D02*
D03*
X1400000D02*
D03*
X1220000Y1200000D02*
D03*
Y1240000D02*
D03*
X1385000Y1220000D02*
D03*
X1425000Y1250000D02*
D03*
X1385000Y1280000D02*
D03*
X1525000Y1330000D02*
D03*
%TF.MD5,26e2da99392ecdb51d90ae2e547075b9*%
M02*
