%TF.GenerationSoftware,Altium Limited,Altium Designer,19.1.7 (138)*%
G04 Layer_Color=32896*
%FSLAX26Y26*%
%MOIN*%
%TF.FileFunction,Legend,Bot*%
%TF.Part,Single*%
G01*
G75*
%TA.AperFunction,NonConductor*%
%ADD36C,0.006000*%
%ADD37C,0.009842*%
%ADD38C,0.007874*%
G36*
X1343572Y1389787D02*
X1343390Y1389501D01*
X1343195Y1389241D01*
X1343000Y1388981D01*
X1342818Y1388734D01*
X1342636Y1388513D01*
X1342467Y1388305D01*
X1342298Y1388110D01*
X1342142Y1387928D01*
X1341999Y1387772D01*
X1341869Y1387629D01*
X1341752Y1387512D01*
X1341661Y1387408D01*
X1341570Y1387330D01*
X1341518Y1387278D01*
X1341479Y1387239D01*
X1341466Y1387226D01*
X1341245Y1387044D01*
X1340998Y1386875D01*
X1340751Y1386719D01*
X1340504Y1386576D01*
X1340283Y1386459D01*
X1340179Y1386407D01*
X1340101Y1386355D01*
X1340023Y1386329D01*
X1339971Y1386303D01*
X1339945Y1386277D01*
X1339932D01*
X1340426Y1386199D01*
X1340894Y1386095D01*
X1341336Y1385978D01*
X1341739Y1385835D01*
X1342103Y1385692D01*
X1342441Y1385549D01*
X1342740Y1385393D01*
X1343013Y1385250D01*
X1343247Y1385094D01*
X1343455Y1384964D01*
X1343624Y1384834D01*
X1343767Y1384717D01*
X1343871Y1384626D01*
X1343949Y1384561D01*
X1344001Y1384509D01*
X1344014Y1384496D01*
X1344248Y1384223D01*
X1344456Y1383950D01*
X1344625Y1383651D01*
X1344781Y1383365D01*
X1344911Y1383079D01*
X1345015Y1382793D01*
X1345106Y1382507D01*
X1345171Y1382247D01*
X1345223Y1382000D01*
X1345275Y1381766D01*
X1345301Y1381571D01*
X1345314Y1381389D01*
X1345327Y1381246D01*
X1345340Y1381142D01*
Y1381077D01*
Y1381051D01*
X1345327Y1380752D01*
X1345301Y1380466D01*
X1345262Y1380193D01*
X1345210Y1379933D01*
X1345158Y1379673D01*
X1345080Y1379439D01*
X1345015Y1379218D01*
X1344937Y1379010D01*
X1344859Y1378828D01*
X1344794Y1378659D01*
X1344716Y1378516D01*
X1344664Y1378386D01*
X1344612Y1378295D01*
X1344573Y1378230D01*
X1344547Y1378178D01*
X1344534Y1378165D01*
X1344378Y1377931D01*
X1344209Y1377710D01*
X1344040Y1377502D01*
X1343871Y1377320D01*
X1343689Y1377164D01*
X1343507Y1377008D01*
X1343338Y1376878D01*
X1343169Y1376761D01*
X1343013Y1376657D01*
X1342870Y1376566D01*
X1342740Y1376488D01*
X1342623Y1376436D01*
X1342532Y1376384D01*
X1342467Y1376358D01*
X1342415Y1376332D01*
X1342402D01*
X1342142Y1376241D01*
X1341856Y1376163D01*
X1341544Y1376085D01*
X1341232Y1376033D01*
X1340582Y1375942D01*
X1340257Y1375903D01*
X1339945Y1375877D01*
X1339659Y1375851D01*
X1339386Y1375838D01*
X1339139Y1375825D01*
X1338918D01*
X1338749Y1375812D01*
X1330000D01*
Y1395000D01*
X1332535D01*
Y1386485D01*
X1335824D01*
X1336110Y1386498D01*
X1336357Y1386511D01*
X1336552Y1386524D01*
X1336708Y1386550D01*
X1336812Y1386563D01*
X1336864Y1386576D01*
X1336890D01*
X1337111Y1386641D01*
X1337319Y1386719D01*
X1337514Y1386797D01*
X1337696Y1386888D01*
X1337839Y1386966D01*
X1337956Y1387031D01*
X1338021Y1387083D01*
X1338047Y1387096D01*
X1338151Y1387174D01*
X1338268Y1387252D01*
X1338489Y1387447D01*
X1338710Y1387668D01*
X1338905Y1387876D01*
X1339074Y1388071D01*
X1339217Y1388227D01*
X1339269Y1388292D01*
X1339308Y1388344D01*
X1339321Y1388370D01*
X1339334Y1388383D01*
X1339477Y1388565D01*
X1339620Y1388760D01*
X1339932Y1389176D01*
X1340231Y1389618D01*
X1340530Y1390034D01*
X1340660Y1390229D01*
X1340777Y1390424D01*
X1340894Y1390580D01*
X1340985Y1390723D01*
X1341063Y1390840D01*
X1341115Y1390931D01*
X1341154Y1390983D01*
X1341167Y1391009D01*
X1343715Y1395000D01*
X1346900D01*
X1343572Y1389787D01*
D02*
G37*
G36*
X1360745Y1392738D02*
X1351333D01*
X1351489Y1392504D01*
X1351658Y1392270D01*
X1351814Y1392049D01*
X1351970Y1391867D01*
X1352113Y1391698D01*
X1352217Y1391568D01*
X1352269Y1391529D01*
X1352295Y1391490D01*
X1352321Y1391477D01*
Y1391464D01*
X1352451Y1391334D01*
X1352607Y1391178D01*
X1352789Y1391009D01*
X1352997Y1390814D01*
X1353218Y1390619D01*
X1353452Y1390424D01*
X1353907Y1390021D01*
X1354128Y1389826D01*
X1354349Y1389644D01*
X1354544Y1389475D01*
X1354713Y1389332D01*
X1354856Y1389215D01*
X1354960Y1389124D01*
X1355025Y1389072D01*
X1355051Y1389046D01*
X1355506Y1388656D01*
X1355935Y1388279D01*
X1356325Y1387941D01*
X1356689Y1387616D01*
X1357014Y1387317D01*
X1357313Y1387044D01*
X1357573Y1386784D01*
X1357820Y1386563D01*
X1358028Y1386355D01*
X1358197Y1386173D01*
X1358353Y1386030D01*
X1358470Y1385900D01*
X1358561Y1385809D01*
X1358626Y1385731D01*
X1358665Y1385692D01*
X1358678Y1385679D01*
X1358873Y1385445D01*
X1359055Y1385224D01*
X1359224Y1385003D01*
X1359380Y1384795D01*
X1359523Y1384587D01*
X1359653Y1384392D01*
X1359770Y1384210D01*
X1359874Y1384041D01*
X1359952Y1383885D01*
X1360030Y1383755D01*
X1360095Y1383638D01*
X1360147Y1383534D01*
X1360186Y1383443D01*
X1360212Y1383391D01*
X1360238Y1383352D01*
Y1383339D01*
X1360394Y1382923D01*
X1360511Y1382507D01*
X1360602Y1382130D01*
X1360628Y1381948D01*
X1360654Y1381779D01*
X1360680Y1381623D01*
X1360693Y1381493D01*
X1360706Y1381363D01*
Y1381259D01*
X1360719Y1381181D01*
Y1381116D01*
Y1381077D01*
Y1381064D01*
X1360706Y1380648D01*
X1360654Y1380245D01*
X1360576Y1379868D01*
X1360472Y1379517D01*
X1360342Y1379179D01*
X1360212Y1378867D01*
X1360069Y1378581D01*
X1359913Y1378321D01*
X1359757Y1378087D01*
X1359614Y1377866D01*
X1359484Y1377697D01*
X1359354Y1377541D01*
X1359250Y1377424D01*
X1359172Y1377333D01*
X1359120Y1377281D01*
X1359107Y1377268D01*
X1358795Y1376995D01*
X1358457Y1376761D01*
X1358106Y1376553D01*
X1357742Y1376384D01*
X1357378Y1376228D01*
X1357014Y1376111D01*
X1356650Y1376007D01*
X1356312Y1375929D01*
X1355987Y1375864D01*
X1355688Y1375812D01*
X1355415Y1375786D01*
X1355181Y1375760D01*
X1354999Y1375747D01*
X1354908Y1375734D01*
X1354726D01*
X1354232Y1375747D01*
X1353751Y1375799D01*
X1353309Y1375864D01*
X1352893Y1375955D01*
X1352503Y1376059D01*
X1352152Y1376189D01*
X1351827Y1376319D01*
X1351528Y1376449D01*
X1351255Y1376579D01*
X1351034Y1376709D01*
X1350826Y1376826D01*
X1350670Y1376943D01*
X1350540Y1377034D01*
X1350449Y1377099D01*
X1350384Y1377151D01*
X1350371Y1377164D01*
X1350085Y1377437D01*
X1349825Y1377749D01*
X1349591Y1378074D01*
X1349396Y1378399D01*
X1349214Y1378750D01*
X1349071Y1379088D01*
X1348941Y1379426D01*
X1348824Y1379751D01*
X1348733Y1380063D01*
X1348668Y1380349D01*
X1348603Y1380609D01*
X1348564Y1380843D01*
X1348538Y1381025D01*
X1348512Y1381168D01*
Y1381220D01*
X1348499Y1381259D01*
Y1381272D01*
Y1381285D01*
X1350917Y1381532D01*
X1350930Y1381207D01*
X1350969Y1380895D01*
X1351021Y1380609D01*
X1351086Y1380336D01*
X1351164Y1380076D01*
X1351255Y1379855D01*
X1351346Y1379634D01*
X1351437Y1379452D01*
X1351541Y1379283D01*
X1351632Y1379127D01*
X1351723Y1379010D01*
X1351801Y1378893D01*
X1351866Y1378815D01*
X1351918Y1378763D01*
X1351944Y1378724D01*
X1351957Y1378711D01*
X1352152Y1378529D01*
X1352373Y1378373D01*
X1352594Y1378230D01*
X1352815Y1378113D01*
X1353049Y1378022D01*
X1353270Y1377931D01*
X1353491Y1377866D01*
X1353699Y1377814D01*
X1353907Y1377775D01*
X1354089Y1377736D01*
X1354245Y1377710D01*
X1354388Y1377697D01*
X1354518Y1377684D01*
X1354674D01*
X1354973Y1377697D01*
X1355246Y1377723D01*
X1355519Y1377775D01*
X1355766Y1377840D01*
X1356000Y1377905D01*
X1356208Y1377983D01*
X1356403Y1378074D01*
X1356585Y1378165D01*
X1356741Y1378256D01*
X1356884Y1378347D01*
X1357001Y1378425D01*
X1357105Y1378490D01*
X1357183Y1378555D01*
X1357235Y1378607D01*
X1357274Y1378633D01*
X1357287Y1378646D01*
X1357469Y1378828D01*
X1357612Y1379023D01*
X1357755Y1379218D01*
X1357872Y1379426D01*
X1357963Y1379621D01*
X1358041Y1379816D01*
X1358106Y1380011D01*
X1358158Y1380193D01*
X1358210Y1380362D01*
X1358236Y1380518D01*
X1358262Y1380661D01*
X1358275Y1380778D01*
X1358288Y1380882D01*
Y1380947D01*
Y1380999D01*
Y1381012D01*
X1358275Y1381259D01*
X1358236Y1381519D01*
X1358184Y1381766D01*
X1358119Y1382013D01*
X1357937Y1382494D01*
X1357833Y1382715D01*
X1357742Y1382936D01*
X1357638Y1383131D01*
X1357534Y1383300D01*
X1357443Y1383456D01*
X1357352Y1383586D01*
X1357287Y1383703D01*
X1357235Y1383781D01*
X1357196Y1383833D01*
X1357183Y1383846D01*
X1356962Y1384132D01*
X1356689Y1384444D01*
X1356390Y1384782D01*
X1356065Y1385107D01*
X1355714Y1385458D01*
X1355363Y1385796D01*
X1355012Y1386121D01*
X1354661Y1386446D01*
X1354323Y1386745D01*
X1354011Y1387018D01*
X1353712Y1387278D01*
X1353465Y1387486D01*
X1353257Y1387668D01*
X1353166Y1387746D01*
X1353101Y1387798D01*
X1353036Y1387850D01*
X1352997Y1387889D01*
X1352971Y1387902D01*
X1352958Y1387915D01*
X1352594Y1388214D01*
X1352243Y1388513D01*
X1351931Y1388799D01*
X1351632Y1389072D01*
X1351346Y1389319D01*
X1351099Y1389566D01*
X1350865Y1389787D01*
X1350657Y1389995D01*
X1350475Y1390177D01*
X1350319Y1390346D01*
X1350189Y1390489D01*
X1350072Y1390606D01*
X1349994Y1390697D01*
X1349929Y1390775D01*
X1349890Y1390814D01*
X1349877Y1390827D01*
X1349682Y1391061D01*
X1349500Y1391295D01*
X1349344Y1391529D01*
X1349188Y1391750D01*
X1349045Y1391971D01*
X1348915Y1392179D01*
X1348811Y1392387D01*
X1348707Y1392569D01*
X1348616Y1392738D01*
X1348538Y1392894D01*
X1348473Y1393037D01*
X1348421Y1393154D01*
X1348382Y1393245D01*
X1348356Y1393310D01*
X1348330Y1393362D01*
Y1393375D01*
X1348239Y1393674D01*
X1348161Y1393960D01*
X1348109Y1394233D01*
X1348083Y1394480D01*
X1348070Y1394688D01*
X1348057Y1394779D01*
Y1394857D01*
Y1394922D01*
Y1394961D01*
Y1394987D01*
Y1395000D01*
X1360745D01*
Y1392738D01*
D02*
G37*
G36*
X1585770Y1245000D02*
X1586277Y1244974D01*
X1586758Y1244922D01*
X1587226Y1244857D01*
X1587681Y1244779D01*
X1588097Y1244688D01*
X1588500Y1244597D01*
X1588864Y1244506D01*
X1589202Y1244415D01*
X1589514Y1244324D01*
X1589774Y1244233D01*
X1589995Y1244155D01*
X1590177Y1244090D01*
X1590307Y1244038D01*
X1590346Y1244025D01*
X1590385Y1244012D01*
X1590398Y1243999D01*
X1590411D01*
X1590840Y1243804D01*
X1591256Y1243583D01*
X1591633Y1243349D01*
X1591984Y1243115D01*
X1592322Y1242868D01*
X1592621Y1242621D01*
X1592894Y1242374D01*
X1593128Y1242140D01*
X1593349Y1241919D01*
X1593544Y1241711D01*
X1593700Y1241529D01*
X1593830Y1241360D01*
X1593934Y1241230D01*
X1593999Y1241139D01*
X1594051Y1241074D01*
X1594064Y1241048D01*
X1594285Y1240671D01*
X1594480Y1240268D01*
X1594649Y1239852D01*
X1594792Y1239436D01*
X1594909Y1239007D01*
X1595013Y1238591D01*
X1595104Y1238175D01*
X1595169Y1237785D01*
X1595221Y1237421D01*
X1595260Y1237070D01*
X1595286Y1236771D01*
X1595299Y1236511D01*
X1595312Y1236394D01*
Y1236290D01*
X1595325Y1236199D01*
Y1235991D01*
X1595312Y1235445D01*
X1595260Y1234912D01*
X1595169Y1234418D01*
X1595065Y1233937D01*
X1594948Y1233495D01*
X1594805Y1233066D01*
X1594662Y1232689D01*
X1594506Y1232338D01*
X1594350Y1232013D01*
X1594207Y1231740D01*
X1594064Y1231493D01*
X1593947Y1231298D01*
X1593843Y1231129D01*
X1593752Y1231012D01*
X1593700Y1230947D01*
X1593687Y1230921D01*
X1593362Y1230544D01*
X1593011Y1230206D01*
X1592634Y1229881D01*
X1592244Y1229595D01*
X1591854Y1229335D01*
X1591451Y1229101D01*
X1591061Y1228893D01*
X1590684Y1228698D01*
X1590333Y1228542D01*
X1589995Y1228412D01*
X1589696Y1228295D01*
X1589436Y1228204D01*
X1589319Y1228165D01*
X1589215Y1228139D01*
X1589124Y1228113D01*
X1589059Y1228087D01*
X1588994Y1228074D01*
X1588955Y1228061D01*
X1588929Y1228048D01*
X1588916D01*
X1588279Y1230583D01*
X1588721Y1230687D01*
X1589124Y1230817D01*
X1589514Y1230960D01*
X1589865Y1231116D01*
X1590203Y1231285D01*
X1590502Y1231454D01*
X1590775Y1231623D01*
X1591009Y1231792D01*
X1591230Y1231948D01*
X1591412Y1232104D01*
X1591568Y1232234D01*
X1591698Y1232364D01*
X1591802Y1232455D01*
X1591880Y1232533D01*
X1591919Y1232585D01*
X1591932Y1232598D01*
X1592153Y1232884D01*
X1592335Y1233170D01*
X1592504Y1233469D01*
X1592647Y1233781D01*
X1592764Y1234080D01*
X1592868Y1234379D01*
X1592946Y1234678D01*
X1593011Y1234951D01*
X1593063Y1235211D01*
X1593102Y1235445D01*
X1593128Y1235653D01*
X1593141Y1235848D01*
X1593154Y1235991D01*
X1593167Y1236108D01*
Y1236199D01*
X1593154Y1236524D01*
X1593128Y1236849D01*
X1593089Y1237148D01*
X1593024Y1237447D01*
X1592959Y1237733D01*
X1592881Y1238006D01*
X1592803Y1238253D01*
X1592712Y1238487D01*
X1592634Y1238695D01*
X1592556Y1238890D01*
X1592478Y1239059D01*
X1592413Y1239202D01*
X1592348Y1239306D01*
X1592309Y1239397D01*
X1592283Y1239449D01*
X1592270Y1239462D01*
X1592088Y1239735D01*
X1591893Y1239995D01*
X1591685Y1240229D01*
X1591464Y1240450D01*
X1591230Y1240645D01*
X1591009Y1240827D01*
X1590775Y1240996D01*
X1590567Y1241139D01*
X1590359Y1241269D01*
X1590164Y1241373D01*
X1589995Y1241477D01*
X1589839Y1241555D01*
X1589709Y1241607D01*
X1589618Y1241646D01*
X1589566Y1241672D01*
X1589540Y1241685D01*
X1589189Y1241802D01*
X1588825Y1241919D01*
X1588461Y1242010D01*
X1588097Y1242088D01*
X1587382Y1242218D01*
X1587031Y1242257D01*
X1586706Y1242296D01*
X1586407Y1242322D01*
X1586121Y1242348D01*
X1585874Y1242361D01*
X1585666Y1242374D01*
X1585484Y1242387D01*
X1585354D01*
X1585315D01*
X1585276D01*
X1585263D01*
X1585250D01*
X1584899Y1242374D01*
X1584548Y1242361D01*
X1583872Y1242296D01*
X1583560Y1242244D01*
X1583248Y1242192D01*
X1582962Y1242140D01*
X1582702Y1242088D01*
X1582455Y1242036D01*
X1582234Y1241984D01*
X1582039Y1241932D01*
X1581883Y1241880D01*
X1581753Y1241841D01*
X1581649Y1241815D01*
X1581597Y1241789D01*
X1581571D01*
X1581246Y1241672D01*
X1580934Y1241529D01*
X1580648Y1241373D01*
X1580375Y1241217D01*
X1580115Y1241035D01*
X1579881Y1240866D01*
X1579673Y1240697D01*
X1579478Y1240528D01*
X1579309Y1240359D01*
X1579153Y1240203D01*
X1579023Y1240073D01*
X1578919Y1239943D01*
X1578828Y1239852D01*
X1578776Y1239774D01*
X1578737Y1239722D01*
X1578724Y1239709D01*
X1578542Y1239423D01*
X1578373Y1239124D01*
X1578230Y1238812D01*
X1578113Y1238500D01*
X1578009Y1238188D01*
X1577918Y1237876D01*
X1577853Y1237577D01*
X1577788Y1237291D01*
X1577749Y1237031D01*
X1577710Y1236784D01*
X1577684Y1236563D01*
X1577671Y1236368D01*
Y1236212D01*
X1577658Y1236095D01*
Y1236004D01*
X1577671Y1235653D01*
X1577697Y1235315D01*
X1577749Y1234990D01*
X1577814Y1234691D01*
X1577879Y1234418D01*
X1577957Y1234145D01*
X1578048Y1233911D01*
X1578139Y1233690D01*
X1578230Y1233495D01*
X1578321Y1233313D01*
X1578399Y1233170D01*
X1578464Y1233040D01*
X1578529Y1232949D01*
X1578581Y1232871D01*
X1578607Y1232832D01*
X1578620Y1232819D01*
X1578815Y1232585D01*
X1579023Y1232364D01*
X1579257Y1232169D01*
X1579491Y1231974D01*
X1579751Y1231805D01*
X1579998Y1231636D01*
X1580258Y1231493D01*
X1580505Y1231363D01*
X1580739Y1231246D01*
X1580960Y1231155D01*
X1581155Y1231064D01*
X1581337Y1230999D01*
X1581480Y1230934D01*
X1581584Y1230895D01*
X1581649Y1230882D01*
X1581675Y1230869D01*
X1581077Y1228373D01*
X1580596Y1228529D01*
X1580141Y1228711D01*
X1579712Y1228919D01*
X1579309Y1229127D01*
X1578945Y1229348D01*
X1578607Y1229582D01*
X1578295Y1229816D01*
X1578022Y1230037D01*
X1577775Y1230258D01*
X1577554Y1230453D01*
X1577372Y1230635D01*
X1577229Y1230791D01*
X1577112Y1230934D01*
X1577021Y1231025D01*
X1576969Y1231090D01*
X1576956Y1231116D01*
X1576696Y1231493D01*
X1576475Y1231883D01*
X1576280Y1232286D01*
X1576111Y1232702D01*
X1575968Y1233105D01*
X1575851Y1233508D01*
X1575747Y1233898D01*
X1575669Y1234275D01*
X1575604Y1234613D01*
X1575565Y1234938D01*
X1575526Y1235224D01*
X1575513Y1235471D01*
X1575500Y1235679D01*
X1575487Y1235757D01*
Y1235952D01*
X1575500Y1236420D01*
X1575539Y1236875D01*
X1575591Y1237317D01*
X1575669Y1237746D01*
X1575760Y1238149D01*
X1575851Y1238539D01*
X1575968Y1238903D01*
X1576072Y1239228D01*
X1576176Y1239527D01*
X1576280Y1239800D01*
X1576384Y1240034D01*
X1576475Y1240229D01*
X1576553Y1240398D01*
X1576605Y1240515D01*
X1576644Y1240580D01*
X1576657Y1240606D01*
X1576891Y1240996D01*
X1577138Y1241360D01*
X1577398Y1241698D01*
X1577671Y1242010D01*
X1577957Y1242296D01*
X1578243Y1242569D01*
X1578516Y1242816D01*
X1578789Y1243037D01*
X1579049Y1243232D01*
X1579283Y1243401D01*
X1579491Y1243544D01*
X1579686Y1243661D01*
X1579842Y1243752D01*
X1579946Y1243817D01*
X1580024Y1243856D01*
X1580037Y1243869D01*
X1580050D01*
X1580479Y1244064D01*
X1580908Y1244246D01*
X1581350Y1244402D01*
X1581805Y1244532D01*
X1582247Y1244636D01*
X1582676Y1244727D01*
X1583092Y1244805D01*
X1583495Y1244870D01*
X1583859Y1244922D01*
X1584197Y1244948D01*
X1584496Y1244974D01*
X1584756Y1245000D01*
X1584873D01*
X1584977D01*
X1585055Y1245013D01*
X1585133D01*
X1585185D01*
X1585224D01*
X1585250D01*
X1585263D01*
X1585770Y1245000D01*
D02*
G37*
G36*
X1582663Y1223641D02*
X1582468Y1223212D01*
X1582273Y1222796D01*
X1582078Y1222419D01*
X1581987Y1222237D01*
X1581896Y1222081D01*
X1581818Y1221938D01*
X1581753Y1221821D01*
X1581701Y1221717D01*
X1581662Y1221652D01*
X1581636Y1221600D01*
X1581623Y1221587D01*
X1581467Y1221340D01*
X1581324Y1221093D01*
X1581168Y1220872D01*
X1581025Y1220664D01*
X1580882Y1220456D01*
X1580752Y1220274D01*
X1580622Y1220105D01*
X1580505Y1219962D01*
X1580388Y1219819D01*
X1580297Y1219702D01*
X1580206Y1219598D01*
X1580141Y1219520D01*
X1580076Y1219455D01*
X1580037Y1219403D01*
X1580011Y1219377D01*
X1579998Y1219364D01*
X1595000D01*
Y1216998D01*
X1575734D01*
Y1218519D01*
X1575968Y1218649D01*
X1576202Y1218779D01*
X1576436Y1218935D01*
X1576657Y1219104D01*
X1577099Y1219455D01*
X1577294Y1219624D01*
X1577489Y1219793D01*
X1577658Y1219962D01*
X1577827Y1220105D01*
X1577957Y1220248D01*
X1578087Y1220365D01*
X1578178Y1220469D01*
X1578243Y1220547D01*
X1578295Y1220599D01*
X1578308Y1220612D01*
X1578776Y1221184D01*
X1579218Y1221782D01*
X1579413Y1222068D01*
X1579595Y1222354D01*
X1579764Y1222640D01*
X1579920Y1222900D01*
X1580063Y1223147D01*
X1580193Y1223368D01*
X1580297Y1223563D01*
X1580388Y1223732D01*
X1580466Y1223875D01*
X1580518Y1223979D01*
X1580544Y1224044D01*
X1580557Y1224070D01*
X1582832D01*
X1582663Y1223641D01*
D02*
G37*
G36*
X1595000Y1198577D02*
X1592738D01*
Y1207989D01*
X1592504Y1207833D01*
X1592270Y1207664D01*
X1592049Y1207508D01*
X1591867Y1207352D01*
X1591698Y1207209D01*
X1591568Y1207105D01*
X1591529Y1207053D01*
X1591490Y1207027D01*
X1591477Y1207001D01*
X1591464D01*
X1591334Y1206871D01*
X1591178Y1206715D01*
X1591009Y1206533D01*
X1590814Y1206325D01*
X1590619Y1206104D01*
X1590424Y1205870D01*
X1590021Y1205415D01*
X1589826Y1205194D01*
X1589644Y1204973D01*
X1589475Y1204778D01*
X1589332Y1204609D01*
X1589215Y1204466D01*
X1589124Y1204362D01*
X1589072Y1204297D01*
X1589046Y1204271D01*
X1588656Y1203816D01*
X1588279Y1203387D01*
X1587941Y1202997D01*
X1587616Y1202633D01*
X1587317Y1202308D01*
X1587044Y1202009D01*
X1586784Y1201749D01*
X1586563Y1201502D01*
X1586355Y1201294D01*
X1586173Y1201125D01*
X1586030Y1200969D01*
X1585900Y1200852D01*
X1585809Y1200761D01*
X1585731Y1200696D01*
X1585692Y1200657D01*
X1585679Y1200644D01*
X1585445Y1200449D01*
X1585224Y1200267D01*
X1585003Y1200098D01*
X1584795Y1199942D01*
X1584587Y1199799D01*
X1584392Y1199669D01*
X1584210Y1199552D01*
X1584041Y1199448D01*
X1583885Y1199370D01*
X1583755Y1199292D01*
X1583638Y1199227D01*
X1583534Y1199175D01*
X1583443Y1199136D01*
X1583391Y1199110D01*
X1583352Y1199084D01*
X1583339D01*
X1582923Y1198928D01*
X1582507Y1198811D01*
X1582130Y1198720D01*
X1581948Y1198694D01*
X1581779Y1198668D01*
X1581623Y1198642D01*
X1581493Y1198629D01*
X1581363Y1198616D01*
X1581259D01*
X1581181Y1198603D01*
X1581116D01*
X1581077D01*
X1581064D01*
X1580648Y1198616D01*
X1580245Y1198668D01*
X1579868Y1198746D01*
X1579517Y1198850D01*
X1579179Y1198980D01*
X1578867Y1199110D01*
X1578581Y1199253D01*
X1578321Y1199409D01*
X1578087Y1199565D01*
X1577866Y1199708D01*
X1577697Y1199838D01*
X1577541Y1199968D01*
X1577424Y1200072D01*
X1577333Y1200150D01*
X1577281Y1200202D01*
X1577268Y1200215D01*
X1576995Y1200527D01*
X1576761Y1200865D01*
X1576553Y1201216D01*
X1576384Y1201580D01*
X1576228Y1201944D01*
X1576111Y1202308D01*
X1576007Y1202672D01*
X1575929Y1203010D01*
X1575864Y1203335D01*
X1575812Y1203634D01*
X1575786Y1203907D01*
X1575760Y1204141D01*
X1575747Y1204323D01*
X1575734Y1204414D01*
Y1204596D01*
X1575747Y1205090D01*
X1575799Y1205571D01*
X1575864Y1206013D01*
X1575955Y1206429D01*
X1576059Y1206819D01*
X1576189Y1207170D01*
X1576319Y1207495D01*
X1576449Y1207794D01*
X1576579Y1208067D01*
X1576709Y1208288D01*
X1576826Y1208496D01*
X1576943Y1208652D01*
X1577034Y1208782D01*
X1577099Y1208873D01*
X1577151Y1208938D01*
X1577164Y1208951D01*
X1577437Y1209237D01*
X1577749Y1209497D01*
X1578074Y1209731D01*
X1578399Y1209926D01*
X1578750Y1210108D01*
X1579088Y1210251D01*
X1579426Y1210381D01*
X1579751Y1210498D01*
X1580063Y1210589D01*
X1580349Y1210654D01*
X1580609Y1210719D01*
X1580843Y1210758D01*
X1581025Y1210784D01*
X1581168Y1210810D01*
X1581220D01*
X1581259Y1210823D01*
X1581272D01*
X1581285D01*
X1581532Y1208405D01*
X1581207Y1208392D01*
X1580895Y1208353D01*
X1580609Y1208301D01*
X1580336Y1208236D01*
X1580076Y1208158D01*
X1579855Y1208067D01*
X1579634Y1207976D01*
X1579452Y1207885D01*
X1579283Y1207781D01*
X1579127Y1207690D01*
X1579010Y1207599D01*
X1578893Y1207521D01*
X1578815Y1207456D01*
X1578763Y1207404D01*
X1578724Y1207378D01*
X1578711Y1207365D01*
X1578529Y1207170D01*
X1578373Y1206949D01*
X1578230Y1206728D01*
X1578113Y1206507D01*
X1578022Y1206273D01*
X1577931Y1206052D01*
X1577866Y1205831D01*
X1577814Y1205623D01*
X1577775Y1205415D01*
X1577736Y1205233D01*
X1577710Y1205077D01*
X1577697Y1204934D01*
X1577684Y1204804D01*
Y1204648D01*
X1577697Y1204349D01*
X1577723Y1204076D01*
X1577775Y1203803D01*
X1577840Y1203556D01*
X1577905Y1203322D01*
X1577983Y1203114D01*
X1578074Y1202919D01*
X1578165Y1202737D01*
X1578256Y1202581D01*
X1578347Y1202438D01*
X1578425Y1202321D01*
X1578490Y1202217D01*
X1578555Y1202139D01*
X1578607Y1202087D01*
X1578633Y1202048D01*
X1578646Y1202035D01*
X1578828Y1201853D01*
X1579023Y1201710D01*
X1579218Y1201567D01*
X1579426Y1201450D01*
X1579621Y1201359D01*
X1579816Y1201281D01*
X1580011Y1201216D01*
X1580193Y1201164D01*
X1580362Y1201112D01*
X1580518Y1201086D01*
X1580661Y1201060D01*
X1580778Y1201047D01*
X1580882Y1201034D01*
X1580947D01*
X1580999D01*
X1581012D01*
X1581259Y1201047D01*
X1581519Y1201086D01*
X1581766Y1201138D01*
X1582013Y1201203D01*
X1582494Y1201385D01*
X1582715Y1201489D01*
X1582936Y1201580D01*
X1583131Y1201684D01*
X1583300Y1201788D01*
X1583456Y1201879D01*
X1583586Y1201970D01*
X1583703Y1202035D01*
X1583781Y1202087D01*
X1583833Y1202126D01*
X1583846Y1202139D01*
X1584132Y1202360D01*
X1584444Y1202633D01*
X1584782Y1202932D01*
X1585107Y1203257D01*
X1585458Y1203608D01*
X1585796Y1203959D01*
X1586121Y1204310D01*
X1586446Y1204661D01*
X1586745Y1204999D01*
X1587018Y1205311D01*
X1587278Y1205610D01*
X1587486Y1205857D01*
X1587668Y1206065D01*
X1587746Y1206156D01*
X1587798Y1206221D01*
X1587850Y1206286D01*
X1587889Y1206325D01*
X1587902Y1206351D01*
X1587915Y1206364D01*
X1588214Y1206728D01*
X1588513Y1207079D01*
X1588799Y1207391D01*
X1589072Y1207690D01*
X1589319Y1207976D01*
X1589566Y1208223D01*
X1589787Y1208457D01*
X1589995Y1208665D01*
X1590177Y1208847D01*
X1590346Y1209003D01*
X1590489Y1209133D01*
X1590606Y1209250D01*
X1590697Y1209328D01*
X1590775Y1209393D01*
X1590814Y1209432D01*
X1590827Y1209445D01*
X1591061Y1209640D01*
X1591295Y1209822D01*
X1591529Y1209978D01*
X1591750Y1210134D01*
X1591971Y1210277D01*
X1592179Y1210407D01*
X1592387Y1210511D01*
X1592569Y1210615D01*
X1592738Y1210706D01*
X1592894Y1210784D01*
X1593037Y1210849D01*
X1593154Y1210901D01*
X1593245Y1210940D01*
X1593310Y1210966D01*
X1593362Y1210992D01*
X1593375D01*
X1593674Y1211083D01*
X1593960Y1211161D01*
X1594233Y1211213D01*
X1594480Y1211239D01*
X1594688Y1211252D01*
X1594779Y1211265D01*
X1594857D01*
X1594922D01*
X1594961D01*
X1594987D01*
X1595000D01*
Y1198577D01*
D02*
G37*
G36*
X1610247Y1131762D02*
X1622688D01*
Y1129838D01*
X1610247Y1121089D01*
X1608089D01*
Y1129409D01*
X1603500D01*
Y1131762D01*
X1608089D01*
Y1134362D01*
X1610247D01*
Y1131762D01*
D02*
G37*
G36*
X1622688Y1116045D02*
X1611612D01*
X1611274D01*
X1610962Y1116032D01*
X1610663Y1116019D01*
X1610364Y1115993D01*
X1609818Y1115941D01*
X1609324Y1115863D01*
X1608882Y1115772D01*
X1608479Y1115668D01*
X1608128Y1115564D01*
X1607816Y1115447D01*
X1607543Y1115330D01*
X1607322Y1115226D01*
X1607127Y1115122D01*
X1606984Y1115031D01*
X1606867Y1114966D01*
X1606789Y1114901D01*
X1606737Y1114862D01*
X1606724Y1114849D01*
X1606503Y1114615D01*
X1606308Y1114342D01*
X1606139Y1114043D01*
X1605996Y1113731D01*
X1605879Y1113406D01*
X1605775Y1113068D01*
X1605684Y1112730D01*
X1605619Y1112405D01*
X1605567Y1112106D01*
X1605528Y1111807D01*
X1605502Y1111547D01*
X1605489Y1111313D01*
X1605476Y1111131D01*
X1605463Y1111053D01*
Y1110858D01*
X1605476Y1110559D01*
X1605489Y1110273D01*
X1605528Y1110000D01*
X1605567Y1109740D01*
X1605606Y1109493D01*
X1605671Y1109272D01*
X1605723Y1109051D01*
X1605788Y1108869D01*
X1605840Y1108687D01*
X1605905Y1108531D01*
X1605957Y1108401D01*
X1605996Y1108297D01*
X1606048Y1108206D01*
X1606074Y1108141D01*
X1606087Y1108102D01*
X1606100Y1108089D01*
X1606230Y1107881D01*
X1606360Y1107699D01*
X1606503Y1107517D01*
X1606659Y1107361D01*
X1606802Y1107218D01*
X1606958Y1107088D01*
X1607101Y1106971D01*
X1607244Y1106867D01*
X1607387Y1106776D01*
X1607517Y1106698D01*
X1607621Y1106633D01*
X1607725Y1106581D01*
X1607803Y1106542D01*
X1607868Y1106516D01*
X1607907Y1106490D01*
X1607920D01*
X1608154Y1106412D01*
X1608414Y1106334D01*
X1608700Y1106282D01*
X1608999Y1106230D01*
X1609610Y1106152D01*
X1609909Y1106113D01*
X1610208Y1106087D01*
X1610494Y1106074D01*
X1610754Y1106061D01*
X1610988Y1106048D01*
X1611196D01*
X1611378Y1106035D01*
X1611508D01*
X1611547D01*
X1611586D01*
X1611599D01*
X1611612D01*
X1622688D01*
Y1103500D01*
X1611599D01*
X1611040Y1103513D01*
X1610520Y1103526D01*
X1610026Y1103565D01*
X1609558Y1103617D01*
X1609129Y1103669D01*
X1608726Y1103734D01*
X1608375Y1103799D01*
X1608037Y1103864D01*
X1607751Y1103929D01*
X1607491Y1103994D01*
X1607283Y1104059D01*
X1607101Y1104111D01*
X1606958Y1104163D01*
X1606854Y1104202D01*
X1606802Y1104215D01*
X1606776Y1104228D01*
X1606451Y1104371D01*
X1606152Y1104540D01*
X1605879Y1104722D01*
X1605619Y1104917D01*
X1605372Y1105112D01*
X1605164Y1105320D01*
X1604956Y1105528D01*
X1604774Y1105723D01*
X1604618Y1105918D01*
X1604488Y1106087D01*
X1604371Y1106256D01*
X1604267Y1106399D01*
X1604189Y1106503D01*
X1604137Y1106594D01*
X1604111Y1106659D01*
X1604098Y1106672D01*
X1603942Y1107010D01*
X1603799Y1107361D01*
X1603669Y1107712D01*
X1603565Y1108089D01*
X1603474Y1108453D01*
X1603396Y1108830D01*
X1603344Y1109181D01*
X1603292Y1109532D01*
X1603253Y1109844D01*
X1603227Y1110143D01*
X1603201Y1110416D01*
X1603188Y1110637D01*
X1603175Y1110832D01*
Y1111092D01*
X1603188Y1111599D01*
X1603227Y1112080D01*
X1603279Y1112535D01*
X1603344Y1112964D01*
X1603422Y1113354D01*
X1603513Y1113718D01*
X1603604Y1114056D01*
X1603708Y1114368D01*
X1603799Y1114641D01*
X1603890Y1114875D01*
X1603981Y1115083D01*
X1604059Y1115252D01*
X1604137Y1115395D01*
X1604189Y1115486D01*
X1604215Y1115551D01*
X1604228Y1115564D01*
X1604436Y1115876D01*
X1604657Y1116162D01*
X1604878Y1116422D01*
X1605112Y1116656D01*
X1605346Y1116877D01*
X1605567Y1117072D01*
X1605801Y1117241D01*
X1606009Y1117397D01*
X1606217Y1117527D01*
X1606399Y1117631D01*
X1606568Y1117722D01*
X1606711Y1117800D01*
X1606828Y1117865D01*
X1606919Y1117904D01*
X1606984Y1117917D01*
X1606997Y1117930D01*
X1607335Y1118047D01*
X1607686Y1118151D01*
X1608050Y1118229D01*
X1608440Y1118307D01*
X1609207Y1118424D01*
X1609571Y1118463D01*
X1609935Y1118502D01*
X1610273Y1118528D01*
X1610598Y1118541D01*
X1610871Y1118567D01*
X1611118D01*
X1611326Y1118580D01*
X1611404D01*
X1611469D01*
X1611521D01*
X1611560D01*
X1611586D01*
X1611599D01*
X1622688D01*
Y1116045D01*
D02*
G37*
G36*
X1836041Y1384253D02*
X1836444Y1384214D01*
X1836821Y1384149D01*
X1837185Y1384058D01*
X1837510Y1383967D01*
X1837835Y1383850D01*
X1838121Y1383733D01*
X1838381Y1383616D01*
X1838615Y1383486D01*
X1838823Y1383369D01*
X1839005Y1383252D01*
X1839161Y1383161D01*
X1839278Y1383070D01*
X1839369Y1383005D01*
X1839421Y1382966D01*
X1839434Y1382953D01*
X1839707Y1382693D01*
X1839954Y1382420D01*
X1840188Y1382134D01*
X1840383Y1381835D01*
X1840565Y1381523D01*
X1840734Y1381224D01*
X1840864Y1380925D01*
X1840994Y1380639D01*
X1841098Y1380353D01*
X1841176Y1380106D01*
X1841254Y1379872D01*
X1841306Y1379677D01*
X1841345Y1379508D01*
X1841371Y1379391D01*
X1841397Y1379313D01*
Y1379300D01*
Y1379287D01*
X1839044Y1378871D01*
X1838979Y1379183D01*
X1838914Y1379482D01*
X1838836Y1379755D01*
X1838745Y1380002D01*
X1838654Y1380236D01*
X1838550Y1380444D01*
X1838446Y1380639D01*
X1838355Y1380808D01*
X1838251Y1380964D01*
X1838160Y1381094D01*
X1838082Y1381211D01*
X1838004Y1381302D01*
X1837952Y1381367D01*
X1837900Y1381419D01*
X1837874Y1381445D01*
X1837861Y1381458D01*
X1837679Y1381614D01*
X1837497Y1381744D01*
X1837302Y1381861D01*
X1837120Y1381965D01*
X1836925Y1382043D01*
X1836730Y1382121D01*
X1836366Y1382225D01*
X1836210Y1382251D01*
X1836054Y1382277D01*
X1835911Y1382303D01*
X1835794Y1382316D01*
X1835703Y1382329D01*
X1835573D01*
X1835313Y1382316D01*
X1835079Y1382290D01*
X1834845Y1382251D01*
X1834637Y1382199D01*
X1834429Y1382134D01*
X1834247Y1382056D01*
X1834078Y1381978D01*
X1833922Y1381900D01*
X1833779Y1381822D01*
X1833662Y1381744D01*
X1833558Y1381666D01*
X1833467Y1381601D01*
X1833402Y1381549D01*
X1833350Y1381510D01*
X1833324Y1381484D01*
X1833311Y1381471D01*
X1833155Y1381302D01*
X1833025Y1381133D01*
X1832895Y1380964D01*
X1832804Y1380782D01*
X1832713Y1380600D01*
X1832648Y1380418D01*
X1832531Y1380080D01*
X1832505Y1379924D01*
X1832479Y1379781D01*
X1832453Y1379651D01*
X1832440Y1379547D01*
X1832427Y1379456D01*
Y1379378D01*
Y1379339D01*
Y1379326D01*
X1832440Y1379027D01*
X1832479Y1378754D01*
X1832544Y1378494D01*
X1832609Y1378260D01*
X1832713Y1378039D01*
X1832804Y1377831D01*
X1832921Y1377662D01*
X1833025Y1377493D01*
X1833142Y1377350D01*
X1833259Y1377233D01*
X1833350Y1377129D01*
X1833441Y1377051D01*
X1833519Y1376973D01*
X1833584Y1376934D01*
X1833623Y1376908D01*
X1833636Y1376895D01*
X1833857Y1376752D01*
X1834091Y1376635D01*
X1834325Y1376531D01*
X1834559Y1376440D01*
X1834793Y1376375D01*
X1835014Y1376310D01*
X1835235Y1376258D01*
X1835430Y1376219D01*
X1835625Y1376180D01*
X1835794Y1376154D01*
X1835950Y1376141D01*
X1836080Y1376128D01*
X1836197Y1376115D01*
X1836457D01*
X1836587Y1376128D01*
X1836639D01*
X1836678Y1376141D01*
X1836717D01*
X1836977Y1374074D01*
X1836626Y1374165D01*
X1836301Y1374230D01*
X1836015Y1374269D01*
X1835781Y1374308D01*
X1835586Y1374321D01*
X1835508D01*
X1835443Y1374334D01*
X1835326D01*
X1835027Y1374321D01*
X1834741Y1374295D01*
X1834468Y1374243D01*
X1834208Y1374165D01*
X1833974Y1374087D01*
X1833753Y1373996D01*
X1833545Y1373905D01*
X1833363Y1373814D01*
X1833194Y1373710D01*
X1833051Y1373619D01*
X1832934Y1373528D01*
X1832830Y1373450D01*
X1832739Y1373385D01*
X1832687Y1373333D01*
X1832648Y1373294D01*
X1832635Y1373281D01*
X1832453Y1373073D01*
X1832284Y1372865D01*
X1832141Y1372644D01*
X1832024Y1372423D01*
X1831920Y1372189D01*
X1831829Y1371968D01*
X1831764Y1371760D01*
X1831699Y1371552D01*
X1831660Y1371357D01*
X1831621Y1371175D01*
X1831595Y1371006D01*
X1831582Y1370876D01*
Y1370759D01*
X1831569Y1370681D01*
Y1370616D01*
Y1370603D01*
X1831582Y1370291D01*
X1831621Y1369992D01*
X1831673Y1369719D01*
X1831751Y1369446D01*
X1831829Y1369199D01*
X1831933Y1368965D01*
X1832037Y1368744D01*
X1832141Y1368549D01*
X1832245Y1368367D01*
X1832349Y1368211D01*
X1832453Y1368081D01*
X1832531Y1367964D01*
X1832609Y1367873D01*
X1832661Y1367808D01*
X1832700Y1367769D01*
X1832713Y1367756D01*
X1832934Y1367548D01*
X1833168Y1367379D01*
X1833402Y1367223D01*
X1833636Y1367093D01*
X1833870Y1366976D01*
X1834104Y1366885D01*
X1834325Y1366807D01*
X1834546Y1366742D01*
X1834754Y1366690D01*
X1834936Y1366664D01*
X1835105Y1366638D01*
X1835248Y1366612D01*
X1835365D01*
X1835443Y1366599D01*
X1835521D01*
X1835781Y1366612D01*
X1836028Y1366638D01*
X1836249Y1366677D01*
X1836483Y1366742D01*
X1836691Y1366807D01*
X1836886Y1366885D01*
X1837055Y1366963D01*
X1837224Y1367041D01*
X1837380Y1367119D01*
X1837510Y1367210D01*
X1837614Y1367275D01*
X1837718Y1367340D01*
X1837783Y1367405D01*
X1837848Y1367444D01*
X1837874Y1367470D01*
X1837887Y1367483D01*
X1838069Y1367665D01*
X1838225Y1367860D01*
X1838381Y1368081D01*
X1838511Y1368302D01*
X1838758Y1368783D01*
X1838953Y1369264D01*
X1839031Y1369485D01*
X1839096Y1369693D01*
X1839148Y1369875D01*
X1839200Y1370044D01*
X1839239Y1370174D01*
X1839252Y1370278D01*
X1839278Y1370343D01*
Y1370369D01*
X1841631Y1370057D01*
X1841566Y1369615D01*
X1841488Y1369199D01*
X1841371Y1368809D01*
X1841241Y1368445D01*
X1841085Y1368094D01*
X1840929Y1367769D01*
X1840760Y1367483D01*
X1840591Y1367210D01*
X1840435Y1366976D01*
X1840266Y1366755D01*
X1840123Y1366586D01*
X1839993Y1366430D01*
X1839889Y1366313D01*
X1839811Y1366222D01*
X1839746Y1366170D01*
X1839733Y1366157D01*
X1839408Y1365897D01*
X1839070Y1365663D01*
X1838719Y1365468D01*
X1838368Y1365299D01*
X1838017Y1365143D01*
X1837666Y1365026D01*
X1837328Y1364922D01*
X1837003Y1364844D01*
X1836704Y1364792D01*
X1836418Y1364740D01*
X1836171Y1364714D01*
X1835950Y1364688D01*
X1835781Y1364675D01*
X1835651Y1364662D01*
X1835534D01*
X1835014Y1364688D01*
X1834533Y1364740D01*
X1834065Y1364818D01*
X1833623Y1364935D01*
X1833207Y1365065D01*
X1832830Y1365208D01*
X1832479Y1365377D01*
X1832154Y1365533D01*
X1831868Y1365702D01*
X1831621Y1365858D01*
X1831400Y1366001D01*
X1831218Y1366131D01*
X1831075Y1366248D01*
X1830971Y1366326D01*
X1830919Y1366391D01*
X1830893Y1366404D01*
X1830568Y1366742D01*
X1830282Y1367093D01*
X1830048Y1367444D01*
X1829827Y1367808D01*
X1829658Y1368159D01*
X1829502Y1368510D01*
X1829385Y1368861D01*
X1829294Y1369186D01*
X1829216Y1369485D01*
X1829151Y1369771D01*
X1829112Y1370018D01*
X1829086Y1370239D01*
X1829073Y1370408D01*
X1829060Y1370538D01*
Y1370590D01*
Y1370629D01*
Y1370642D01*
Y1370655D01*
X1829073Y1370993D01*
X1829099Y1371318D01*
X1829151Y1371630D01*
X1829203Y1371929D01*
X1829281Y1372202D01*
X1829359Y1372449D01*
X1829450Y1372683D01*
X1829528Y1372904D01*
X1829619Y1373086D01*
X1829710Y1373255D01*
X1829788Y1373411D01*
X1829866Y1373528D01*
X1829918Y1373619D01*
X1829970Y1373697D01*
X1829996Y1373736D01*
X1830009Y1373749D01*
X1830191Y1373970D01*
X1830386Y1374178D01*
X1830594Y1374360D01*
X1830815Y1374529D01*
X1831036Y1374685D01*
X1831257Y1374815D01*
X1831465Y1374932D01*
X1831673Y1375036D01*
X1831881Y1375127D01*
X1832063Y1375192D01*
X1832219Y1375257D01*
X1832362Y1375309D01*
X1832479Y1375348D01*
X1832570Y1375374D01*
X1832622Y1375387D01*
X1832648D01*
X1832414Y1375504D01*
X1832193Y1375634D01*
X1831985Y1375764D01*
X1831790Y1375894D01*
X1831621Y1376024D01*
X1831452Y1376154D01*
X1831309Y1376297D01*
X1831179Y1376414D01*
X1831062Y1376531D01*
X1830958Y1376648D01*
X1830880Y1376752D01*
X1830802Y1376830D01*
X1830750Y1376908D01*
X1830711Y1376960D01*
X1830698Y1376986D01*
X1830685Y1376999D01*
X1830568Y1377194D01*
X1830464Y1377389D01*
X1830373Y1377597D01*
X1830295Y1377792D01*
X1830178Y1378169D01*
X1830087Y1378520D01*
X1830061Y1378676D01*
X1830048Y1378819D01*
X1830035Y1378949D01*
X1830022Y1379066D01*
X1830009Y1379157D01*
Y1379222D01*
Y1379261D01*
Y1379274D01*
X1830022Y1379521D01*
X1830035Y1379755D01*
X1830113Y1380210D01*
X1830230Y1380639D01*
X1830295Y1380821D01*
X1830360Y1381003D01*
X1830425Y1381159D01*
X1830490Y1381315D01*
X1830542Y1381432D01*
X1830607Y1381549D01*
X1830646Y1381627D01*
X1830685Y1381692D01*
X1830698Y1381731D01*
X1830711Y1381744D01*
X1830854Y1381952D01*
X1830997Y1382160D01*
X1831322Y1382524D01*
X1831491Y1382693D01*
X1831660Y1382849D01*
X1831829Y1382979D01*
X1831985Y1383109D01*
X1832141Y1383213D01*
X1832284Y1383317D01*
X1832414Y1383395D01*
X1832518Y1383473D01*
X1832609Y1383525D01*
X1832674Y1383564D01*
X1832726Y1383577D01*
X1832739Y1383590D01*
X1832986Y1383707D01*
X1833246Y1383811D01*
X1833493Y1383902D01*
X1833740Y1383980D01*
X1834234Y1384097D01*
X1834455Y1384149D01*
X1834676Y1384188D01*
X1834871Y1384214D01*
X1835053Y1384227D01*
X1835222Y1384240D01*
X1835352Y1384253D01*
X1835469Y1384266D01*
X1835625D01*
X1836041Y1384253D01*
D02*
G37*
G36*
X1860000Y1373099D02*
X1859987Y1372540D01*
X1859974Y1372020D01*
X1859935Y1371526D01*
X1859883Y1371058D01*
X1859831Y1370629D01*
X1859766Y1370226D01*
X1859701Y1369875D01*
X1859636Y1369537D01*
X1859571Y1369251D01*
X1859506Y1368991D01*
X1859441Y1368783D01*
X1859389Y1368601D01*
X1859337Y1368458D01*
X1859298Y1368354D01*
X1859285Y1368302D01*
X1859272Y1368276D01*
X1859129Y1367951D01*
X1858960Y1367652D01*
X1858778Y1367379D01*
X1858583Y1367119D01*
X1858388Y1366872D01*
X1858180Y1366664D01*
X1857972Y1366456D01*
X1857777Y1366274D01*
X1857582Y1366118D01*
X1857413Y1365988D01*
X1857244Y1365871D01*
X1857101Y1365767D01*
X1856997Y1365689D01*
X1856906Y1365637D01*
X1856841Y1365611D01*
X1856828Y1365598D01*
X1856490Y1365442D01*
X1856139Y1365299D01*
X1855788Y1365169D01*
X1855411Y1365065D01*
X1855047Y1364974D01*
X1854670Y1364896D01*
X1854319Y1364844D01*
X1853968Y1364792D01*
X1853656Y1364753D01*
X1853357Y1364727D01*
X1853084Y1364701D01*
X1852863Y1364688D01*
X1852668Y1364675D01*
X1852408D01*
X1851901Y1364688D01*
X1851420Y1364727D01*
X1850965Y1364779D01*
X1850536Y1364844D01*
X1850146Y1364922D01*
X1849782Y1365013D01*
X1849444Y1365104D01*
X1849132Y1365208D01*
X1848859Y1365299D01*
X1848625Y1365390D01*
X1848417Y1365481D01*
X1848248Y1365559D01*
X1848105Y1365637D01*
X1848014Y1365689D01*
X1847949Y1365715D01*
X1847936Y1365728D01*
X1847624Y1365936D01*
X1847338Y1366157D01*
X1847078Y1366378D01*
X1846844Y1366612D01*
X1846623Y1366846D01*
X1846428Y1367067D01*
X1846259Y1367301D01*
X1846103Y1367509D01*
X1845973Y1367717D01*
X1845869Y1367899D01*
X1845778Y1368068D01*
X1845700Y1368211D01*
X1845635Y1368328D01*
X1845596Y1368419D01*
X1845583Y1368484D01*
X1845570Y1368497D01*
X1845453Y1368835D01*
X1845349Y1369186D01*
X1845271Y1369550D01*
X1845193Y1369940D01*
X1845076Y1370707D01*
X1845037Y1371071D01*
X1844998Y1371435D01*
X1844972Y1371773D01*
X1844959Y1372098D01*
X1844933Y1372371D01*
Y1372618D01*
X1844920Y1372826D01*
Y1372904D01*
Y1372969D01*
Y1373021D01*
Y1373060D01*
Y1373086D01*
Y1373099D01*
Y1384188D01*
X1847455D01*
Y1373112D01*
Y1372774D01*
X1847468Y1372462D01*
X1847481Y1372163D01*
X1847507Y1371864D01*
X1847559Y1371318D01*
X1847637Y1370824D01*
X1847728Y1370382D01*
X1847832Y1369979D01*
X1847936Y1369628D01*
X1848053Y1369316D01*
X1848170Y1369043D01*
X1848274Y1368822D01*
X1848378Y1368627D01*
X1848469Y1368484D01*
X1848534Y1368367D01*
X1848599Y1368289D01*
X1848638Y1368237D01*
X1848651Y1368224D01*
X1848885Y1368003D01*
X1849158Y1367808D01*
X1849457Y1367639D01*
X1849769Y1367496D01*
X1850094Y1367379D01*
X1850432Y1367275D01*
X1850770Y1367184D01*
X1851095Y1367119D01*
X1851394Y1367067D01*
X1851693Y1367028D01*
X1851953Y1367002D01*
X1852187Y1366989D01*
X1852369Y1366976D01*
X1852447Y1366963D01*
X1852642D01*
X1852941Y1366976D01*
X1853227Y1366989D01*
X1853500Y1367028D01*
X1853760Y1367067D01*
X1854007Y1367106D01*
X1854228Y1367171D01*
X1854449Y1367223D01*
X1854631Y1367288D01*
X1854813Y1367340D01*
X1854969Y1367405D01*
X1855099Y1367457D01*
X1855203Y1367496D01*
X1855294Y1367548D01*
X1855359Y1367574D01*
X1855398Y1367587D01*
X1855411Y1367600D01*
X1855619Y1367730D01*
X1855801Y1367860D01*
X1855983Y1368003D01*
X1856139Y1368159D01*
X1856282Y1368302D01*
X1856412Y1368458D01*
X1856529Y1368601D01*
X1856633Y1368744D01*
X1856724Y1368887D01*
X1856802Y1369017D01*
X1856867Y1369121D01*
X1856919Y1369225D01*
X1856958Y1369303D01*
X1856984Y1369368D01*
X1857010Y1369407D01*
Y1369420D01*
X1857088Y1369654D01*
X1857166Y1369914D01*
X1857218Y1370200D01*
X1857270Y1370499D01*
X1857348Y1371110D01*
X1857387Y1371409D01*
X1857413Y1371708D01*
X1857426Y1371994D01*
X1857439Y1372254D01*
X1857452Y1372488D01*
Y1372696D01*
X1857465Y1372878D01*
Y1373008D01*
Y1373047D01*
Y1373086D01*
Y1373099D01*
Y1373112D01*
Y1384188D01*
X1860000D01*
Y1373099D01*
D02*
G37*
G36*
X1629555Y1045312D02*
X1630088Y1045260D01*
X1630582Y1045169D01*
X1631063Y1045065D01*
X1631505Y1044948D01*
X1631934Y1044805D01*
X1632311Y1044662D01*
X1632662Y1044506D01*
X1632987Y1044350D01*
X1633260Y1044207D01*
X1633507Y1044064D01*
X1633702Y1043947D01*
X1633871Y1043843D01*
X1633988Y1043752D01*
X1634053Y1043700D01*
X1634079Y1043687D01*
X1634456Y1043362D01*
X1634794Y1043011D01*
X1635119Y1042634D01*
X1635405Y1042244D01*
X1635665Y1041854D01*
X1635899Y1041451D01*
X1636107Y1041061D01*
X1636302Y1040684D01*
X1636458Y1040333D01*
X1636588Y1039995D01*
X1636705Y1039696D01*
X1636796Y1039436D01*
X1636835Y1039319D01*
X1636861Y1039215D01*
X1636887Y1039124D01*
X1636913Y1039059D01*
X1636926Y1038994D01*
X1636939Y1038955D01*
X1636952Y1038929D01*
Y1038916D01*
X1634417Y1038279D01*
X1634313Y1038721D01*
X1634183Y1039124D01*
X1634040Y1039514D01*
X1633884Y1039865D01*
X1633715Y1040203D01*
X1633546Y1040502D01*
X1633377Y1040775D01*
X1633208Y1041009D01*
X1633052Y1041230D01*
X1632896Y1041412D01*
X1632766Y1041568D01*
X1632636Y1041698D01*
X1632545Y1041802D01*
X1632467Y1041880D01*
X1632415Y1041919D01*
X1632402Y1041932D01*
X1632116Y1042153D01*
X1631830Y1042335D01*
X1631531Y1042504D01*
X1631219Y1042647D01*
X1630920Y1042764D01*
X1630621Y1042868D01*
X1630322Y1042946D01*
X1630049Y1043011D01*
X1629789Y1043063D01*
X1629555Y1043102D01*
X1629347Y1043128D01*
X1629152Y1043141D01*
X1629009Y1043154D01*
X1628892Y1043167D01*
X1628801D01*
X1628476Y1043154D01*
X1628151Y1043128D01*
X1627852Y1043089D01*
X1627553Y1043024D01*
X1627267Y1042959D01*
X1626994Y1042881D01*
X1626747Y1042803D01*
X1626513Y1042712D01*
X1626305Y1042634D01*
X1626110Y1042556D01*
X1625941Y1042478D01*
X1625798Y1042413D01*
X1625694Y1042348D01*
X1625603Y1042309D01*
X1625551Y1042283D01*
X1625538Y1042270D01*
X1625265Y1042088D01*
X1625005Y1041893D01*
X1624771Y1041685D01*
X1624550Y1041464D01*
X1624355Y1041230D01*
X1624173Y1041009D01*
X1624004Y1040775D01*
X1623861Y1040567D01*
X1623731Y1040359D01*
X1623627Y1040164D01*
X1623523Y1039995D01*
X1623445Y1039839D01*
X1623393Y1039709D01*
X1623354Y1039618D01*
X1623328Y1039566D01*
X1623315Y1039540D01*
X1623198Y1039189D01*
X1623081Y1038825D01*
X1622990Y1038461D01*
X1622912Y1038097D01*
X1622782Y1037382D01*
X1622743Y1037031D01*
X1622704Y1036706D01*
X1622678Y1036407D01*
X1622652Y1036121D01*
X1622639Y1035874D01*
X1622626Y1035666D01*
X1622613Y1035484D01*
Y1035354D01*
Y1035315D01*
Y1035276D01*
Y1035263D01*
Y1035250D01*
X1622626Y1034899D01*
X1622639Y1034548D01*
X1622704Y1033872D01*
X1622756Y1033560D01*
X1622808Y1033248D01*
X1622860Y1032962D01*
X1622912Y1032702D01*
X1622964Y1032455D01*
X1623016Y1032234D01*
X1623068Y1032039D01*
X1623120Y1031883D01*
X1623159Y1031753D01*
X1623185Y1031649D01*
X1623211Y1031597D01*
Y1031571D01*
X1623328Y1031246D01*
X1623471Y1030934D01*
X1623627Y1030648D01*
X1623783Y1030375D01*
X1623965Y1030115D01*
X1624134Y1029881D01*
X1624303Y1029673D01*
X1624472Y1029478D01*
X1624641Y1029309D01*
X1624797Y1029153D01*
X1624927Y1029023D01*
X1625057Y1028919D01*
X1625148Y1028828D01*
X1625226Y1028776D01*
X1625278Y1028737D01*
X1625291Y1028724D01*
X1625577Y1028542D01*
X1625876Y1028373D01*
X1626188Y1028230D01*
X1626500Y1028113D01*
X1626812Y1028009D01*
X1627124Y1027918D01*
X1627423Y1027853D01*
X1627709Y1027788D01*
X1627969Y1027749D01*
X1628216Y1027710D01*
X1628437Y1027684D01*
X1628632Y1027671D01*
X1628788D01*
X1628905Y1027658D01*
X1628996D01*
X1629347Y1027671D01*
X1629685Y1027697D01*
X1630010Y1027749D01*
X1630309Y1027814D01*
X1630582Y1027879D01*
X1630855Y1027957D01*
X1631089Y1028048D01*
X1631310Y1028139D01*
X1631505Y1028230D01*
X1631687Y1028321D01*
X1631830Y1028399D01*
X1631960Y1028464D01*
X1632051Y1028529D01*
X1632129Y1028581D01*
X1632168Y1028607D01*
X1632181Y1028620D01*
X1632415Y1028815D01*
X1632636Y1029023D01*
X1632831Y1029257D01*
X1633026Y1029491D01*
X1633195Y1029751D01*
X1633364Y1029998D01*
X1633507Y1030258D01*
X1633637Y1030505D01*
X1633754Y1030739D01*
X1633845Y1030960D01*
X1633936Y1031155D01*
X1634001Y1031337D01*
X1634066Y1031480D01*
X1634105Y1031584D01*
X1634118Y1031649D01*
X1634131Y1031675D01*
X1636627Y1031077D01*
X1636471Y1030596D01*
X1636289Y1030141D01*
X1636081Y1029712D01*
X1635873Y1029309D01*
X1635652Y1028945D01*
X1635418Y1028607D01*
X1635184Y1028295D01*
X1634963Y1028022D01*
X1634742Y1027775D01*
X1634547Y1027554D01*
X1634365Y1027372D01*
X1634209Y1027229D01*
X1634066Y1027112D01*
X1633975Y1027021D01*
X1633910Y1026969D01*
X1633884Y1026956D01*
X1633507Y1026696D01*
X1633117Y1026475D01*
X1632714Y1026280D01*
X1632298Y1026111D01*
X1631895Y1025968D01*
X1631492Y1025851D01*
X1631102Y1025747D01*
X1630725Y1025669D01*
X1630387Y1025604D01*
X1630062Y1025565D01*
X1629776Y1025526D01*
X1629529Y1025513D01*
X1629321Y1025500D01*
X1629243Y1025487D01*
X1629048D01*
X1628580Y1025500D01*
X1628125Y1025539D01*
X1627683Y1025591D01*
X1627254Y1025669D01*
X1626851Y1025760D01*
X1626461Y1025851D01*
X1626097Y1025968D01*
X1625772Y1026072D01*
X1625473Y1026176D01*
X1625200Y1026280D01*
X1624966Y1026384D01*
X1624771Y1026475D01*
X1624602Y1026553D01*
X1624485Y1026605D01*
X1624420Y1026644D01*
X1624394Y1026657D01*
X1624004Y1026891D01*
X1623640Y1027138D01*
X1623302Y1027398D01*
X1622990Y1027671D01*
X1622704Y1027957D01*
X1622431Y1028243D01*
X1622184Y1028516D01*
X1621963Y1028789D01*
X1621768Y1029049D01*
X1621599Y1029283D01*
X1621456Y1029491D01*
X1621339Y1029686D01*
X1621248Y1029842D01*
X1621183Y1029946D01*
X1621144Y1030024D01*
X1621131Y1030037D01*
Y1030050D01*
X1620936Y1030479D01*
X1620754Y1030908D01*
X1620598Y1031350D01*
X1620468Y1031805D01*
X1620364Y1032247D01*
X1620273Y1032676D01*
X1620195Y1033092D01*
X1620130Y1033495D01*
X1620078Y1033859D01*
X1620052Y1034197D01*
X1620026Y1034496D01*
X1620000Y1034756D01*
Y1034873D01*
Y1034977D01*
X1619987Y1035055D01*
Y1035133D01*
Y1035185D01*
Y1035224D01*
Y1035250D01*
Y1035263D01*
X1620000Y1035770D01*
X1620026Y1036277D01*
X1620078Y1036758D01*
X1620143Y1037226D01*
X1620221Y1037681D01*
X1620312Y1038097D01*
X1620403Y1038500D01*
X1620494Y1038864D01*
X1620585Y1039202D01*
X1620676Y1039514D01*
X1620767Y1039774D01*
X1620845Y1039995D01*
X1620910Y1040177D01*
X1620962Y1040307D01*
X1620975Y1040346D01*
X1620988Y1040385D01*
X1621001Y1040398D01*
Y1040411D01*
X1621196Y1040840D01*
X1621417Y1041256D01*
X1621651Y1041633D01*
X1621885Y1041984D01*
X1622132Y1042322D01*
X1622379Y1042621D01*
X1622626Y1042894D01*
X1622860Y1043128D01*
X1623081Y1043349D01*
X1623289Y1043544D01*
X1623471Y1043700D01*
X1623640Y1043830D01*
X1623770Y1043934D01*
X1623861Y1043999D01*
X1623926Y1044051D01*
X1623952Y1044064D01*
X1624329Y1044285D01*
X1624732Y1044480D01*
X1625148Y1044649D01*
X1625564Y1044792D01*
X1625993Y1044909D01*
X1626409Y1045013D01*
X1626825Y1045104D01*
X1627215Y1045169D01*
X1627579Y1045221D01*
X1627930Y1045260D01*
X1628229Y1045286D01*
X1628489Y1045299D01*
X1628606Y1045312D01*
X1628710D01*
X1628801Y1045325D01*
X1629009D01*
X1629555Y1045312D01*
D02*
G37*
G36*
X1662913Y1025734D02*
X1661392D01*
X1661262Y1025968D01*
X1661132Y1026202D01*
X1660976Y1026436D01*
X1660807Y1026657D01*
X1660456Y1027099D01*
X1660287Y1027294D01*
X1660118Y1027489D01*
X1659949Y1027658D01*
X1659806Y1027827D01*
X1659663Y1027957D01*
X1659546Y1028087D01*
X1659442Y1028178D01*
X1659364Y1028243D01*
X1659312Y1028295D01*
X1659299Y1028308D01*
X1658727Y1028776D01*
X1658129Y1029218D01*
X1657843Y1029413D01*
X1657557Y1029595D01*
X1657271Y1029764D01*
X1657011Y1029920D01*
X1656764Y1030063D01*
X1656543Y1030193D01*
X1656348Y1030297D01*
X1656179Y1030388D01*
X1656036Y1030466D01*
X1655932Y1030518D01*
X1655867Y1030544D01*
X1655841Y1030557D01*
Y1032832D01*
X1656270Y1032663D01*
X1656699Y1032468D01*
X1657115Y1032273D01*
X1657492Y1032078D01*
X1657674Y1031987D01*
X1657830Y1031896D01*
X1657973Y1031818D01*
X1658090Y1031753D01*
X1658194Y1031701D01*
X1658259Y1031662D01*
X1658311Y1031636D01*
X1658324Y1031623D01*
X1658571Y1031467D01*
X1658818Y1031324D01*
X1659039Y1031168D01*
X1659247Y1031025D01*
X1659455Y1030882D01*
X1659637Y1030752D01*
X1659806Y1030622D01*
X1659949Y1030505D01*
X1660092Y1030388D01*
X1660209Y1030297D01*
X1660313Y1030206D01*
X1660391Y1030141D01*
X1660456Y1030076D01*
X1660508Y1030037D01*
X1660534Y1030011D01*
X1660547Y1029998D01*
Y1045000D01*
X1662913D01*
Y1025734D01*
D02*
G37*
G36*
X1648002D02*
X1646481D01*
X1646351Y1025968D01*
X1646221Y1026202D01*
X1646065Y1026436D01*
X1645896Y1026657D01*
X1645545Y1027099D01*
X1645376Y1027294D01*
X1645207Y1027489D01*
X1645038Y1027658D01*
X1644895Y1027827D01*
X1644752Y1027957D01*
X1644635Y1028087D01*
X1644531Y1028178D01*
X1644453Y1028243D01*
X1644401Y1028295D01*
X1644388Y1028308D01*
X1643816Y1028776D01*
X1643218Y1029218D01*
X1642932Y1029413D01*
X1642646Y1029595D01*
X1642360Y1029764D01*
X1642100Y1029920D01*
X1641853Y1030063D01*
X1641632Y1030193D01*
X1641437Y1030297D01*
X1641268Y1030388D01*
X1641125Y1030466D01*
X1641021Y1030518D01*
X1640956Y1030544D01*
X1640930Y1030557D01*
Y1032832D01*
X1641359Y1032663D01*
X1641788Y1032468D01*
X1642204Y1032273D01*
X1642581Y1032078D01*
X1642763Y1031987D01*
X1642919Y1031896D01*
X1643062Y1031818D01*
X1643179Y1031753D01*
X1643283Y1031701D01*
X1643348Y1031662D01*
X1643400Y1031636D01*
X1643413Y1031623D01*
X1643660Y1031467D01*
X1643907Y1031324D01*
X1644128Y1031168D01*
X1644336Y1031025D01*
X1644544Y1030882D01*
X1644726Y1030752D01*
X1644895Y1030622D01*
X1645038Y1030505D01*
X1645181Y1030388D01*
X1645298Y1030297D01*
X1645402Y1030206D01*
X1645480Y1030141D01*
X1645545Y1030076D01*
X1645597Y1030037D01*
X1645623Y1030011D01*
X1645636Y1029998D01*
Y1045000D01*
X1648002D01*
Y1025734D01*
D02*
G37*
G36*
X1783649Y1034032D02*
X1783779Y1033798D01*
X1783935Y1033564D01*
X1784104Y1033343D01*
X1784455Y1032901D01*
X1784624Y1032706D01*
X1784793Y1032511D01*
X1784962Y1032342D01*
X1785105Y1032173D01*
X1785248Y1032043D01*
X1785365Y1031913D01*
X1785469Y1031822D01*
X1785547Y1031757D01*
X1785599Y1031705D01*
X1785612Y1031692D01*
X1786184Y1031224D01*
X1786782Y1030782D01*
X1787068Y1030587D01*
X1787354Y1030405D01*
X1787640Y1030236D01*
X1787900Y1030080D01*
X1788147Y1029937D01*
X1788368Y1029807D01*
X1788563Y1029703D01*
X1788732Y1029612D01*
X1788875Y1029534D01*
X1788979Y1029482D01*
X1789044Y1029456D01*
X1789070Y1029443D01*
Y1027168D01*
X1788641Y1027337D01*
X1788212Y1027532D01*
X1787796Y1027727D01*
X1787419Y1027922D01*
X1787237Y1028013D01*
X1787081Y1028104D01*
X1786938Y1028182D01*
X1786821Y1028247D01*
X1786717Y1028299D01*
X1786652Y1028338D01*
X1786600Y1028364D01*
X1786587Y1028377D01*
X1786340Y1028533D01*
X1786093Y1028676D01*
X1785872Y1028832D01*
X1785664Y1028975D01*
X1785456Y1029118D01*
X1785274Y1029248D01*
X1785105Y1029378D01*
X1784962Y1029495D01*
X1784819Y1029612D01*
X1784702Y1029703D01*
X1784598Y1029794D01*
X1784520Y1029859D01*
X1784455Y1029924D01*
X1784403Y1029963D01*
X1784377Y1029989D01*
X1784364Y1030002D01*
Y1015000D01*
X1781998D01*
Y1034266D01*
X1783519D01*
X1783649Y1034032D01*
D02*
G37*
G36*
X1801420Y1034500D02*
X1801875Y1034461D01*
X1802317Y1034409D01*
X1802746Y1034331D01*
X1803149Y1034240D01*
X1803539Y1034149D01*
X1803903Y1034032D01*
X1804228Y1033928D01*
X1804527Y1033824D01*
X1804800Y1033720D01*
X1805034Y1033616D01*
X1805229Y1033525D01*
X1805398Y1033447D01*
X1805515Y1033395D01*
X1805580Y1033356D01*
X1805606Y1033343D01*
X1805996Y1033109D01*
X1806360Y1032862D01*
X1806698Y1032602D01*
X1807010Y1032329D01*
X1807296Y1032043D01*
X1807569Y1031757D01*
X1807816Y1031484D01*
X1808037Y1031211D01*
X1808232Y1030951D01*
X1808401Y1030717D01*
X1808544Y1030509D01*
X1808661Y1030314D01*
X1808752Y1030158D01*
X1808817Y1030054D01*
X1808856Y1029976D01*
X1808869Y1029963D01*
Y1029950D01*
X1809064Y1029521D01*
X1809246Y1029092D01*
X1809402Y1028650D01*
X1809532Y1028195D01*
X1809636Y1027753D01*
X1809727Y1027324D01*
X1809805Y1026908D01*
X1809870Y1026505D01*
X1809922Y1026141D01*
X1809948Y1025803D01*
X1809974Y1025504D01*
X1810000Y1025244D01*
Y1025127D01*
Y1025023D01*
X1810013Y1024945D01*
Y1024867D01*
Y1024815D01*
Y1024776D01*
Y1024750D01*
Y1024737D01*
X1810000Y1024230D01*
X1809974Y1023723D01*
X1809922Y1023242D01*
X1809857Y1022774D01*
X1809779Y1022319D01*
X1809688Y1021903D01*
X1809597Y1021500D01*
X1809506Y1021136D01*
X1809415Y1020798D01*
X1809324Y1020486D01*
X1809233Y1020226D01*
X1809155Y1020005D01*
X1809090Y1019823D01*
X1809038Y1019693D01*
X1809025Y1019654D01*
X1809012Y1019615D01*
X1808999Y1019602D01*
Y1019589D01*
X1808804Y1019160D01*
X1808583Y1018744D01*
X1808349Y1018367D01*
X1808115Y1018016D01*
X1807868Y1017678D01*
X1807621Y1017379D01*
X1807374Y1017106D01*
X1807140Y1016872D01*
X1806919Y1016651D01*
X1806711Y1016456D01*
X1806529Y1016300D01*
X1806360Y1016170D01*
X1806230Y1016066D01*
X1806139Y1016001D01*
X1806074Y1015949D01*
X1806048Y1015936D01*
X1805671Y1015715D01*
X1805268Y1015520D01*
X1804852Y1015351D01*
X1804436Y1015208D01*
X1804007Y1015091D01*
X1803591Y1014987D01*
X1803175Y1014896D01*
X1802785Y1014831D01*
X1802421Y1014779D01*
X1802070Y1014740D01*
X1801771Y1014714D01*
X1801511Y1014701D01*
X1801394Y1014688D01*
X1801290D01*
X1801199Y1014675D01*
X1800991D01*
X1800445Y1014688D01*
X1799912Y1014740D01*
X1799418Y1014831D01*
X1798937Y1014935D01*
X1798495Y1015052D01*
X1798066Y1015195D01*
X1797689Y1015338D01*
X1797338Y1015494D01*
X1797013Y1015650D01*
X1796740Y1015793D01*
X1796493Y1015936D01*
X1796298Y1016053D01*
X1796129Y1016157D01*
X1796012Y1016248D01*
X1795947Y1016300D01*
X1795921Y1016313D01*
X1795544Y1016638D01*
X1795206Y1016989D01*
X1794881Y1017366D01*
X1794595Y1017756D01*
X1794335Y1018146D01*
X1794101Y1018549D01*
X1793893Y1018939D01*
X1793698Y1019316D01*
X1793542Y1019667D01*
X1793412Y1020005D01*
X1793295Y1020304D01*
X1793204Y1020564D01*
X1793165Y1020681D01*
X1793139Y1020785D01*
X1793113Y1020876D01*
X1793087Y1020941D01*
X1793074Y1021006D01*
X1793061Y1021045D01*
X1793048Y1021071D01*
Y1021084D01*
X1795583Y1021721D01*
X1795687Y1021279D01*
X1795817Y1020876D01*
X1795960Y1020486D01*
X1796116Y1020135D01*
X1796285Y1019797D01*
X1796454Y1019498D01*
X1796623Y1019225D01*
X1796792Y1018991D01*
X1796948Y1018770D01*
X1797104Y1018588D01*
X1797234Y1018432D01*
X1797364Y1018302D01*
X1797455Y1018198D01*
X1797533Y1018120D01*
X1797585Y1018081D01*
X1797598Y1018068D01*
X1797884Y1017847D01*
X1798170Y1017665D01*
X1798469Y1017496D01*
X1798781Y1017353D01*
X1799080Y1017236D01*
X1799379Y1017132D01*
X1799678Y1017054D01*
X1799951Y1016989D01*
X1800211Y1016937D01*
X1800445Y1016898D01*
X1800653Y1016872D01*
X1800848Y1016859D01*
X1800991Y1016846D01*
X1801108Y1016833D01*
X1801199D01*
X1801524Y1016846D01*
X1801849Y1016872D01*
X1802148Y1016911D01*
X1802447Y1016976D01*
X1802733Y1017041D01*
X1803006Y1017119D01*
X1803253Y1017197D01*
X1803487Y1017288D01*
X1803695Y1017366D01*
X1803890Y1017444D01*
X1804059Y1017522D01*
X1804202Y1017587D01*
X1804306Y1017652D01*
X1804397Y1017691D01*
X1804449Y1017717D01*
X1804462Y1017730D01*
X1804735Y1017912D01*
X1804995Y1018107D01*
X1805229Y1018315D01*
X1805450Y1018536D01*
X1805645Y1018770D01*
X1805827Y1018991D01*
X1805996Y1019225D01*
X1806139Y1019433D01*
X1806269Y1019641D01*
X1806373Y1019836D01*
X1806477Y1020005D01*
X1806555Y1020161D01*
X1806607Y1020291D01*
X1806646Y1020382D01*
X1806672Y1020434D01*
X1806685Y1020460D01*
X1806802Y1020811D01*
X1806919Y1021175D01*
X1807010Y1021539D01*
X1807088Y1021903D01*
X1807218Y1022618D01*
X1807257Y1022969D01*
X1807296Y1023294D01*
X1807322Y1023593D01*
X1807348Y1023879D01*
X1807361Y1024126D01*
X1807374Y1024334D01*
X1807387Y1024516D01*
Y1024646D01*
Y1024685D01*
Y1024724D01*
Y1024737D01*
Y1024750D01*
X1807374Y1025101D01*
X1807361Y1025452D01*
X1807296Y1026128D01*
X1807244Y1026440D01*
X1807192Y1026752D01*
X1807140Y1027038D01*
X1807088Y1027298D01*
X1807036Y1027545D01*
X1806984Y1027766D01*
X1806932Y1027961D01*
X1806880Y1028117D01*
X1806841Y1028247D01*
X1806815Y1028351D01*
X1806789Y1028403D01*
Y1028429D01*
X1806672Y1028754D01*
X1806529Y1029066D01*
X1806373Y1029352D01*
X1806217Y1029625D01*
X1806035Y1029885D01*
X1805866Y1030119D01*
X1805697Y1030327D01*
X1805528Y1030522D01*
X1805359Y1030691D01*
X1805203Y1030847D01*
X1805073Y1030977D01*
X1804943Y1031081D01*
X1804852Y1031172D01*
X1804774Y1031224D01*
X1804722Y1031263D01*
X1804709Y1031276D01*
X1804423Y1031458D01*
X1804124Y1031627D01*
X1803812Y1031770D01*
X1803500Y1031887D01*
X1803188Y1031991D01*
X1802876Y1032082D01*
X1802577Y1032147D01*
X1802291Y1032212D01*
X1802031Y1032251D01*
X1801784Y1032290D01*
X1801563Y1032316D01*
X1801368Y1032329D01*
X1801212D01*
X1801095Y1032342D01*
X1801004D01*
X1800653Y1032329D01*
X1800315Y1032303D01*
X1799990Y1032251D01*
X1799691Y1032186D01*
X1799418Y1032121D01*
X1799145Y1032043D01*
X1798911Y1031952D01*
X1798690Y1031861D01*
X1798495Y1031770D01*
X1798313Y1031679D01*
X1798170Y1031601D01*
X1798040Y1031536D01*
X1797949Y1031471D01*
X1797871Y1031419D01*
X1797832Y1031393D01*
X1797819Y1031380D01*
X1797585Y1031185D01*
X1797364Y1030977D01*
X1797169Y1030743D01*
X1796974Y1030509D01*
X1796805Y1030249D01*
X1796636Y1030002D01*
X1796493Y1029742D01*
X1796363Y1029495D01*
X1796246Y1029261D01*
X1796155Y1029040D01*
X1796064Y1028845D01*
X1795999Y1028663D01*
X1795934Y1028520D01*
X1795895Y1028416D01*
X1795882Y1028351D01*
X1795869Y1028325D01*
X1793373Y1028923D01*
X1793529Y1029404D01*
X1793711Y1029859D01*
X1793919Y1030288D01*
X1794127Y1030691D01*
X1794348Y1031055D01*
X1794582Y1031393D01*
X1794816Y1031705D01*
X1795037Y1031978D01*
X1795258Y1032225D01*
X1795453Y1032446D01*
X1795635Y1032628D01*
X1795791Y1032771D01*
X1795934Y1032888D01*
X1796025Y1032979D01*
X1796090Y1033031D01*
X1796116Y1033044D01*
X1796493Y1033304D01*
X1796883Y1033525D01*
X1797286Y1033720D01*
X1797702Y1033889D01*
X1798105Y1034032D01*
X1798508Y1034149D01*
X1798898Y1034253D01*
X1799275Y1034331D01*
X1799613Y1034396D01*
X1799938Y1034435D01*
X1800224Y1034474D01*
X1800471Y1034487D01*
X1800679Y1034500D01*
X1800757Y1034513D01*
X1800952D01*
X1801420Y1034500D01*
D02*
G37*
G36*
X1770090Y1034253D02*
X1770467Y1034214D01*
X1770805Y1034162D01*
X1771143Y1034084D01*
X1771442Y1034006D01*
X1771728Y1033915D01*
X1771988Y1033811D01*
X1772235Y1033707D01*
X1772443Y1033590D01*
X1772638Y1033499D01*
X1772794Y1033395D01*
X1772937Y1033317D01*
X1773041Y1033239D01*
X1773119Y1033187D01*
X1773171Y1033148D01*
X1773184Y1033135D01*
X1773431Y1032914D01*
X1773665Y1032667D01*
X1773886Y1032420D01*
X1774094Y1032160D01*
X1774276Y1031887D01*
X1774445Y1031627D01*
X1774601Y1031354D01*
X1774744Y1031107D01*
X1774861Y1030860D01*
X1774965Y1030639D01*
X1775056Y1030444D01*
X1775134Y1030262D01*
X1775186Y1030119D01*
X1775225Y1030015D01*
X1775251Y1029950D01*
X1775264Y1029924D01*
X1775381Y1029521D01*
X1775498Y1029092D01*
X1775589Y1028650D01*
X1775667Y1028195D01*
X1775797Y1027285D01*
X1775836Y1026843D01*
X1775875Y1026414D01*
X1775901Y1026011D01*
X1775927Y1025634D01*
X1775940Y1025309D01*
X1775953Y1025153D01*
Y1025010D01*
Y1024893D01*
X1775966Y1024776D01*
Y1024685D01*
Y1024607D01*
Y1024542D01*
Y1024490D01*
Y1024464D01*
Y1024451D01*
Y1023957D01*
X1775940Y1023476D01*
X1775914Y1023008D01*
X1775888Y1022566D01*
X1775836Y1022137D01*
X1775784Y1021734D01*
X1775732Y1021331D01*
X1775667Y1020954D01*
X1775602Y1020590D01*
X1775524Y1020252D01*
X1775446Y1019927D01*
X1775368Y1019615D01*
X1775277Y1019316D01*
X1775199Y1019043D01*
X1775108Y1018770D01*
X1775017Y1018523D01*
X1774926Y1018302D01*
X1774835Y1018081D01*
X1774757Y1017886D01*
X1774666Y1017691D01*
X1774588Y1017522D01*
X1774510Y1017379D01*
X1774432Y1017236D01*
X1774367Y1017106D01*
X1774302Y1017002D01*
X1774237Y1016911D01*
X1774198Y1016833D01*
X1774146Y1016768D01*
X1774120Y1016716D01*
X1774094Y1016677D01*
X1774068Y1016664D01*
Y1016651D01*
X1773756Y1016300D01*
X1773431Y1016001D01*
X1773080Y1015741D01*
X1772716Y1015507D01*
X1772352Y1015312D01*
X1771988Y1015156D01*
X1771637Y1015026D01*
X1771299Y1014922D01*
X1770974Y1014844D01*
X1770675Y1014779D01*
X1770402Y1014740D01*
X1770168Y1014701D01*
X1769973Y1014688D01*
X1769895D01*
X1769830Y1014675D01*
X1769713D01*
X1769323Y1014688D01*
X1768959Y1014727D01*
X1768608Y1014779D01*
X1768283Y1014857D01*
X1767971Y1014935D01*
X1767685Y1015039D01*
X1767425Y1015130D01*
X1767178Y1015247D01*
X1766970Y1015351D01*
X1766775Y1015455D01*
X1766606Y1015546D01*
X1766476Y1015624D01*
X1766372Y1015702D01*
X1766294Y1015754D01*
X1766242Y1015793D01*
X1766229Y1015806D01*
X1765982Y1016027D01*
X1765735Y1016274D01*
X1765514Y1016521D01*
X1765319Y1016781D01*
X1765124Y1017054D01*
X1764955Y1017314D01*
X1764799Y1017574D01*
X1764669Y1017834D01*
X1764539Y1018068D01*
X1764435Y1018289D01*
X1764357Y1018484D01*
X1764279Y1018666D01*
X1764227Y1018809D01*
X1764175Y1018913D01*
X1764162Y1018978D01*
X1764149Y1019004D01*
X1764019Y1019407D01*
X1763915Y1019836D01*
X1763824Y1020278D01*
X1763746Y1020733D01*
X1763616Y1021643D01*
X1763577Y1022085D01*
X1763538Y1022514D01*
X1763499Y1022904D01*
X1763486Y1023281D01*
X1763473Y1023606D01*
X1763460Y1023892D01*
Y1024022D01*
X1763447Y1024126D01*
Y1024217D01*
Y1024308D01*
Y1024360D01*
Y1024412D01*
Y1024438D01*
Y1024451D01*
Y1024971D01*
X1763460Y1025465D01*
X1763486Y1025933D01*
X1763512Y1026362D01*
X1763551Y1026765D01*
X1763590Y1027142D01*
X1763629Y1027480D01*
X1763668Y1027792D01*
X1763707Y1028065D01*
X1763746Y1028312D01*
X1763785Y1028507D01*
X1763824Y1028676D01*
X1763850Y1028819D01*
X1763876Y1028910D01*
X1763889Y1028975D01*
Y1028988D01*
X1763967Y1029300D01*
X1764058Y1029599D01*
X1764162Y1029885D01*
X1764253Y1030145D01*
X1764357Y1030405D01*
X1764461Y1030639D01*
X1764552Y1030860D01*
X1764643Y1031055D01*
X1764734Y1031237D01*
X1764825Y1031393D01*
X1764890Y1031523D01*
X1764955Y1031640D01*
X1765007Y1031731D01*
X1765046Y1031796D01*
X1765072Y1031835D01*
X1765085Y1031848D01*
X1765228Y1032056D01*
X1765384Y1032264D01*
X1765540Y1032446D01*
X1765709Y1032628D01*
X1765865Y1032784D01*
X1766021Y1032927D01*
X1766177Y1033070D01*
X1766333Y1033187D01*
X1766476Y1033291D01*
X1766593Y1033382D01*
X1766710Y1033460D01*
X1766814Y1033525D01*
X1766892Y1033577D01*
X1766957Y1033616D01*
X1766996Y1033629D01*
X1767009Y1033642D01*
X1767230Y1033746D01*
X1767451Y1033850D01*
X1767919Y1034006D01*
X1768374Y1034110D01*
X1768595Y1034149D01*
X1768790Y1034188D01*
X1768985Y1034214D01*
X1769167Y1034240D01*
X1769323Y1034253D01*
X1769453D01*
X1769557Y1034266D01*
X1769713D01*
X1770090Y1034253D01*
D02*
G37*
G36*
X1360000Y1227465D02*
X1351485D01*
Y1224176D01*
X1351498Y1223890D01*
X1351511Y1223643D01*
X1351524Y1223448D01*
X1351550Y1223292D01*
X1351563Y1223188D01*
X1351576Y1223136D01*
Y1223110D01*
X1351641Y1222889D01*
X1351719Y1222681D01*
X1351797Y1222486D01*
X1351888Y1222304D01*
X1351966Y1222161D01*
X1352031Y1222044D01*
X1352083Y1221979D01*
X1352096Y1221953D01*
X1352174Y1221849D01*
X1352252Y1221732D01*
X1352447Y1221511D01*
X1352668Y1221290D01*
X1352876Y1221095D01*
X1353071Y1220926D01*
X1353227Y1220783D01*
X1353292Y1220731D01*
X1353344Y1220692D01*
X1353370Y1220679D01*
X1353383Y1220666D01*
X1353565Y1220523D01*
X1353760Y1220380D01*
X1354176Y1220068D01*
X1354618Y1219769D01*
X1355034Y1219470D01*
X1355229Y1219340D01*
X1355424Y1219223D01*
X1355580Y1219106D01*
X1355723Y1219015D01*
X1355840Y1218937D01*
X1355931Y1218885D01*
X1355983Y1218846D01*
X1356009Y1218833D01*
X1360000Y1216285D01*
Y1213100D01*
X1354787Y1216428D01*
X1354501Y1216610D01*
X1354241Y1216805D01*
X1353981Y1217000D01*
X1353734Y1217182D01*
X1353513Y1217364D01*
X1353305Y1217533D01*
X1353110Y1217702D01*
X1352928Y1217858D01*
X1352772Y1218001D01*
X1352629Y1218131D01*
X1352512Y1218248D01*
X1352408Y1218339D01*
X1352330Y1218430D01*
X1352278Y1218482D01*
X1352239Y1218521D01*
X1352226Y1218534D01*
X1352044Y1218755D01*
X1351875Y1219002D01*
X1351719Y1219249D01*
X1351576Y1219496D01*
X1351459Y1219717D01*
X1351407Y1219821D01*
X1351355Y1219899D01*
X1351329Y1219977D01*
X1351303Y1220029D01*
X1351277Y1220055D01*
Y1220068D01*
X1351199Y1219574D01*
X1351095Y1219106D01*
X1350978Y1218664D01*
X1350835Y1218261D01*
X1350692Y1217897D01*
X1350549Y1217559D01*
X1350393Y1217260D01*
X1350250Y1216987D01*
X1350094Y1216753D01*
X1349964Y1216545D01*
X1349834Y1216376D01*
X1349717Y1216233D01*
X1349626Y1216129D01*
X1349561Y1216051D01*
X1349509Y1215999D01*
X1349496Y1215986D01*
X1349223Y1215752D01*
X1348950Y1215544D01*
X1348651Y1215375D01*
X1348365Y1215219D01*
X1348079Y1215089D01*
X1347793Y1214985D01*
X1347507Y1214894D01*
X1347247Y1214829D01*
X1347000Y1214777D01*
X1346766Y1214725D01*
X1346571Y1214699D01*
X1346389Y1214686D01*
X1346246Y1214673D01*
X1346142Y1214660D01*
X1346077D01*
X1346051D01*
X1345752Y1214673D01*
X1345466Y1214699D01*
X1345193Y1214738D01*
X1344933Y1214790D01*
X1344673Y1214842D01*
X1344439Y1214920D01*
X1344218Y1214985D01*
X1344010Y1215063D01*
X1343828Y1215141D01*
X1343659Y1215206D01*
X1343516Y1215284D01*
X1343386Y1215336D01*
X1343295Y1215388D01*
X1343230Y1215427D01*
X1343178Y1215453D01*
X1343165Y1215466D01*
X1342931Y1215622D01*
X1342710Y1215791D01*
X1342502Y1215960D01*
X1342320Y1216129D01*
X1342164Y1216311D01*
X1342008Y1216493D01*
X1341878Y1216662D01*
X1341761Y1216831D01*
X1341657Y1216987D01*
X1341566Y1217130D01*
X1341488Y1217260D01*
X1341436Y1217377D01*
X1341384Y1217468D01*
X1341358Y1217533D01*
X1341332Y1217585D01*
Y1217598D01*
X1341241Y1217858D01*
X1341163Y1218144D01*
X1341085Y1218456D01*
X1341033Y1218768D01*
X1340942Y1219418D01*
X1340903Y1219743D01*
X1340877Y1220055D01*
X1340851Y1220341D01*
X1340838Y1220614D01*
X1340825Y1220861D01*
Y1221082D01*
X1340812Y1221251D01*
Y1230000D01*
X1360000D01*
Y1227465D01*
D02*
G37*
G36*
X1347663Y1209408D02*
X1347468Y1208979D01*
X1347273Y1208563D01*
X1347078Y1208186D01*
X1346987Y1208004D01*
X1346896Y1207848D01*
X1346818Y1207705D01*
X1346753Y1207588D01*
X1346701Y1207484D01*
X1346662Y1207419D01*
X1346636Y1207367D01*
X1346623Y1207354D01*
X1346467Y1207107D01*
X1346324Y1206860D01*
X1346168Y1206639D01*
X1346025Y1206431D01*
X1345882Y1206223D01*
X1345752Y1206041D01*
X1345622Y1205872D01*
X1345505Y1205729D01*
X1345388Y1205586D01*
X1345297Y1205469D01*
X1345206Y1205365D01*
X1345141Y1205287D01*
X1345076Y1205222D01*
X1345037Y1205170D01*
X1345011Y1205144D01*
X1344998Y1205131D01*
X1360000D01*
Y1202765D01*
X1340734D01*
Y1204286D01*
X1340968Y1204416D01*
X1341202Y1204546D01*
X1341436Y1204702D01*
X1341657Y1204871D01*
X1342099Y1205222D01*
X1342294Y1205391D01*
X1342489Y1205560D01*
X1342658Y1205729D01*
X1342827Y1205872D01*
X1342957Y1206015D01*
X1343087Y1206132D01*
X1343178Y1206236D01*
X1343243Y1206314D01*
X1343295Y1206366D01*
X1343308Y1206379D01*
X1343776Y1206951D01*
X1344218Y1207549D01*
X1344413Y1207835D01*
X1344595Y1208121D01*
X1344764Y1208407D01*
X1344920Y1208667D01*
X1345063Y1208914D01*
X1345193Y1209135D01*
X1345297Y1209330D01*
X1345388Y1209499D01*
X1345466Y1209642D01*
X1345518Y1209746D01*
X1345544Y1209811D01*
X1345557Y1209837D01*
X1347832D01*
X1347663Y1209408D01*
D02*
G37*
G36*
X1305770Y1160000D02*
X1306277Y1159974D01*
X1306758Y1159922D01*
X1307226Y1159857D01*
X1307681Y1159779D01*
X1308097Y1159688D01*
X1308500Y1159597D01*
X1308864Y1159506D01*
X1309202Y1159415D01*
X1309514Y1159324D01*
X1309774Y1159233D01*
X1309995Y1159155D01*
X1310177Y1159090D01*
X1310307Y1159038D01*
X1310346Y1159025D01*
X1310385Y1159012D01*
X1310398Y1158999D01*
X1310411D01*
X1310840Y1158804D01*
X1311256Y1158583D01*
X1311633Y1158349D01*
X1311984Y1158115D01*
X1312322Y1157868D01*
X1312621Y1157621D01*
X1312894Y1157374D01*
X1313128Y1157140D01*
X1313349Y1156919D01*
X1313544Y1156711D01*
X1313700Y1156529D01*
X1313830Y1156360D01*
X1313934Y1156230D01*
X1313999Y1156139D01*
X1314051Y1156074D01*
X1314064Y1156048D01*
X1314285Y1155671D01*
X1314480Y1155268D01*
X1314649Y1154852D01*
X1314792Y1154436D01*
X1314909Y1154007D01*
X1315013Y1153591D01*
X1315104Y1153175D01*
X1315169Y1152785D01*
X1315221Y1152421D01*
X1315260Y1152070D01*
X1315286Y1151771D01*
X1315299Y1151511D01*
X1315312Y1151394D01*
Y1151290D01*
X1315325Y1151199D01*
Y1150991D01*
X1315312Y1150445D01*
X1315260Y1149912D01*
X1315169Y1149418D01*
X1315065Y1148937D01*
X1314948Y1148495D01*
X1314805Y1148066D01*
X1314662Y1147689D01*
X1314506Y1147338D01*
X1314350Y1147013D01*
X1314207Y1146740D01*
X1314064Y1146493D01*
X1313947Y1146298D01*
X1313843Y1146129D01*
X1313752Y1146012D01*
X1313700Y1145947D01*
X1313687Y1145921D01*
X1313362Y1145544D01*
X1313011Y1145206D01*
X1312634Y1144881D01*
X1312244Y1144595D01*
X1311854Y1144335D01*
X1311451Y1144101D01*
X1311061Y1143893D01*
X1310684Y1143698D01*
X1310333Y1143542D01*
X1309995Y1143412D01*
X1309696Y1143295D01*
X1309436Y1143204D01*
X1309319Y1143165D01*
X1309215Y1143139D01*
X1309124Y1143113D01*
X1309059Y1143087D01*
X1308994Y1143074D01*
X1308955Y1143061D01*
X1308929Y1143048D01*
X1308916D01*
X1308279Y1145583D01*
X1308721Y1145687D01*
X1309124Y1145817D01*
X1309514Y1145960D01*
X1309865Y1146116D01*
X1310203Y1146285D01*
X1310502Y1146454D01*
X1310775Y1146623D01*
X1311009Y1146792D01*
X1311230Y1146948D01*
X1311412Y1147104D01*
X1311568Y1147234D01*
X1311698Y1147364D01*
X1311802Y1147455D01*
X1311880Y1147533D01*
X1311919Y1147585D01*
X1311932Y1147598D01*
X1312153Y1147884D01*
X1312335Y1148170D01*
X1312504Y1148469D01*
X1312647Y1148781D01*
X1312764Y1149080D01*
X1312868Y1149379D01*
X1312946Y1149678D01*
X1313011Y1149951D01*
X1313063Y1150211D01*
X1313102Y1150445D01*
X1313128Y1150653D01*
X1313141Y1150848D01*
X1313154Y1150991D01*
X1313167Y1151108D01*
Y1151199D01*
X1313154Y1151524D01*
X1313128Y1151849D01*
X1313089Y1152148D01*
X1313024Y1152447D01*
X1312959Y1152733D01*
X1312881Y1153006D01*
X1312803Y1153253D01*
X1312712Y1153487D01*
X1312634Y1153695D01*
X1312556Y1153890D01*
X1312478Y1154059D01*
X1312413Y1154202D01*
X1312348Y1154306D01*
X1312309Y1154397D01*
X1312283Y1154449D01*
X1312270Y1154462D01*
X1312088Y1154735D01*
X1311893Y1154995D01*
X1311685Y1155229D01*
X1311464Y1155450D01*
X1311230Y1155645D01*
X1311009Y1155827D01*
X1310775Y1155996D01*
X1310567Y1156139D01*
X1310359Y1156269D01*
X1310164Y1156373D01*
X1309995Y1156477D01*
X1309839Y1156555D01*
X1309709Y1156607D01*
X1309618Y1156646D01*
X1309566Y1156672D01*
X1309540Y1156685D01*
X1309189Y1156802D01*
X1308825Y1156919D01*
X1308461Y1157010D01*
X1308097Y1157088D01*
X1307382Y1157218D01*
X1307031Y1157257D01*
X1306706Y1157296D01*
X1306407Y1157322D01*
X1306121Y1157348D01*
X1305874Y1157361D01*
X1305666Y1157374D01*
X1305484Y1157387D01*
X1305354D01*
X1305315D01*
X1305276D01*
X1305263D01*
X1305250D01*
X1304899Y1157374D01*
X1304548Y1157361D01*
X1303872Y1157296D01*
X1303560Y1157244D01*
X1303248Y1157192D01*
X1302962Y1157140D01*
X1302702Y1157088D01*
X1302455Y1157036D01*
X1302234Y1156984D01*
X1302039Y1156932D01*
X1301883Y1156880D01*
X1301753Y1156841D01*
X1301649Y1156815D01*
X1301597Y1156789D01*
X1301571D01*
X1301246Y1156672D01*
X1300934Y1156529D01*
X1300648Y1156373D01*
X1300375Y1156217D01*
X1300115Y1156035D01*
X1299881Y1155866D01*
X1299673Y1155697D01*
X1299478Y1155528D01*
X1299309Y1155359D01*
X1299153Y1155203D01*
X1299023Y1155073D01*
X1298919Y1154943D01*
X1298828Y1154852D01*
X1298776Y1154774D01*
X1298737Y1154722D01*
X1298724Y1154709D01*
X1298542Y1154423D01*
X1298373Y1154124D01*
X1298230Y1153812D01*
X1298113Y1153500D01*
X1298009Y1153188D01*
X1297918Y1152876D01*
X1297853Y1152577D01*
X1297788Y1152291D01*
X1297749Y1152031D01*
X1297710Y1151784D01*
X1297684Y1151563D01*
X1297671Y1151368D01*
Y1151212D01*
X1297658Y1151095D01*
Y1151004D01*
X1297671Y1150653D01*
X1297697Y1150315D01*
X1297749Y1149990D01*
X1297814Y1149691D01*
X1297879Y1149418D01*
X1297957Y1149145D01*
X1298048Y1148911D01*
X1298139Y1148690D01*
X1298230Y1148495D01*
X1298321Y1148313D01*
X1298399Y1148170D01*
X1298464Y1148040D01*
X1298529Y1147949D01*
X1298581Y1147871D01*
X1298607Y1147832D01*
X1298620Y1147819D01*
X1298815Y1147585D01*
X1299023Y1147364D01*
X1299257Y1147169D01*
X1299491Y1146974D01*
X1299751Y1146805D01*
X1299998Y1146636D01*
X1300258Y1146493D01*
X1300505Y1146363D01*
X1300739Y1146246D01*
X1300960Y1146155D01*
X1301155Y1146064D01*
X1301337Y1145999D01*
X1301480Y1145934D01*
X1301584Y1145895D01*
X1301649Y1145882D01*
X1301675Y1145869D01*
X1301077Y1143373D01*
X1300596Y1143529D01*
X1300141Y1143711D01*
X1299712Y1143919D01*
X1299309Y1144127D01*
X1298945Y1144348D01*
X1298607Y1144582D01*
X1298295Y1144816D01*
X1298022Y1145037D01*
X1297775Y1145258D01*
X1297554Y1145453D01*
X1297372Y1145635D01*
X1297229Y1145791D01*
X1297112Y1145934D01*
X1297021Y1146025D01*
X1296969Y1146090D01*
X1296956Y1146116D01*
X1296696Y1146493D01*
X1296475Y1146883D01*
X1296280Y1147286D01*
X1296111Y1147702D01*
X1295968Y1148105D01*
X1295851Y1148508D01*
X1295747Y1148898D01*
X1295669Y1149275D01*
X1295604Y1149613D01*
X1295565Y1149938D01*
X1295526Y1150224D01*
X1295513Y1150471D01*
X1295500Y1150679D01*
X1295487Y1150757D01*
Y1150952D01*
X1295500Y1151420D01*
X1295539Y1151875D01*
X1295591Y1152317D01*
X1295669Y1152746D01*
X1295760Y1153149D01*
X1295851Y1153539D01*
X1295968Y1153903D01*
X1296072Y1154228D01*
X1296176Y1154527D01*
X1296280Y1154800D01*
X1296384Y1155034D01*
X1296475Y1155229D01*
X1296553Y1155398D01*
X1296605Y1155515D01*
X1296644Y1155580D01*
X1296657Y1155606D01*
X1296891Y1155996D01*
X1297138Y1156360D01*
X1297398Y1156698D01*
X1297671Y1157010D01*
X1297957Y1157296D01*
X1298243Y1157569D01*
X1298516Y1157816D01*
X1298789Y1158037D01*
X1299049Y1158232D01*
X1299283Y1158401D01*
X1299491Y1158544D01*
X1299686Y1158661D01*
X1299842Y1158752D01*
X1299946Y1158817D01*
X1300024Y1158856D01*
X1300037Y1158869D01*
X1300050D01*
X1300479Y1159064D01*
X1300908Y1159246D01*
X1301350Y1159402D01*
X1301805Y1159532D01*
X1302247Y1159636D01*
X1302676Y1159727D01*
X1303092Y1159805D01*
X1303495Y1159870D01*
X1303859Y1159922D01*
X1304197Y1159948D01*
X1304496Y1159974D01*
X1304756Y1160000D01*
X1304873D01*
X1304977D01*
X1305055Y1160013D01*
X1305133D01*
X1305185D01*
X1305224D01*
X1305250D01*
X1305263D01*
X1305770Y1160000D01*
D02*
G37*
G36*
X1302741Y1140864D02*
X1303222Y1140812D01*
X1303690Y1140721D01*
X1304119Y1140617D01*
X1304522Y1140500D01*
X1304899Y1140357D01*
X1305237Y1140201D01*
X1305549Y1140045D01*
X1305835Y1139902D01*
X1306069Y1139746D01*
X1306277Y1139603D01*
X1306459Y1139486D01*
X1306589Y1139382D01*
X1306693Y1139291D01*
X1306745Y1139239D01*
X1306771Y1139226D01*
X1307070Y1138914D01*
X1307343Y1138576D01*
X1307577Y1138238D01*
X1307772Y1137900D01*
X1307941Y1137562D01*
X1308071Y1137224D01*
X1308188Y1136899D01*
X1308279Y1136587D01*
X1308357Y1136301D01*
X1308409Y1136041D01*
X1308448Y1135794D01*
X1308474Y1135599D01*
X1308487Y1135430D01*
X1308500Y1135300D01*
Y1135196D01*
X1308487Y1134936D01*
X1308474Y1134676D01*
X1308396Y1134182D01*
X1308331Y1133948D01*
X1308279Y1133727D01*
X1308214Y1133519D01*
X1308149Y1133337D01*
X1308084Y1133155D01*
X1308019Y1133012D01*
X1307954Y1132869D01*
X1307902Y1132752D01*
X1307863Y1132661D01*
X1307824Y1132596D01*
X1307811Y1132557D01*
X1307798Y1132544D01*
X1307512Y1132115D01*
X1307369Y1131907D01*
X1307213Y1131725D01*
X1307070Y1131556D01*
X1306914Y1131400D01*
X1306771Y1131257D01*
X1306628Y1131127D01*
X1306485Y1131010D01*
X1306368Y1130906D01*
X1306264Y1130815D01*
X1306160Y1130750D01*
X1306082Y1130698D01*
X1306030Y1130646D01*
X1305991Y1130633D01*
X1305978Y1130620D01*
X1306082D01*
X1306186Y1130607D01*
X1306264D01*
X1306329D01*
X1306381D01*
X1306420D01*
X1306433D01*
X1306446D01*
X1306992Y1130620D01*
X1307512Y1130659D01*
X1307772Y1130685D01*
X1308006Y1130724D01*
X1308227Y1130750D01*
X1308435Y1130776D01*
X1308630Y1130815D01*
X1308812Y1130841D01*
X1308955Y1130880D01*
X1309085Y1130906D01*
X1309189Y1130919D01*
X1309267Y1130945D01*
X1309319Y1130958D01*
X1309332D01*
X1309592Y1131023D01*
X1309826Y1131101D01*
X1310060Y1131166D01*
X1310268Y1131244D01*
X1310476Y1131309D01*
X1310658Y1131387D01*
X1310827Y1131452D01*
X1310970Y1131530D01*
X1311113Y1131582D01*
X1311230Y1131647D01*
X1311334Y1131699D01*
X1311412Y1131738D01*
X1311477Y1131777D01*
X1311529Y1131803D01*
X1311555Y1131829D01*
X1311568D01*
X1311867Y1132037D01*
X1312127Y1132258D01*
X1312361Y1132479D01*
X1312543Y1132687D01*
X1312699Y1132882D01*
X1312816Y1133025D01*
X1312855Y1133090D01*
X1312881Y1133129D01*
X1312907Y1133155D01*
Y1133168D01*
X1313076Y1133480D01*
X1313193Y1133818D01*
X1313284Y1134130D01*
X1313336Y1134429D01*
X1313362Y1134572D01*
X1313375Y1134689D01*
X1313388Y1134806D01*
Y1134897D01*
X1313401Y1134975D01*
Y1135079D01*
X1313388Y1135313D01*
X1313375Y1135534D01*
X1313284Y1135937D01*
X1313232Y1136132D01*
X1313180Y1136301D01*
X1313115Y1136457D01*
X1313037Y1136600D01*
X1312972Y1136730D01*
X1312907Y1136834D01*
X1312855Y1136938D01*
X1312803Y1137016D01*
X1312751Y1137081D01*
X1312712Y1137120D01*
X1312699Y1137146D01*
X1312686Y1137159D01*
X1312543Y1137302D01*
X1312374Y1137432D01*
X1312205Y1137562D01*
X1312010Y1137666D01*
X1311633Y1137861D01*
X1311243Y1138017D01*
X1311074Y1138069D01*
X1310905Y1138121D01*
X1310749Y1138173D01*
X1310619Y1138199D01*
X1310515Y1138225D01*
X1310424Y1138251D01*
X1310372Y1138264D01*
X1310359D01*
X1310567Y1140526D01*
X1310983Y1140461D01*
X1311373Y1140370D01*
X1311724Y1140266D01*
X1312075Y1140136D01*
X1312387Y1140006D01*
X1312673Y1139863D01*
X1312933Y1139707D01*
X1313167Y1139564D01*
X1313375Y1139421D01*
X1313557Y1139278D01*
X1313713Y1139148D01*
X1313843Y1139031D01*
X1313947Y1138940D01*
X1314025Y1138875D01*
X1314064Y1138823D01*
X1314077Y1138810D01*
X1314298Y1138537D01*
X1314493Y1138238D01*
X1314649Y1137939D01*
X1314792Y1137627D01*
X1314922Y1137328D01*
X1315026Y1137016D01*
X1315104Y1136717D01*
X1315169Y1136431D01*
X1315221Y1136171D01*
X1315260Y1135924D01*
X1315286Y1135690D01*
X1315299Y1135508D01*
X1315312Y1135352D01*
X1315325Y1135235D01*
Y1135131D01*
X1315312Y1134741D01*
X1315273Y1134364D01*
X1315221Y1134000D01*
X1315143Y1133662D01*
X1315065Y1133337D01*
X1314961Y1133025D01*
X1314870Y1132752D01*
X1314753Y1132492D01*
X1314649Y1132258D01*
X1314545Y1132050D01*
X1314454Y1131868D01*
X1314376Y1131712D01*
X1314298Y1131595D01*
X1314246Y1131504D01*
X1314207Y1131452D01*
X1314194Y1131439D01*
X1313973Y1131153D01*
X1313726Y1130880D01*
X1313466Y1130633D01*
X1313193Y1130399D01*
X1312920Y1130178D01*
X1312647Y1129983D01*
X1312374Y1129814D01*
X1312101Y1129658D01*
X1311854Y1129515D01*
X1311620Y1129398D01*
X1311412Y1129294D01*
X1311230Y1129203D01*
X1311087Y1129138D01*
X1310970Y1129099D01*
X1310905Y1129073D01*
X1310879Y1129060D01*
X1310450Y1128917D01*
X1309995Y1128800D01*
X1309527Y1128683D01*
X1309046Y1128592D01*
X1308552Y1128514D01*
X1308058Y1128449D01*
X1307590Y1128397D01*
X1307122Y1128358D01*
X1306693Y1128319D01*
X1306290Y1128293D01*
X1305939Y1128280D01*
X1305770Y1128267D01*
X1305627D01*
X1305484D01*
X1305367Y1128254D01*
X1305263D01*
X1305172D01*
X1305107D01*
X1305055D01*
X1305029D01*
X1305016D01*
X1304366Y1128267D01*
X1303768Y1128293D01*
X1303209Y1128332D01*
X1302676Y1128384D01*
X1302195Y1128436D01*
X1301753Y1128514D01*
X1301350Y1128579D01*
X1300986Y1128657D01*
X1300674Y1128735D01*
X1300401Y1128800D01*
X1300154Y1128878D01*
X1299972Y1128930D01*
X1299816Y1128982D01*
X1299712Y1129021D01*
X1299647Y1129047D01*
X1299621Y1129060D01*
X1299283Y1129216D01*
X1298958Y1129398D01*
X1298659Y1129580D01*
X1298386Y1129775D01*
X1298126Y1129970D01*
X1297892Y1130165D01*
X1297671Y1130360D01*
X1297476Y1130542D01*
X1297307Y1130724D01*
X1297164Y1130893D01*
X1297034Y1131036D01*
X1296930Y1131166D01*
X1296852Y1131270D01*
X1296800Y1131361D01*
X1296761Y1131413D01*
X1296748Y1131426D01*
X1296566Y1131725D01*
X1296410Y1132011D01*
X1296280Y1132310D01*
X1296163Y1132609D01*
X1296059Y1132908D01*
X1295981Y1133181D01*
X1295916Y1133454D01*
X1295864Y1133714D01*
X1295825Y1133948D01*
X1295786Y1134169D01*
X1295760Y1134364D01*
X1295747Y1134533D01*
X1295734Y1134663D01*
Y1134845D01*
X1295760Y1135313D01*
X1295812Y1135768D01*
X1295903Y1136210D01*
X1296007Y1136613D01*
X1296150Y1136990D01*
X1296293Y1137341D01*
X1296462Y1137679D01*
X1296618Y1137978D01*
X1296787Y1138238D01*
X1296956Y1138472D01*
X1297099Y1138680D01*
X1297242Y1138849D01*
X1297346Y1138979D01*
X1297437Y1139083D01*
X1297489Y1139135D01*
X1297515Y1139161D01*
X1297866Y1139460D01*
X1298230Y1139733D01*
X1298607Y1139954D01*
X1298997Y1140149D01*
X1299400Y1140318D01*
X1299790Y1140461D01*
X1300167Y1140565D01*
X1300531Y1140656D01*
X1300882Y1140734D01*
X1301207Y1140786D01*
X1301493Y1140825D01*
X1301740Y1140851D01*
X1301935Y1140864D01*
X1302026D01*
X1302091Y1140877D01*
X1302143D01*
X1302182D01*
X1302208D01*
X1302221D01*
X1302741Y1140864D01*
D02*
G37*
G36*
X1305770Y1310000D02*
X1306277Y1309974D01*
X1306758Y1309922D01*
X1307226Y1309857D01*
X1307681Y1309779D01*
X1308097Y1309688D01*
X1308500Y1309597D01*
X1308864Y1309506D01*
X1309202Y1309415D01*
X1309514Y1309324D01*
X1309774Y1309233D01*
X1309995Y1309155D01*
X1310177Y1309090D01*
X1310307Y1309038D01*
X1310346Y1309025D01*
X1310385Y1309012D01*
X1310398Y1308999D01*
X1310411D01*
X1310840Y1308804D01*
X1311256Y1308583D01*
X1311633Y1308349D01*
X1311984Y1308115D01*
X1312322Y1307868D01*
X1312621Y1307621D01*
X1312894Y1307374D01*
X1313128Y1307140D01*
X1313349Y1306919D01*
X1313544Y1306711D01*
X1313700Y1306529D01*
X1313830Y1306360D01*
X1313934Y1306230D01*
X1313999Y1306139D01*
X1314051Y1306074D01*
X1314064Y1306048D01*
X1314285Y1305671D01*
X1314480Y1305268D01*
X1314649Y1304852D01*
X1314792Y1304436D01*
X1314909Y1304007D01*
X1315013Y1303591D01*
X1315104Y1303175D01*
X1315169Y1302785D01*
X1315221Y1302421D01*
X1315260Y1302070D01*
X1315286Y1301771D01*
X1315299Y1301511D01*
X1315312Y1301394D01*
Y1301290D01*
X1315325Y1301199D01*
Y1300991D01*
X1315312Y1300445D01*
X1315260Y1299912D01*
X1315169Y1299418D01*
X1315065Y1298937D01*
X1314948Y1298495D01*
X1314805Y1298066D01*
X1314662Y1297689D01*
X1314506Y1297338D01*
X1314350Y1297013D01*
X1314207Y1296740D01*
X1314064Y1296493D01*
X1313947Y1296298D01*
X1313843Y1296129D01*
X1313752Y1296012D01*
X1313700Y1295947D01*
X1313687Y1295921D01*
X1313362Y1295544D01*
X1313011Y1295206D01*
X1312634Y1294881D01*
X1312244Y1294595D01*
X1311854Y1294335D01*
X1311451Y1294101D01*
X1311061Y1293893D01*
X1310684Y1293698D01*
X1310333Y1293542D01*
X1309995Y1293412D01*
X1309696Y1293295D01*
X1309436Y1293204D01*
X1309319Y1293165D01*
X1309215Y1293139D01*
X1309124Y1293113D01*
X1309059Y1293087D01*
X1308994Y1293074D01*
X1308955Y1293061D01*
X1308929Y1293048D01*
X1308916D01*
X1308279Y1295583D01*
X1308721Y1295687D01*
X1309124Y1295817D01*
X1309514Y1295960D01*
X1309865Y1296116D01*
X1310203Y1296285D01*
X1310502Y1296454D01*
X1310775Y1296623D01*
X1311009Y1296792D01*
X1311230Y1296948D01*
X1311412Y1297104D01*
X1311568Y1297234D01*
X1311698Y1297364D01*
X1311802Y1297455D01*
X1311880Y1297533D01*
X1311919Y1297585D01*
X1311932Y1297598D01*
X1312153Y1297884D01*
X1312335Y1298170D01*
X1312504Y1298469D01*
X1312647Y1298781D01*
X1312764Y1299080D01*
X1312868Y1299379D01*
X1312946Y1299678D01*
X1313011Y1299951D01*
X1313063Y1300211D01*
X1313102Y1300445D01*
X1313128Y1300653D01*
X1313141Y1300848D01*
X1313154Y1300991D01*
X1313167Y1301108D01*
Y1301199D01*
X1313154Y1301524D01*
X1313128Y1301849D01*
X1313089Y1302148D01*
X1313024Y1302447D01*
X1312959Y1302733D01*
X1312881Y1303006D01*
X1312803Y1303253D01*
X1312712Y1303487D01*
X1312634Y1303695D01*
X1312556Y1303890D01*
X1312478Y1304059D01*
X1312413Y1304202D01*
X1312348Y1304306D01*
X1312309Y1304397D01*
X1312283Y1304449D01*
X1312270Y1304462D01*
X1312088Y1304735D01*
X1311893Y1304995D01*
X1311685Y1305229D01*
X1311464Y1305450D01*
X1311230Y1305645D01*
X1311009Y1305827D01*
X1310775Y1305996D01*
X1310567Y1306139D01*
X1310359Y1306269D01*
X1310164Y1306373D01*
X1309995Y1306477D01*
X1309839Y1306555D01*
X1309709Y1306607D01*
X1309618Y1306646D01*
X1309566Y1306672D01*
X1309540Y1306685D01*
X1309189Y1306802D01*
X1308825Y1306919D01*
X1308461Y1307010D01*
X1308097Y1307088D01*
X1307382Y1307218D01*
X1307031Y1307257D01*
X1306706Y1307296D01*
X1306407Y1307322D01*
X1306121Y1307348D01*
X1305874Y1307361D01*
X1305666Y1307374D01*
X1305484Y1307387D01*
X1305354D01*
X1305315D01*
X1305276D01*
X1305263D01*
X1305250D01*
X1304899Y1307374D01*
X1304548Y1307361D01*
X1303872Y1307296D01*
X1303560Y1307244D01*
X1303248Y1307192D01*
X1302962Y1307140D01*
X1302702Y1307088D01*
X1302455Y1307036D01*
X1302234Y1306984D01*
X1302039Y1306932D01*
X1301883Y1306880D01*
X1301753Y1306841D01*
X1301649Y1306815D01*
X1301597Y1306789D01*
X1301571D01*
X1301246Y1306672D01*
X1300934Y1306529D01*
X1300648Y1306373D01*
X1300375Y1306217D01*
X1300115Y1306035D01*
X1299881Y1305866D01*
X1299673Y1305697D01*
X1299478Y1305528D01*
X1299309Y1305359D01*
X1299153Y1305203D01*
X1299023Y1305073D01*
X1298919Y1304943D01*
X1298828Y1304852D01*
X1298776Y1304774D01*
X1298737Y1304722D01*
X1298724Y1304709D01*
X1298542Y1304423D01*
X1298373Y1304124D01*
X1298230Y1303812D01*
X1298113Y1303500D01*
X1298009Y1303188D01*
X1297918Y1302876D01*
X1297853Y1302577D01*
X1297788Y1302291D01*
X1297749Y1302031D01*
X1297710Y1301784D01*
X1297684Y1301563D01*
X1297671Y1301368D01*
Y1301212D01*
X1297658Y1301095D01*
Y1301004D01*
X1297671Y1300653D01*
X1297697Y1300315D01*
X1297749Y1299990D01*
X1297814Y1299691D01*
X1297879Y1299418D01*
X1297957Y1299145D01*
X1298048Y1298911D01*
X1298139Y1298690D01*
X1298230Y1298495D01*
X1298321Y1298313D01*
X1298399Y1298170D01*
X1298464Y1298040D01*
X1298529Y1297949D01*
X1298581Y1297871D01*
X1298607Y1297832D01*
X1298620Y1297819D01*
X1298815Y1297585D01*
X1299023Y1297364D01*
X1299257Y1297169D01*
X1299491Y1296974D01*
X1299751Y1296805D01*
X1299998Y1296636D01*
X1300258Y1296493D01*
X1300505Y1296363D01*
X1300739Y1296246D01*
X1300960Y1296155D01*
X1301155Y1296064D01*
X1301337Y1295999D01*
X1301480Y1295934D01*
X1301584Y1295895D01*
X1301649Y1295882D01*
X1301675Y1295869D01*
X1301077Y1293373D01*
X1300596Y1293529D01*
X1300141Y1293711D01*
X1299712Y1293919D01*
X1299309Y1294127D01*
X1298945Y1294348D01*
X1298607Y1294582D01*
X1298295Y1294816D01*
X1298022Y1295037D01*
X1297775Y1295258D01*
X1297554Y1295453D01*
X1297372Y1295635D01*
X1297229Y1295791D01*
X1297112Y1295934D01*
X1297021Y1296025D01*
X1296969Y1296090D01*
X1296956Y1296116D01*
X1296696Y1296493D01*
X1296475Y1296883D01*
X1296280Y1297286D01*
X1296111Y1297702D01*
X1295968Y1298105D01*
X1295851Y1298508D01*
X1295747Y1298898D01*
X1295669Y1299275D01*
X1295604Y1299613D01*
X1295565Y1299938D01*
X1295526Y1300224D01*
X1295513Y1300471D01*
X1295500Y1300679D01*
X1295487Y1300757D01*
Y1300952D01*
X1295500Y1301420D01*
X1295539Y1301875D01*
X1295591Y1302317D01*
X1295669Y1302746D01*
X1295760Y1303149D01*
X1295851Y1303539D01*
X1295968Y1303903D01*
X1296072Y1304228D01*
X1296176Y1304527D01*
X1296280Y1304800D01*
X1296384Y1305034D01*
X1296475Y1305229D01*
X1296553Y1305398D01*
X1296605Y1305515D01*
X1296644Y1305580D01*
X1296657Y1305606D01*
X1296891Y1305996D01*
X1297138Y1306360D01*
X1297398Y1306698D01*
X1297671Y1307010D01*
X1297957Y1307296D01*
X1298243Y1307569D01*
X1298516Y1307816D01*
X1298789Y1308037D01*
X1299049Y1308232D01*
X1299283Y1308401D01*
X1299491Y1308544D01*
X1299686Y1308661D01*
X1299842Y1308752D01*
X1299946Y1308817D01*
X1300024Y1308856D01*
X1300037Y1308869D01*
X1300050D01*
X1300479Y1309064D01*
X1300908Y1309246D01*
X1301350Y1309402D01*
X1301805Y1309532D01*
X1302247Y1309636D01*
X1302676Y1309727D01*
X1303092Y1309805D01*
X1303495Y1309870D01*
X1303859Y1309922D01*
X1304197Y1309948D01*
X1304496Y1309974D01*
X1304756Y1310000D01*
X1304873D01*
X1304977D01*
X1305055Y1310013D01*
X1305133D01*
X1305185D01*
X1305224D01*
X1305250D01*
X1305263D01*
X1305770Y1310000D01*
D02*
G37*
G36*
X1309917Y1290877D02*
X1310359Y1290825D01*
X1310775Y1290747D01*
X1311178Y1290630D01*
X1311542Y1290500D01*
X1311893Y1290357D01*
X1312205Y1290188D01*
X1312491Y1290032D01*
X1312751Y1289863D01*
X1312985Y1289707D01*
X1313180Y1289564D01*
X1313349Y1289434D01*
X1313479Y1289317D01*
X1313570Y1289239D01*
X1313622Y1289174D01*
X1313648Y1289161D01*
X1313947Y1288823D01*
X1314207Y1288459D01*
X1314428Y1288095D01*
X1314623Y1287705D01*
X1314779Y1287328D01*
X1314909Y1286951D01*
X1315026Y1286574D01*
X1315117Y1286223D01*
X1315182Y1285885D01*
X1315234Y1285573D01*
X1315273Y1285300D01*
X1315299Y1285053D01*
X1315312Y1284858D01*
Y1284780D01*
X1315325Y1284715D01*
Y1284585D01*
X1315312Y1284065D01*
X1315247Y1283571D01*
X1315169Y1283103D01*
X1315065Y1282661D01*
X1314935Y1282258D01*
X1314792Y1281881D01*
X1314649Y1281530D01*
X1314493Y1281218D01*
X1314337Y1280945D01*
X1314181Y1280698D01*
X1314051Y1280490D01*
X1313921Y1280308D01*
X1313817Y1280178D01*
X1313726Y1280074D01*
X1313674Y1280022D01*
X1313661Y1279996D01*
X1313336Y1279684D01*
X1312998Y1279424D01*
X1312660Y1279190D01*
X1312309Y1278982D01*
X1311958Y1278826D01*
X1311620Y1278683D01*
X1311282Y1278566D01*
X1310970Y1278475D01*
X1310671Y1278397D01*
X1310398Y1278345D01*
X1310151Y1278306D01*
X1309943Y1278280D01*
X1309761Y1278267D01*
X1309631Y1278254D01*
X1309592D01*
X1309553D01*
X1309540D01*
X1309527D01*
X1309202Y1278267D01*
X1308877Y1278293D01*
X1308578Y1278345D01*
X1308292Y1278397D01*
X1308032Y1278462D01*
X1307772Y1278540D01*
X1307538Y1278631D01*
X1307330Y1278709D01*
X1307135Y1278800D01*
X1306966Y1278891D01*
X1306810Y1278969D01*
X1306693Y1279034D01*
X1306589Y1279086D01*
X1306511Y1279138D01*
X1306472Y1279164D01*
X1306459Y1279177D01*
X1306225Y1279359D01*
X1306004Y1279554D01*
X1305809Y1279762D01*
X1305627Y1279983D01*
X1305458Y1280204D01*
X1305302Y1280438D01*
X1305172Y1280659D01*
X1305042Y1280867D01*
X1304938Y1281075D01*
X1304847Y1281257D01*
X1304769Y1281426D01*
X1304704Y1281582D01*
X1304665Y1281699D01*
X1304626Y1281790D01*
X1304600Y1281842D01*
Y1281868D01*
X1304496Y1281608D01*
X1304379Y1281361D01*
X1304262Y1281140D01*
X1304132Y1280932D01*
X1304015Y1280737D01*
X1303885Y1280568D01*
X1303755Y1280412D01*
X1303638Y1280269D01*
X1303521Y1280152D01*
X1303417Y1280048D01*
X1303326Y1279957D01*
X1303235Y1279879D01*
X1303170Y1279827D01*
X1303118Y1279775D01*
X1303092Y1279762D01*
X1303079Y1279749D01*
X1302884Y1279619D01*
X1302689Y1279515D01*
X1302494Y1279424D01*
X1302299Y1279346D01*
X1301909Y1279216D01*
X1301545Y1279138D01*
X1301376Y1279099D01*
X1301233Y1279086D01*
X1301090Y1279073D01*
X1300973Y1279060D01*
X1300882Y1279047D01*
X1300817D01*
X1300765D01*
X1300752D01*
X1300362Y1279060D01*
X1299998Y1279112D01*
X1299647Y1279190D01*
X1299309Y1279281D01*
X1298997Y1279398D01*
X1298711Y1279528D01*
X1298438Y1279671D01*
X1298191Y1279814D01*
X1297970Y1279957D01*
X1297775Y1280100D01*
X1297606Y1280230D01*
X1297463Y1280347D01*
X1297346Y1280438D01*
X1297268Y1280516D01*
X1297216Y1280568D01*
X1297203Y1280581D01*
X1296943Y1280880D01*
X1296722Y1281192D01*
X1296527Y1281517D01*
X1296358Y1281855D01*
X1296215Y1282193D01*
X1296098Y1282531D01*
X1295994Y1282856D01*
X1295916Y1283168D01*
X1295851Y1283467D01*
X1295812Y1283740D01*
X1295773Y1283987D01*
X1295760Y1284208D01*
X1295747Y1284377D01*
X1295734Y1284507D01*
Y1284624D01*
X1295747Y1285079D01*
X1295799Y1285508D01*
X1295864Y1285924D01*
X1295955Y1286301D01*
X1296059Y1286652D01*
X1296189Y1286990D01*
X1296319Y1287289D01*
X1296449Y1287562D01*
X1296579Y1287809D01*
X1296709Y1288017D01*
X1296826Y1288199D01*
X1296943Y1288355D01*
X1297034Y1288472D01*
X1297099Y1288563D01*
X1297151Y1288615D01*
X1297164Y1288628D01*
X1297437Y1288888D01*
X1297723Y1289122D01*
X1298022Y1289330D01*
X1298321Y1289499D01*
X1298620Y1289642D01*
X1298906Y1289772D01*
X1299192Y1289863D01*
X1299465Y1289941D01*
X1299712Y1290006D01*
X1299946Y1290058D01*
X1300154Y1290084D01*
X1300336Y1290110D01*
X1300479Y1290123D01*
X1300596Y1290136D01*
X1300661D01*
X1300687D01*
X1300947Y1290123D01*
X1301194Y1290110D01*
X1301649Y1290032D01*
X1301857Y1289967D01*
X1302052Y1289915D01*
X1302234Y1289850D01*
X1302403Y1289785D01*
X1302559Y1289720D01*
X1302689Y1289655D01*
X1302806Y1289590D01*
X1302897Y1289538D01*
X1302975Y1289499D01*
X1303027Y1289460D01*
X1303066Y1289447D01*
X1303079Y1289434D01*
X1303261Y1289291D01*
X1303430Y1289135D01*
X1303729Y1288797D01*
X1303989Y1288433D01*
X1304210Y1288069D01*
X1304301Y1287913D01*
X1304379Y1287757D01*
X1304444Y1287614D01*
X1304496Y1287484D01*
X1304548Y1287393D01*
X1304574Y1287315D01*
X1304587Y1287263D01*
X1304600Y1287250D01*
X1304691Y1287575D01*
X1304808Y1287874D01*
X1304925Y1288147D01*
X1305068Y1288407D01*
X1305198Y1288654D01*
X1305341Y1288875D01*
X1305497Y1289083D01*
X1305640Y1289265D01*
X1305770Y1289421D01*
X1305900Y1289564D01*
X1306017Y1289681D01*
X1306121Y1289772D01*
X1306212Y1289850D01*
X1306277Y1289915D01*
X1306316Y1289941D01*
X1306329Y1289954D01*
X1306576Y1290123D01*
X1306823Y1290266D01*
X1307083Y1290396D01*
X1307356Y1290500D01*
X1307616Y1290591D01*
X1307876Y1290669D01*
X1308123Y1290734D01*
X1308370Y1290786D01*
X1308591Y1290825D01*
X1308799Y1290851D01*
X1308994Y1290877D01*
X1309150Y1290890D01*
X1309280D01*
X1309384Y1290903D01*
X1309436D01*
X1309462D01*
X1309917Y1290877D01*
D02*
G37*
G36*
X1115000Y1231958D02*
X1108318Y1227135D01*
X1108240Y1227083D01*
X1108149Y1227018D01*
X1107928Y1226875D01*
X1107694Y1226732D01*
X1107447Y1226576D01*
X1107226Y1226446D01*
X1107135Y1226381D01*
X1107044Y1226329D01*
X1106979Y1226290D01*
X1106927Y1226251D01*
X1106888Y1226238D01*
X1106875Y1226225D01*
X1107135Y1226069D01*
X1107369Y1225913D01*
X1107590Y1225770D01*
X1107785Y1225640D01*
X1107941Y1225536D01*
X1108058Y1225445D01*
X1108136Y1225393D01*
X1108149Y1225380D01*
X1108162D01*
X1115000Y1220557D01*
Y1217411D01*
X1104860Y1224678D01*
X1095812Y1217944D01*
Y1220700D01*
X1100908Y1224561D01*
X1101324Y1224873D01*
X1101727Y1225172D01*
X1102104Y1225419D01*
X1102273Y1225536D01*
X1102429Y1225653D01*
X1102572Y1225744D01*
X1102702Y1225835D01*
X1102819Y1225900D01*
X1102910Y1225965D01*
X1102988Y1226017D01*
X1103040Y1226056D01*
X1103079Y1226069D01*
X1103092Y1226082D01*
X1102936Y1226173D01*
X1102754Y1226277D01*
X1102377Y1226511D01*
X1101987Y1226771D01*
X1101610Y1227031D01*
X1101428Y1227148D01*
X1101272Y1227265D01*
X1101116Y1227356D01*
X1100986Y1227447D01*
X1100882Y1227525D01*
X1100804Y1227577D01*
X1100752Y1227616D01*
X1100739Y1227629D01*
X1095812Y1231100D01*
Y1234129D01*
X1105003Y1227590D01*
X1115000Y1235000D01*
Y1231958D01*
D02*
G37*
G36*
X1102663Y1213901D02*
X1102468Y1213472D01*
X1102273Y1213056D01*
X1102078Y1212679D01*
X1101987Y1212497D01*
X1101896Y1212341D01*
X1101818Y1212198D01*
X1101753Y1212081D01*
X1101701Y1211977D01*
X1101662Y1211912D01*
X1101636Y1211860D01*
X1101623Y1211847D01*
X1101467Y1211600D01*
X1101324Y1211353D01*
X1101168Y1211132D01*
X1101025Y1210924D01*
X1100882Y1210716D01*
X1100752Y1210534D01*
X1100622Y1210365D01*
X1100505Y1210222D01*
X1100388Y1210079D01*
X1100297Y1209962D01*
X1100206Y1209858D01*
X1100141Y1209780D01*
X1100076Y1209715D01*
X1100037Y1209663D01*
X1100011Y1209637D01*
X1099998Y1209624D01*
X1115000D01*
Y1207258D01*
X1095734D01*
Y1208779D01*
X1095968Y1208909D01*
X1096202Y1209039D01*
X1096436Y1209195D01*
X1096657Y1209364D01*
X1097099Y1209715D01*
X1097294Y1209884D01*
X1097489Y1210053D01*
X1097658Y1210222D01*
X1097827Y1210365D01*
X1097957Y1210508D01*
X1098087Y1210625D01*
X1098178Y1210729D01*
X1098243Y1210807D01*
X1098295Y1210859D01*
X1098308Y1210872D01*
X1098776Y1211444D01*
X1099218Y1212042D01*
X1099413Y1212328D01*
X1099595Y1212614D01*
X1099764Y1212900D01*
X1099920Y1213160D01*
X1100063Y1213407D01*
X1100193Y1213628D01*
X1100297Y1213823D01*
X1100388Y1213992D01*
X1100466Y1214135D01*
X1100518Y1214239D01*
X1100544Y1214304D01*
X1100557Y1214330D01*
X1102832D01*
X1102663Y1213901D01*
D02*
G37*
G36*
X1525770Y1140000D02*
X1526277Y1139974D01*
X1526758Y1139922D01*
X1527226Y1139857D01*
X1527681Y1139779D01*
X1528097Y1139688D01*
X1528500Y1139597D01*
X1528864Y1139506D01*
X1529202Y1139415D01*
X1529514Y1139324D01*
X1529774Y1139233D01*
X1529995Y1139155D01*
X1530177Y1139090D01*
X1530307Y1139038D01*
X1530346Y1139025D01*
X1530385Y1139012D01*
X1530398Y1138999D01*
X1530411D01*
X1530840Y1138804D01*
X1531256Y1138583D01*
X1531633Y1138349D01*
X1531984Y1138115D01*
X1532322Y1137868D01*
X1532621Y1137621D01*
X1532894Y1137374D01*
X1533128Y1137140D01*
X1533349Y1136919D01*
X1533544Y1136711D01*
X1533700Y1136529D01*
X1533830Y1136360D01*
X1533934Y1136230D01*
X1533999Y1136139D01*
X1534051Y1136074D01*
X1534064Y1136048D01*
X1534285Y1135671D01*
X1534480Y1135268D01*
X1534649Y1134852D01*
X1534792Y1134436D01*
X1534909Y1134007D01*
X1535013Y1133591D01*
X1535104Y1133175D01*
X1535169Y1132785D01*
X1535221Y1132421D01*
X1535260Y1132070D01*
X1535286Y1131771D01*
X1535299Y1131511D01*
X1535312Y1131394D01*
Y1131290D01*
X1535325Y1131199D01*
Y1130991D01*
X1535312Y1130445D01*
X1535260Y1129912D01*
X1535169Y1129418D01*
X1535065Y1128937D01*
X1534948Y1128495D01*
X1534805Y1128066D01*
X1534662Y1127689D01*
X1534506Y1127338D01*
X1534350Y1127013D01*
X1534207Y1126740D01*
X1534064Y1126493D01*
X1533947Y1126298D01*
X1533843Y1126129D01*
X1533752Y1126012D01*
X1533700Y1125947D01*
X1533687Y1125921D01*
X1533362Y1125544D01*
X1533011Y1125206D01*
X1532634Y1124881D01*
X1532244Y1124595D01*
X1531854Y1124335D01*
X1531451Y1124101D01*
X1531061Y1123893D01*
X1530684Y1123698D01*
X1530333Y1123542D01*
X1529995Y1123412D01*
X1529696Y1123295D01*
X1529436Y1123204D01*
X1529319Y1123165D01*
X1529215Y1123139D01*
X1529124Y1123113D01*
X1529059Y1123087D01*
X1528994Y1123074D01*
X1528955Y1123061D01*
X1528929Y1123048D01*
X1528916D01*
X1528279Y1125583D01*
X1528721Y1125687D01*
X1529124Y1125817D01*
X1529514Y1125960D01*
X1529865Y1126116D01*
X1530203Y1126285D01*
X1530502Y1126454D01*
X1530775Y1126623D01*
X1531009Y1126792D01*
X1531230Y1126948D01*
X1531412Y1127104D01*
X1531568Y1127234D01*
X1531698Y1127364D01*
X1531802Y1127455D01*
X1531880Y1127533D01*
X1531919Y1127585D01*
X1531932Y1127598D01*
X1532153Y1127884D01*
X1532335Y1128170D01*
X1532504Y1128469D01*
X1532647Y1128781D01*
X1532764Y1129080D01*
X1532868Y1129379D01*
X1532946Y1129678D01*
X1533011Y1129951D01*
X1533063Y1130211D01*
X1533102Y1130445D01*
X1533128Y1130653D01*
X1533141Y1130848D01*
X1533154Y1130991D01*
X1533167Y1131108D01*
Y1131199D01*
X1533154Y1131524D01*
X1533128Y1131849D01*
X1533089Y1132148D01*
X1533024Y1132447D01*
X1532959Y1132733D01*
X1532881Y1133006D01*
X1532803Y1133253D01*
X1532712Y1133487D01*
X1532634Y1133695D01*
X1532556Y1133890D01*
X1532478Y1134059D01*
X1532413Y1134202D01*
X1532348Y1134306D01*
X1532309Y1134397D01*
X1532283Y1134449D01*
X1532270Y1134462D01*
X1532088Y1134735D01*
X1531893Y1134995D01*
X1531685Y1135229D01*
X1531464Y1135450D01*
X1531230Y1135645D01*
X1531009Y1135827D01*
X1530775Y1135996D01*
X1530567Y1136139D01*
X1530359Y1136269D01*
X1530164Y1136373D01*
X1529995Y1136477D01*
X1529839Y1136555D01*
X1529709Y1136607D01*
X1529618Y1136646D01*
X1529566Y1136672D01*
X1529540Y1136685D01*
X1529189Y1136802D01*
X1528825Y1136919D01*
X1528461Y1137010D01*
X1528097Y1137088D01*
X1527382Y1137218D01*
X1527031Y1137257D01*
X1526706Y1137296D01*
X1526407Y1137322D01*
X1526121Y1137348D01*
X1525874Y1137361D01*
X1525666Y1137374D01*
X1525484Y1137387D01*
X1525354D01*
X1525315D01*
X1525276D01*
X1525263D01*
X1525250D01*
X1524899Y1137374D01*
X1524548Y1137361D01*
X1523872Y1137296D01*
X1523560Y1137244D01*
X1523248Y1137192D01*
X1522962Y1137140D01*
X1522702Y1137088D01*
X1522455Y1137036D01*
X1522234Y1136984D01*
X1522039Y1136932D01*
X1521883Y1136880D01*
X1521753Y1136841D01*
X1521649Y1136815D01*
X1521597Y1136789D01*
X1521571D01*
X1521246Y1136672D01*
X1520934Y1136529D01*
X1520648Y1136373D01*
X1520375Y1136217D01*
X1520115Y1136035D01*
X1519881Y1135866D01*
X1519673Y1135697D01*
X1519478Y1135528D01*
X1519309Y1135359D01*
X1519153Y1135203D01*
X1519023Y1135073D01*
X1518919Y1134943D01*
X1518828Y1134852D01*
X1518776Y1134774D01*
X1518737Y1134722D01*
X1518724Y1134709D01*
X1518542Y1134423D01*
X1518373Y1134124D01*
X1518230Y1133812D01*
X1518113Y1133500D01*
X1518009Y1133188D01*
X1517918Y1132876D01*
X1517853Y1132577D01*
X1517788Y1132291D01*
X1517749Y1132031D01*
X1517710Y1131784D01*
X1517684Y1131563D01*
X1517671Y1131368D01*
Y1131212D01*
X1517658Y1131095D01*
Y1131004D01*
X1517671Y1130653D01*
X1517697Y1130315D01*
X1517749Y1129990D01*
X1517814Y1129691D01*
X1517879Y1129418D01*
X1517957Y1129145D01*
X1518048Y1128911D01*
X1518139Y1128690D01*
X1518230Y1128495D01*
X1518321Y1128313D01*
X1518399Y1128170D01*
X1518464Y1128040D01*
X1518529Y1127949D01*
X1518581Y1127871D01*
X1518607Y1127832D01*
X1518620Y1127819D01*
X1518815Y1127585D01*
X1519023Y1127364D01*
X1519257Y1127169D01*
X1519491Y1126974D01*
X1519751Y1126805D01*
X1519998Y1126636D01*
X1520258Y1126493D01*
X1520505Y1126363D01*
X1520739Y1126246D01*
X1520960Y1126155D01*
X1521155Y1126064D01*
X1521337Y1125999D01*
X1521480Y1125934D01*
X1521584Y1125895D01*
X1521649Y1125882D01*
X1521675Y1125869D01*
X1521077Y1123373D01*
X1520596Y1123529D01*
X1520141Y1123711D01*
X1519712Y1123919D01*
X1519309Y1124127D01*
X1518945Y1124348D01*
X1518607Y1124582D01*
X1518295Y1124816D01*
X1518022Y1125037D01*
X1517775Y1125258D01*
X1517554Y1125453D01*
X1517372Y1125635D01*
X1517229Y1125791D01*
X1517112Y1125934D01*
X1517021Y1126025D01*
X1516969Y1126090D01*
X1516956Y1126116D01*
X1516696Y1126493D01*
X1516475Y1126883D01*
X1516280Y1127286D01*
X1516111Y1127702D01*
X1515968Y1128105D01*
X1515851Y1128508D01*
X1515747Y1128898D01*
X1515669Y1129275D01*
X1515604Y1129613D01*
X1515565Y1129938D01*
X1515526Y1130224D01*
X1515513Y1130471D01*
X1515500Y1130679D01*
X1515487Y1130757D01*
Y1130952D01*
X1515500Y1131420D01*
X1515539Y1131875D01*
X1515591Y1132317D01*
X1515669Y1132746D01*
X1515760Y1133149D01*
X1515851Y1133539D01*
X1515968Y1133903D01*
X1516072Y1134228D01*
X1516176Y1134527D01*
X1516280Y1134800D01*
X1516384Y1135034D01*
X1516475Y1135229D01*
X1516553Y1135398D01*
X1516605Y1135515D01*
X1516644Y1135580D01*
X1516657Y1135606D01*
X1516891Y1135996D01*
X1517138Y1136360D01*
X1517398Y1136698D01*
X1517671Y1137010D01*
X1517957Y1137296D01*
X1518243Y1137569D01*
X1518516Y1137816D01*
X1518789Y1138037D01*
X1519049Y1138232D01*
X1519283Y1138401D01*
X1519491Y1138544D01*
X1519686Y1138661D01*
X1519842Y1138752D01*
X1519946Y1138817D01*
X1520024Y1138856D01*
X1520037Y1138869D01*
X1520050D01*
X1520479Y1139064D01*
X1520908Y1139246D01*
X1521350Y1139402D01*
X1521805Y1139532D01*
X1522247Y1139636D01*
X1522676Y1139727D01*
X1523092Y1139805D01*
X1523495Y1139870D01*
X1523859Y1139922D01*
X1524197Y1139948D01*
X1524496Y1139974D01*
X1524756Y1140000D01*
X1524873D01*
X1524977D01*
X1525055Y1140013D01*
X1525133D01*
X1525185D01*
X1525224D01*
X1525250D01*
X1525263D01*
X1525770Y1140000D01*
D02*
G37*
G36*
X1518334Y1111322D02*
X1518724Y1111660D01*
X1519140Y1111985D01*
X1519985Y1112609D01*
X1520401Y1112908D01*
X1520817Y1113181D01*
X1521220Y1113441D01*
X1521610Y1113688D01*
X1521974Y1113909D01*
X1522299Y1114117D01*
X1522598Y1114286D01*
X1522858Y1114442D01*
X1522962Y1114494D01*
X1523066Y1114559D01*
X1523144Y1114598D01*
X1523222Y1114637D01*
X1523274Y1114676D01*
X1523313Y1114702D01*
X1523339Y1114715D01*
X1523352D01*
X1523911Y1115001D01*
X1524470Y1115274D01*
X1525029Y1115534D01*
X1525575Y1115768D01*
X1526108Y1115976D01*
X1526615Y1116184D01*
X1527109Y1116366D01*
X1527564Y1116522D01*
X1527980Y1116665D01*
X1528370Y1116795D01*
X1528708Y1116899D01*
X1528851Y1116951D01*
X1528994Y1116990D01*
X1529111Y1117029D01*
X1529228Y1117055D01*
X1529319Y1117081D01*
X1529397Y1117107D01*
X1529462Y1117120D01*
X1529501Y1117133D01*
X1529527Y1117146D01*
X1529540D01*
X1530125Y1117289D01*
X1530697Y1117432D01*
X1531230Y1117536D01*
X1531737Y1117640D01*
X1532218Y1117731D01*
X1532673Y1117796D01*
X1533089Y1117861D01*
X1533466Y1117900D01*
X1533817Y1117939D01*
X1534116Y1117978D01*
X1534376Y1117991D01*
X1534597Y1118004D01*
X1534766Y1118017D01*
X1534896Y1118030D01*
X1534974D01*
X1534987D01*
X1535000D01*
Y1115612D01*
X1534467Y1115573D01*
X1533947Y1115521D01*
X1533453Y1115456D01*
X1532972Y1115391D01*
X1532517Y1115313D01*
X1532075Y1115248D01*
X1531672Y1115170D01*
X1531295Y1115092D01*
X1530957Y1115014D01*
X1530645Y1114949D01*
X1530385Y1114884D01*
X1530151Y1114832D01*
X1529969Y1114780D01*
X1529839Y1114741D01*
X1529800Y1114728D01*
X1529761D01*
X1529748Y1114715D01*
X1529735D01*
X1529098Y1114520D01*
X1528474Y1114312D01*
X1527850Y1114091D01*
X1527252Y1113857D01*
X1526680Y1113636D01*
X1526134Y1113402D01*
X1525614Y1113168D01*
X1525133Y1112947D01*
X1524691Y1112739D01*
X1524288Y1112557D01*
X1524106Y1112466D01*
X1523950Y1112375D01*
X1523794Y1112297D01*
X1523651Y1112232D01*
X1523521Y1112167D01*
X1523417Y1112102D01*
X1523313Y1112050D01*
X1523235Y1112011D01*
X1523170Y1111972D01*
X1523131Y1111959D01*
X1523105Y1111933D01*
X1523092D01*
X1522494Y1111595D01*
X1521935Y1111257D01*
X1521415Y1110932D01*
X1520921Y1110607D01*
X1520453Y1110282D01*
X1520024Y1109983D01*
X1519634Y1109697D01*
X1519283Y1109437D01*
X1518971Y1109190D01*
X1518698Y1108969D01*
X1518451Y1108774D01*
X1518256Y1108605D01*
X1518100Y1108475D01*
X1517996Y1108371D01*
X1517931Y1108319D01*
X1517905Y1108293D01*
X1516072D01*
Y1120721D01*
X1518334D01*
Y1111322D01*
D02*
G37*
G36*
X1494555Y1035312D02*
X1495088Y1035260D01*
X1495582Y1035169D01*
X1496063Y1035065D01*
X1496505Y1034948D01*
X1496934Y1034805D01*
X1497311Y1034662D01*
X1497662Y1034506D01*
X1497987Y1034350D01*
X1498260Y1034207D01*
X1498507Y1034064D01*
X1498702Y1033947D01*
X1498871Y1033843D01*
X1498988Y1033752D01*
X1499053Y1033700D01*
X1499079Y1033687D01*
X1499456Y1033362D01*
X1499794Y1033011D01*
X1500119Y1032634D01*
X1500405Y1032244D01*
X1500665Y1031854D01*
X1500899Y1031451D01*
X1501107Y1031061D01*
X1501302Y1030684D01*
X1501458Y1030333D01*
X1501588Y1029995D01*
X1501705Y1029696D01*
X1501796Y1029436D01*
X1501835Y1029319D01*
X1501861Y1029215D01*
X1501887Y1029124D01*
X1501913Y1029059D01*
X1501926Y1028994D01*
X1501939Y1028955D01*
X1501952Y1028929D01*
Y1028916D01*
X1499417Y1028279D01*
X1499313Y1028721D01*
X1499183Y1029124D01*
X1499040Y1029514D01*
X1498884Y1029865D01*
X1498715Y1030203D01*
X1498546Y1030502D01*
X1498377Y1030775D01*
X1498208Y1031009D01*
X1498052Y1031230D01*
X1497896Y1031412D01*
X1497766Y1031568D01*
X1497636Y1031698D01*
X1497545Y1031802D01*
X1497467Y1031880D01*
X1497415Y1031919D01*
X1497402Y1031932D01*
X1497116Y1032153D01*
X1496830Y1032335D01*
X1496531Y1032504D01*
X1496219Y1032647D01*
X1495920Y1032764D01*
X1495621Y1032868D01*
X1495322Y1032946D01*
X1495049Y1033011D01*
X1494789Y1033063D01*
X1494555Y1033102D01*
X1494347Y1033128D01*
X1494152Y1033141D01*
X1494009Y1033154D01*
X1493892Y1033167D01*
X1493801D01*
X1493476Y1033154D01*
X1493151Y1033128D01*
X1492852Y1033089D01*
X1492553Y1033024D01*
X1492267Y1032959D01*
X1491994Y1032881D01*
X1491747Y1032803D01*
X1491513Y1032712D01*
X1491305Y1032634D01*
X1491110Y1032556D01*
X1490941Y1032478D01*
X1490798Y1032413D01*
X1490694Y1032348D01*
X1490603Y1032309D01*
X1490551Y1032283D01*
X1490538Y1032270D01*
X1490265Y1032088D01*
X1490005Y1031893D01*
X1489771Y1031685D01*
X1489550Y1031464D01*
X1489355Y1031230D01*
X1489173Y1031009D01*
X1489004Y1030775D01*
X1488861Y1030567D01*
X1488731Y1030359D01*
X1488627Y1030164D01*
X1488523Y1029995D01*
X1488445Y1029839D01*
X1488393Y1029709D01*
X1488354Y1029618D01*
X1488328Y1029566D01*
X1488315Y1029540D01*
X1488198Y1029189D01*
X1488081Y1028825D01*
X1487990Y1028461D01*
X1487912Y1028097D01*
X1487782Y1027382D01*
X1487743Y1027031D01*
X1487704Y1026706D01*
X1487678Y1026407D01*
X1487652Y1026121D01*
X1487639Y1025874D01*
X1487626Y1025666D01*
X1487613Y1025484D01*
Y1025354D01*
Y1025315D01*
Y1025276D01*
Y1025263D01*
Y1025250D01*
X1487626Y1024899D01*
X1487639Y1024548D01*
X1487704Y1023872D01*
X1487756Y1023560D01*
X1487808Y1023248D01*
X1487860Y1022962D01*
X1487912Y1022702D01*
X1487964Y1022455D01*
X1488016Y1022234D01*
X1488068Y1022039D01*
X1488120Y1021883D01*
X1488159Y1021753D01*
X1488185Y1021649D01*
X1488211Y1021597D01*
Y1021571D01*
X1488328Y1021246D01*
X1488471Y1020934D01*
X1488627Y1020648D01*
X1488783Y1020375D01*
X1488965Y1020115D01*
X1489134Y1019881D01*
X1489303Y1019673D01*
X1489472Y1019478D01*
X1489641Y1019309D01*
X1489797Y1019153D01*
X1489927Y1019023D01*
X1490057Y1018919D01*
X1490148Y1018828D01*
X1490226Y1018776D01*
X1490278Y1018737D01*
X1490291Y1018724D01*
X1490577Y1018542D01*
X1490876Y1018373D01*
X1491188Y1018230D01*
X1491500Y1018113D01*
X1491812Y1018009D01*
X1492124Y1017918D01*
X1492423Y1017853D01*
X1492709Y1017788D01*
X1492969Y1017749D01*
X1493216Y1017710D01*
X1493437Y1017684D01*
X1493632Y1017671D01*
X1493788D01*
X1493905Y1017658D01*
X1493996D01*
X1494347Y1017671D01*
X1494685Y1017697D01*
X1495010Y1017749D01*
X1495309Y1017814D01*
X1495582Y1017879D01*
X1495855Y1017957D01*
X1496089Y1018048D01*
X1496310Y1018139D01*
X1496505Y1018230D01*
X1496687Y1018321D01*
X1496830Y1018399D01*
X1496960Y1018464D01*
X1497051Y1018529D01*
X1497129Y1018581D01*
X1497168Y1018607D01*
X1497181Y1018620D01*
X1497415Y1018815D01*
X1497636Y1019023D01*
X1497831Y1019257D01*
X1498026Y1019491D01*
X1498195Y1019751D01*
X1498364Y1019998D01*
X1498507Y1020258D01*
X1498637Y1020505D01*
X1498754Y1020739D01*
X1498845Y1020960D01*
X1498936Y1021155D01*
X1499001Y1021337D01*
X1499066Y1021480D01*
X1499105Y1021584D01*
X1499118Y1021649D01*
X1499131Y1021675D01*
X1501627Y1021077D01*
X1501471Y1020596D01*
X1501289Y1020141D01*
X1501081Y1019712D01*
X1500873Y1019309D01*
X1500652Y1018945D01*
X1500418Y1018607D01*
X1500184Y1018295D01*
X1499963Y1018022D01*
X1499742Y1017775D01*
X1499547Y1017554D01*
X1499365Y1017372D01*
X1499209Y1017229D01*
X1499066Y1017112D01*
X1498975Y1017021D01*
X1498910Y1016969D01*
X1498884Y1016956D01*
X1498507Y1016696D01*
X1498117Y1016475D01*
X1497714Y1016280D01*
X1497298Y1016111D01*
X1496895Y1015968D01*
X1496492Y1015851D01*
X1496102Y1015747D01*
X1495725Y1015669D01*
X1495387Y1015604D01*
X1495062Y1015565D01*
X1494776Y1015526D01*
X1494529Y1015513D01*
X1494321Y1015500D01*
X1494243Y1015487D01*
X1494048D01*
X1493580Y1015500D01*
X1493125Y1015539D01*
X1492683Y1015591D01*
X1492254Y1015669D01*
X1491851Y1015760D01*
X1491461Y1015851D01*
X1491097Y1015968D01*
X1490772Y1016072D01*
X1490473Y1016176D01*
X1490200Y1016280D01*
X1489966Y1016384D01*
X1489771Y1016475D01*
X1489602Y1016553D01*
X1489485Y1016605D01*
X1489420Y1016644D01*
X1489394Y1016657D01*
X1489004Y1016891D01*
X1488640Y1017138D01*
X1488302Y1017398D01*
X1487990Y1017671D01*
X1487704Y1017957D01*
X1487431Y1018243D01*
X1487184Y1018516D01*
X1486963Y1018789D01*
X1486768Y1019049D01*
X1486599Y1019283D01*
X1486456Y1019491D01*
X1486339Y1019686D01*
X1486248Y1019842D01*
X1486183Y1019946D01*
X1486144Y1020024D01*
X1486131Y1020037D01*
Y1020050D01*
X1485936Y1020479D01*
X1485754Y1020908D01*
X1485598Y1021350D01*
X1485468Y1021805D01*
X1485364Y1022247D01*
X1485273Y1022676D01*
X1485195Y1023092D01*
X1485130Y1023495D01*
X1485078Y1023859D01*
X1485052Y1024197D01*
X1485026Y1024496D01*
X1485000Y1024756D01*
Y1024873D01*
Y1024977D01*
X1484987Y1025055D01*
Y1025133D01*
Y1025185D01*
Y1025224D01*
Y1025250D01*
Y1025263D01*
X1485000Y1025770D01*
X1485026Y1026277D01*
X1485078Y1026758D01*
X1485143Y1027226D01*
X1485221Y1027681D01*
X1485312Y1028097D01*
X1485403Y1028500D01*
X1485494Y1028864D01*
X1485585Y1029202D01*
X1485676Y1029514D01*
X1485767Y1029774D01*
X1485845Y1029995D01*
X1485910Y1030177D01*
X1485962Y1030307D01*
X1485975Y1030346D01*
X1485988Y1030385D01*
X1486001Y1030398D01*
Y1030411D01*
X1486196Y1030840D01*
X1486417Y1031256D01*
X1486651Y1031633D01*
X1486885Y1031984D01*
X1487132Y1032322D01*
X1487379Y1032621D01*
X1487626Y1032894D01*
X1487860Y1033128D01*
X1488081Y1033349D01*
X1488289Y1033544D01*
X1488471Y1033700D01*
X1488640Y1033830D01*
X1488770Y1033934D01*
X1488861Y1033999D01*
X1488926Y1034051D01*
X1488952Y1034064D01*
X1489329Y1034285D01*
X1489732Y1034480D01*
X1490148Y1034649D01*
X1490564Y1034792D01*
X1490993Y1034909D01*
X1491409Y1035013D01*
X1491825Y1035104D01*
X1492215Y1035169D01*
X1492579Y1035221D01*
X1492930Y1035260D01*
X1493229Y1035286D01*
X1493489Y1035299D01*
X1493606Y1035312D01*
X1493710D01*
X1493801Y1035325D01*
X1494009D01*
X1494555Y1035312D01*
D02*
G37*
G36*
X1511000D02*
X1511312Y1035286D01*
X1511611Y1035247D01*
X1511897Y1035195D01*
X1512157Y1035130D01*
X1512417Y1035065D01*
X1512651Y1034987D01*
X1512872Y1034909D01*
X1513067Y1034844D01*
X1513249Y1034766D01*
X1513405Y1034701D01*
X1513535Y1034636D01*
X1513626Y1034584D01*
X1513704Y1034545D01*
X1513756Y1034519D01*
X1513769Y1034506D01*
X1514016Y1034350D01*
X1514250Y1034168D01*
X1514471Y1033986D01*
X1514679Y1033791D01*
X1514874Y1033596D01*
X1515043Y1033401D01*
X1515212Y1033206D01*
X1515355Y1033011D01*
X1515485Y1032842D01*
X1515602Y1032673D01*
X1515693Y1032517D01*
X1515771Y1032400D01*
X1515836Y1032283D01*
X1515875Y1032205D01*
X1515901Y1032153D01*
X1515914Y1032140D01*
X1516057Y1031841D01*
X1516174Y1031542D01*
X1516278Y1031256D01*
X1516369Y1030957D01*
X1516447Y1030671D01*
X1516499Y1030385D01*
X1516551Y1030125D01*
X1516603Y1029865D01*
X1516629Y1029644D01*
X1516655Y1029423D01*
X1516668Y1029241D01*
X1516681Y1029085D01*
X1516694Y1028955D01*
Y1028851D01*
Y1028799D01*
Y1028773D01*
X1516681Y1028266D01*
X1516629Y1027798D01*
X1516538Y1027343D01*
X1516434Y1026914D01*
X1516304Y1026524D01*
X1516174Y1026147D01*
X1516018Y1025809D01*
X1515862Y1025510D01*
X1515706Y1025237D01*
X1515563Y1024990D01*
X1515420Y1024782D01*
X1515290Y1024613D01*
X1515186Y1024483D01*
X1515108Y1024379D01*
X1515043Y1024327D01*
X1515030Y1024301D01*
X1514718Y1023989D01*
X1514380Y1023729D01*
X1514042Y1023495D01*
X1513704Y1023287D01*
X1513366Y1023131D01*
X1513041Y1022988D01*
X1512716Y1022871D01*
X1512404Y1022780D01*
X1512118Y1022702D01*
X1511858Y1022650D01*
X1511624Y1022611D01*
X1511416Y1022585D01*
X1511260Y1022572D01*
X1511130Y1022559D01*
X1511026D01*
X1510779Y1022572D01*
X1510532Y1022585D01*
X1510051Y1022663D01*
X1509609Y1022754D01*
X1509414Y1022819D01*
X1509232Y1022871D01*
X1509050Y1022936D01*
X1508907Y1022988D01*
X1508764Y1023053D01*
X1508660Y1023092D01*
X1508556Y1023131D01*
X1508491Y1023170D01*
X1508452Y1023183D01*
X1508439Y1023196D01*
X1508218Y1023326D01*
X1507997Y1023456D01*
X1507594Y1023755D01*
X1507243Y1024080D01*
X1507087Y1024236D01*
X1506944Y1024379D01*
X1506814Y1024535D01*
X1506697Y1024665D01*
X1506593Y1024795D01*
X1506515Y1024899D01*
X1506450Y1024990D01*
X1506398Y1025055D01*
X1506372Y1025094D01*
X1506359Y1025107D01*
X1506372Y1024587D01*
X1506398Y1024093D01*
X1506424Y1023625D01*
X1506476Y1023196D01*
X1506528Y1022806D01*
X1506580Y1022442D01*
X1506645Y1022104D01*
X1506697Y1021818D01*
X1506762Y1021545D01*
X1506814Y1021324D01*
X1506879Y1021129D01*
X1506918Y1020960D01*
X1506957Y1020830D01*
X1506996Y1020752D01*
X1507009Y1020687D01*
X1507022Y1020674D01*
X1507152Y1020388D01*
X1507282Y1020128D01*
X1507425Y1019881D01*
X1507568Y1019647D01*
X1507724Y1019439D01*
X1507867Y1019244D01*
X1508010Y1019062D01*
X1508153Y1018906D01*
X1508283Y1018763D01*
X1508400Y1018646D01*
X1508517Y1018542D01*
X1508608Y1018464D01*
X1508686Y1018386D01*
X1508738Y1018347D01*
X1508777Y1018321D01*
X1508790Y1018308D01*
X1508946Y1018191D01*
X1509115Y1018100D01*
X1509284Y1018009D01*
X1509453Y1017944D01*
X1509791Y1017827D01*
X1510090Y1017749D01*
X1510233Y1017723D01*
X1510363Y1017710D01*
X1510480Y1017684D01*
X1510571D01*
X1510662Y1017671D01*
X1510766D01*
X1511026Y1017684D01*
X1511273Y1017710D01*
X1511494Y1017762D01*
X1511715Y1017827D01*
X1511923Y1017905D01*
X1512118Y1017996D01*
X1512300Y1018087D01*
X1512469Y1018178D01*
X1512612Y1018269D01*
X1512742Y1018360D01*
X1512859Y1018451D01*
X1512950Y1018529D01*
X1513015Y1018594D01*
X1513080Y1018646D01*
X1513106Y1018672D01*
X1513119Y1018685D01*
X1513223Y1018815D01*
X1513327Y1018945D01*
X1513496Y1019257D01*
X1513652Y1019595D01*
X1513782Y1019920D01*
X1513834Y1020076D01*
X1513873Y1020232D01*
X1513912Y1020362D01*
X1513951Y1020466D01*
X1513977Y1020570D01*
X1513990Y1020635D01*
X1514003Y1020687D01*
Y1020700D01*
X1516343Y1020518D01*
X1516278Y1020115D01*
X1516187Y1019725D01*
X1516083Y1019361D01*
X1515953Y1019023D01*
X1515810Y1018711D01*
X1515667Y1018425D01*
X1515524Y1018165D01*
X1515368Y1017918D01*
X1515225Y1017710D01*
X1515082Y1017528D01*
X1514952Y1017372D01*
X1514848Y1017242D01*
X1514744Y1017138D01*
X1514679Y1017073D01*
X1514627Y1017021D01*
X1514614Y1017008D01*
X1514341Y1016787D01*
X1514042Y1016592D01*
X1513743Y1016423D01*
X1513431Y1016267D01*
X1513119Y1016150D01*
X1512807Y1016046D01*
X1512508Y1015955D01*
X1512222Y1015890D01*
X1511949Y1015838D01*
X1511702Y1015799D01*
X1511481Y1015773D01*
X1511286Y1015747D01*
X1511130D01*
X1511013Y1015734D01*
X1510909D01*
X1510350Y1015760D01*
X1509830Y1015825D01*
X1509336Y1015942D01*
X1508868Y1016085D01*
X1508439Y1016241D01*
X1508036Y1016436D01*
X1507685Y1016631D01*
X1507347Y1016839D01*
X1507061Y1017047D01*
X1506801Y1017242D01*
X1506580Y1017437D01*
X1506398Y1017593D01*
X1506255Y1017736D01*
X1506151Y1017853D01*
X1506099Y1017918D01*
X1506073Y1017944D01*
X1505891Y1018191D01*
X1505709Y1018451D01*
X1505553Y1018724D01*
X1505397Y1019010D01*
X1505124Y1019621D01*
X1504890Y1020271D01*
X1504682Y1020934D01*
X1504526Y1021610D01*
X1504383Y1022286D01*
X1504279Y1022936D01*
X1504188Y1023560D01*
X1504162Y1023846D01*
X1504123Y1024132D01*
X1504097Y1024405D01*
X1504084Y1024665D01*
X1504071Y1024899D01*
X1504058Y1025120D01*
X1504045Y1025315D01*
X1504032Y1025497D01*
Y1025653D01*
X1504019Y1025783D01*
Y1025887D01*
Y1025965D01*
Y1026017D01*
Y1026030D01*
Y1026485D01*
X1504045Y1026927D01*
X1504071Y1027356D01*
X1504097Y1027759D01*
X1504136Y1028149D01*
X1504188Y1028526D01*
X1504253Y1028890D01*
X1504305Y1029241D01*
X1504383Y1029566D01*
X1504448Y1029891D01*
X1504526Y1030190D01*
X1504604Y1030476D01*
X1504695Y1030736D01*
X1504773Y1030996D01*
X1504864Y1031230D01*
X1504955Y1031464D01*
X1505033Y1031672D01*
X1505124Y1031867D01*
X1505202Y1032049D01*
X1505293Y1032218D01*
X1505371Y1032374D01*
X1505449Y1032517D01*
X1505514Y1032634D01*
X1505592Y1032751D01*
X1505644Y1032842D01*
X1505709Y1032933D01*
X1505761Y1033011D01*
X1505800Y1033063D01*
X1505826Y1033115D01*
X1505852Y1033141D01*
X1505878Y1033167D01*
X1506242Y1033544D01*
X1506619Y1033882D01*
X1507009Y1034168D01*
X1507412Y1034415D01*
X1507815Y1034623D01*
X1508218Y1034792D01*
X1508608Y1034935D01*
X1508985Y1035052D01*
X1509336Y1035143D01*
X1509661Y1035208D01*
X1509947Y1035260D01*
X1510194Y1035286D01*
X1510402Y1035312D01*
X1510493D01*
X1510558Y1035325D01*
X1510688D01*
X1511000Y1035312D01*
D02*
G37*
G36*
X1495461Y1419061D02*
X1493251Y1418775D01*
X1493030Y1419074D01*
X1492796Y1419334D01*
X1492562Y1419568D01*
X1492328Y1419763D01*
X1492120Y1419906D01*
X1492029Y1419971D01*
X1491964Y1420023D01*
X1491899Y1420062D01*
X1491847Y1420088D01*
X1491821Y1420114D01*
X1491808D01*
X1491457Y1420283D01*
X1491093Y1420413D01*
X1490755Y1420504D01*
X1490430Y1420569D01*
X1490287Y1420595D01*
X1490157Y1420608D01*
X1490040Y1420621D01*
X1489949D01*
X1489858Y1420634D01*
X1489754D01*
X1489416Y1420621D01*
X1489104Y1420582D01*
X1488805Y1420530D01*
X1488519Y1420452D01*
X1488259Y1420361D01*
X1488012Y1420270D01*
X1487791Y1420153D01*
X1487583Y1420049D01*
X1487401Y1419945D01*
X1487245Y1419841D01*
X1487102Y1419737D01*
X1486998Y1419646D01*
X1486907Y1419568D01*
X1486842Y1419516D01*
X1486803Y1419477D01*
X1486790Y1419464D01*
X1486595Y1419243D01*
X1486413Y1418996D01*
X1486270Y1418736D01*
X1486140Y1418476D01*
X1486023Y1418216D01*
X1485932Y1417956D01*
X1485854Y1417696D01*
X1485802Y1417449D01*
X1485750Y1417215D01*
X1485724Y1416994D01*
X1485698Y1416799D01*
X1485672Y1416630D01*
Y1416487D01*
X1485659Y1416383D01*
Y1416318D01*
Y1416292D01*
X1485672Y1415902D01*
X1485711Y1415538D01*
X1485763Y1415187D01*
X1485841Y1414862D01*
X1485932Y1414563D01*
X1486036Y1414290D01*
X1486140Y1414030D01*
X1486244Y1413796D01*
X1486361Y1413588D01*
X1486465Y1413406D01*
X1486569Y1413250D01*
X1486660Y1413120D01*
X1486738Y1413016D01*
X1486790Y1412951D01*
X1486829Y1412899D01*
X1486842Y1412886D01*
X1487063Y1412665D01*
X1487297Y1412457D01*
X1487544Y1412288D01*
X1487778Y1412145D01*
X1488025Y1412015D01*
X1488259Y1411911D01*
X1488493Y1411833D01*
X1488714Y1411755D01*
X1488922Y1411703D01*
X1489117Y1411664D01*
X1489286Y1411638D01*
X1489429Y1411625D01*
X1489546Y1411612D01*
X1489637Y1411599D01*
X1489715D01*
X1489975Y1411612D01*
X1490222Y1411638D01*
X1490456Y1411677D01*
X1490677Y1411742D01*
X1490898Y1411807D01*
X1491093Y1411885D01*
X1491275Y1411976D01*
X1491444Y1412054D01*
X1491600Y1412145D01*
X1491730Y1412223D01*
X1491847Y1412301D01*
X1491938Y1412366D01*
X1492016Y1412431D01*
X1492068Y1412470D01*
X1492107Y1412496D01*
X1492120Y1412509D01*
X1492302Y1412691D01*
X1492458Y1412886D01*
X1492614Y1413094D01*
X1492744Y1413315D01*
X1492861Y1413549D01*
X1492965Y1413770D01*
X1493134Y1414212D01*
X1493212Y1414420D01*
X1493264Y1414602D01*
X1493316Y1414784D01*
X1493342Y1414927D01*
X1493368Y1415057D01*
X1493394Y1415148D01*
X1493407Y1415200D01*
Y1415226D01*
X1495877Y1415018D01*
X1495812Y1414576D01*
X1495734Y1414160D01*
X1495617Y1413757D01*
X1495487Y1413393D01*
X1495331Y1413042D01*
X1495175Y1412730D01*
X1495019Y1412431D01*
X1494850Y1412171D01*
X1494681Y1411937D01*
X1494525Y1411729D01*
X1494382Y1411547D01*
X1494252Y1411404D01*
X1494148Y1411287D01*
X1494057Y1411196D01*
X1494005Y1411144D01*
X1493992Y1411131D01*
X1493667Y1410871D01*
X1493329Y1410650D01*
X1492978Y1410455D01*
X1492627Y1410286D01*
X1492263Y1410143D01*
X1491912Y1410026D01*
X1491561Y1409935D01*
X1491223Y1409857D01*
X1490911Y1409792D01*
X1490625Y1409753D01*
X1490365Y1409714D01*
X1490144Y1409701D01*
X1489962Y1409688D01*
X1489832Y1409675D01*
X1489715D01*
X1489416Y1409688D01*
X1489130Y1409701D01*
X1488584Y1409779D01*
X1488064Y1409896D01*
X1487583Y1410039D01*
X1487128Y1410221D01*
X1486712Y1410416D01*
X1486335Y1410624D01*
X1485997Y1410845D01*
X1485685Y1411053D01*
X1485425Y1411261D01*
X1485191Y1411469D01*
X1485009Y1411638D01*
X1484866Y1411794D01*
X1484762Y1411898D01*
X1484697Y1411976D01*
X1484671Y1412002D01*
X1484398Y1412366D01*
X1484164Y1412743D01*
X1483969Y1413120D01*
X1483787Y1413510D01*
X1483644Y1413887D01*
X1483527Y1414264D01*
X1483423Y1414615D01*
X1483345Y1414966D01*
X1483280Y1415278D01*
X1483228Y1415577D01*
X1483202Y1415837D01*
X1483176Y1416071D01*
X1483163Y1416253D01*
X1483150Y1416383D01*
Y1416435D01*
Y1416474D01*
Y1416487D01*
Y1416500D01*
X1483163Y1417007D01*
X1483228Y1417475D01*
X1483306Y1417930D01*
X1483423Y1418346D01*
X1483553Y1418749D01*
X1483696Y1419113D01*
X1483852Y1419451D01*
X1484008Y1419763D01*
X1484177Y1420036D01*
X1484333Y1420283D01*
X1484476Y1420491D01*
X1484606Y1420660D01*
X1484723Y1420790D01*
X1484801Y1420894D01*
X1484853Y1420946D01*
X1484879Y1420972D01*
X1485217Y1421284D01*
X1485555Y1421544D01*
X1485906Y1421778D01*
X1486270Y1421986D01*
X1486634Y1422142D01*
X1486985Y1422285D01*
X1487323Y1422402D01*
X1487648Y1422493D01*
X1487947Y1422571D01*
X1488233Y1422623D01*
X1488480Y1422662D01*
X1488701Y1422688D01*
X1488870Y1422701D01*
X1489000Y1422714D01*
X1489117D01*
X1489468Y1422701D01*
X1489819Y1422662D01*
X1490157Y1422610D01*
X1490482Y1422532D01*
X1490794Y1422441D01*
X1491093Y1422337D01*
X1491379Y1422233D01*
X1491639Y1422116D01*
X1491886Y1421999D01*
X1492094Y1421895D01*
X1492289Y1421791D01*
X1492445Y1421700D01*
X1492575Y1421635D01*
X1492666Y1421570D01*
X1492718Y1421531D01*
X1492744Y1421518D01*
X1491717Y1426666D01*
X1484060D01*
Y1428915D01*
X1493602D01*
X1495461Y1419061D01*
D02*
G37*
G36*
X1506420Y1429500D02*
X1506875Y1429461D01*
X1507317Y1429409D01*
X1507746Y1429331D01*
X1508149Y1429240D01*
X1508539Y1429149D01*
X1508903Y1429032D01*
X1509228Y1428928D01*
X1509527Y1428824D01*
X1509800Y1428720D01*
X1510034Y1428616D01*
X1510229Y1428525D01*
X1510398Y1428447D01*
X1510515Y1428395D01*
X1510580Y1428356D01*
X1510606Y1428343D01*
X1510996Y1428109D01*
X1511360Y1427862D01*
X1511698Y1427602D01*
X1512010Y1427329D01*
X1512296Y1427043D01*
X1512569Y1426757D01*
X1512816Y1426484D01*
X1513037Y1426211D01*
X1513232Y1425951D01*
X1513401Y1425717D01*
X1513544Y1425509D01*
X1513661Y1425314D01*
X1513752Y1425158D01*
X1513817Y1425054D01*
X1513856Y1424976D01*
X1513869Y1424963D01*
Y1424950D01*
X1514064Y1424521D01*
X1514246Y1424092D01*
X1514402Y1423650D01*
X1514532Y1423195D01*
X1514636Y1422753D01*
X1514727Y1422324D01*
X1514805Y1421908D01*
X1514870Y1421505D01*
X1514922Y1421141D01*
X1514948Y1420803D01*
X1514974Y1420504D01*
X1515000Y1420244D01*
Y1420127D01*
Y1420023D01*
X1515013Y1419945D01*
Y1419867D01*
Y1419815D01*
Y1419776D01*
Y1419750D01*
Y1419737D01*
X1515000Y1419230D01*
X1514974Y1418723D01*
X1514922Y1418242D01*
X1514857Y1417774D01*
X1514779Y1417319D01*
X1514688Y1416903D01*
X1514597Y1416500D01*
X1514506Y1416136D01*
X1514415Y1415798D01*
X1514324Y1415486D01*
X1514233Y1415226D01*
X1514155Y1415005D01*
X1514090Y1414823D01*
X1514038Y1414693D01*
X1514025Y1414654D01*
X1514012Y1414615D01*
X1513999Y1414602D01*
Y1414589D01*
X1513804Y1414160D01*
X1513583Y1413744D01*
X1513349Y1413367D01*
X1513115Y1413016D01*
X1512868Y1412678D01*
X1512621Y1412379D01*
X1512374Y1412106D01*
X1512140Y1411872D01*
X1511919Y1411651D01*
X1511711Y1411456D01*
X1511529Y1411300D01*
X1511360Y1411170D01*
X1511230Y1411066D01*
X1511139Y1411001D01*
X1511074Y1410949D01*
X1511048Y1410936D01*
X1510671Y1410715D01*
X1510268Y1410520D01*
X1509852Y1410351D01*
X1509436Y1410208D01*
X1509007Y1410091D01*
X1508591Y1409987D01*
X1508175Y1409896D01*
X1507785Y1409831D01*
X1507421Y1409779D01*
X1507070Y1409740D01*
X1506771Y1409714D01*
X1506511Y1409701D01*
X1506394Y1409688D01*
X1506290D01*
X1506199Y1409675D01*
X1505991D01*
X1505445Y1409688D01*
X1504912Y1409740D01*
X1504418Y1409831D01*
X1503937Y1409935D01*
X1503495Y1410052D01*
X1503066Y1410195D01*
X1502689Y1410338D01*
X1502338Y1410494D01*
X1502013Y1410650D01*
X1501740Y1410793D01*
X1501493Y1410936D01*
X1501298Y1411053D01*
X1501129Y1411157D01*
X1501012Y1411248D01*
X1500947Y1411300D01*
X1500921Y1411313D01*
X1500544Y1411638D01*
X1500206Y1411989D01*
X1499881Y1412366D01*
X1499595Y1412756D01*
X1499335Y1413146D01*
X1499101Y1413549D01*
X1498893Y1413939D01*
X1498698Y1414316D01*
X1498542Y1414667D01*
X1498412Y1415005D01*
X1498295Y1415304D01*
X1498204Y1415564D01*
X1498165Y1415681D01*
X1498139Y1415785D01*
X1498113Y1415876D01*
X1498087Y1415941D01*
X1498074Y1416006D01*
X1498061Y1416045D01*
X1498048Y1416071D01*
Y1416084D01*
X1500583Y1416721D01*
X1500687Y1416279D01*
X1500817Y1415876D01*
X1500960Y1415486D01*
X1501116Y1415135D01*
X1501285Y1414797D01*
X1501454Y1414498D01*
X1501623Y1414225D01*
X1501792Y1413991D01*
X1501948Y1413770D01*
X1502104Y1413588D01*
X1502234Y1413432D01*
X1502364Y1413302D01*
X1502455Y1413198D01*
X1502533Y1413120D01*
X1502585Y1413081D01*
X1502598Y1413068D01*
X1502884Y1412847D01*
X1503170Y1412665D01*
X1503469Y1412496D01*
X1503781Y1412353D01*
X1504080Y1412236D01*
X1504379Y1412132D01*
X1504678Y1412054D01*
X1504951Y1411989D01*
X1505211Y1411937D01*
X1505445Y1411898D01*
X1505653Y1411872D01*
X1505848Y1411859D01*
X1505991Y1411846D01*
X1506108Y1411833D01*
X1506199D01*
X1506524Y1411846D01*
X1506849Y1411872D01*
X1507148Y1411911D01*
X1507447Y1411976D01*
X1507733Y1412041D01*
X1508006Y1412119D01*
X1508253Y1412197D01*
X1508487Y1412288D01*
X1508695Y1412366D01*
X1508890Y1412444D01*
X1509059Y1412522D01*
X1509202Y1412587D01*
X1509306Y1412652D01*
X1509397Y1412691D01*
X1509449Y1412717D01*
X1509462Y1412730D01*
X1509735Y1412912D01*
X1509995Y1413107D01*
X1510229Y1413315D01*
X1510450Y1413536D01*
X1510645Y1413770D01*
X1510827Y1413991D01*
X1510996Y1414225D01*
X1511139Y1414433D01*
X1511269Y1414641D01*
X1511373Y1414836D01*
X1511477Y1415005D01*
X1511555Y1415161D01*
X1511607Y1415291D01*
X1511646Y1415382D01*
X1511672Y1415434D01*
X1511685Y1415460D01*
X1511802Y1415811D01*
X1511919Y1416175D01*
X1512010Y1416539D01*
X1512088Y1416903D01*
X1512218Y1417618D01*
X1512257Y1417969D01*
X1512296Y1418294D01*
X1512322Y1418593D01*
X1512348Y1418879D01*
X1512361Y1419126D01*
X1512374Y1419334D01*
X1512387Y1419516D01*
Y1419646D01*
Y1419685D01*
Y1419724D01*
Y1419737D01*
Y1419750D01*
X1512374Y1420101D01*
X1512361Y1420452D01*
X1512296Y1421128D01*
X1512244Y1421440D01*
X1512192Y1421752D01*
X1512140Y1422038D01*
X1512088Y1422298D01*
X1512036Y1422545D01*
X1511984Y1422766D01*
X1511932Y1422961D01*
X1511880Y1423117D01*
X1511841Y1423247D01*
X1511815Y1423351D01*
X1511789Y1423403D01*
Y1423429D01*
X1511672Y1423754D01*
X1511529Y1424066D01*
X1511373Y1424352D01*
X1511217Y1424625D01*
X1511035Y1424885D01*
X1510866Y1425119D01*
X1510697Y1425327D01*
X1510528Y1425522D01*
X1510359Y1425691D01*
X1510203Y1425847D01*
X1510073Y1425977D01*
X1509943Y1426081D01*
X1509852Y1426172D01*
X1509774Y1426224D01*
X1509722Y1426263D01*
X1509709Y1426276D01*
X1509423Y1426458D01*
X1509124Y1426627D01*
X1508812Y1426770D01*
X1508500Y1426887D01*
X1508188Y1426991D01*
X1507876Y1427082D01*
X1507577Y1427147D01*
X1507291Y1427212D01*
X1507031Y1427251D01*
X1506784Y1427290D01*
X1506563Y1427316D01*
X1506368Y1427329D01*
X1506212D01*
X1506095Y1427342D01*
X1506004D01*
X1505653Y1427329D01*
X1505315Y1427303D01*
X1504990Y1427251D01*
X1504691Y1427186D01*
X1504418Y1427121D01*
X1504145Y1427043D01*
X1503911Y1426952D01*
X1503690Y1426861D01*
X1503495Y1426770D01*
X1503313Y1426679D01*
X1503170Y1426601D01*
X1503040Y1426536D01*
X1502949Y1426471D01*
X1502871Y1426419D01*
X1502832Y1426393D01*
X1502819Y1426380D01*
X1502585Y1426185D01*
X1502364Y1425977D01*
X1502169Y1425743D01*
X1501974Y1425509D01*
X1501805Y1425249D01*
X1501636Y1425002D01*
X1501493Y1424742D01*
X1501363Y1424495D01*
X1501246Y1424261D01*
X1501155Y1424040D01*
X1501064Y1423845D01*
X1500999Y1423663D01*
X1500934Y1423520D01*
X1500895Y1423416D01*
X1500882Y1423351D01*
X1500869Y1423325D01*
X1498373Y1423923D01*
X1498529Y1424404D01*
X1498711Y1424859D01*
X1498919Y1425288D01*
X1499127Y1425691D01*
X1499348Y1426055D01*
X1499582Y1426393D01*
X1499816Y1426705D01*
X1500037Y1426978D01*
X1500258Y1427225D01*
X1500453Y1427446D01*
X1500635Y1427628D01*
X1500791Y1427771D01*
X1500934Y1427888D01*
X1501025Y1427979D01*
X1501090Y1428031D01*
X1501116Y1428044D01*
X1501493Y1428304D01*
X1501883Y1428525D01*
X1502286Y1428720D01*
X1502702Y1428889D01*
X1503105Y1429032D01*
X1503508Y1429149D01*
X1503898Y1429253D01*
X1504275Y1429331D01*
X1504613Y1429396D01*
X1504938Y1429435D01*
X1505224Y1429474D01*
X1505471Y1429487D01*
X1505679Y1429500D01*
X1505757Y1429513D01*
X1505952D01*
X1506420Y1429500D01*
D02*
G37*
G36*
X1159555Y1035312D02*
X1160088Y1035260D01*
X1160582Y1035169D01*
X1161063Y1035065D01*
X1161505Y1034948D01*
X1161934Y1034805D01*
X1162311Y1034662D01*
X1162662Y1034506D01*
X1162987Y1034350D01*
X1163260Y1034207D01*
X1163507Y1034064D01*
X1163702Y1033947D01*
X1163871Y1033843D01*
X1163988Y1033752D01*
X1164053Y1033700D01*
X1164079Y1033687D01*
X1164456Y1033362D01*
X1164794Y1033011D01*
X1165119Y1032634D01*
X1165405Y1032244D01*
X1165665Y1031854D01*
X1165899Y1031451D01*
X1166107Y1031061D01*
X1166302Y1030684D01*
X1166458Y1030333D01*
X1166588Y1029995D01*
X1166705Y1029696D01*
X1166796Y1029436D01*
X1166835Y1029319D01*
X1166861Y1029215D01*
X1166887Y1029124D01*
X1166913Y1029059D01*
X1166926Y1028994D01*
X1166939Y1028955D01*
X1166952Y1028929D01*
Y1028916D01*
X1164417Y1028279D01*
X1164313Y1028721D01*
X1164183Y1029124D01*
X1164040Y1029514D01*
X1163884Y1029865D01*
X1163715Y1030203D01*
X1163546Y1030502D01*
X1163377Y1030775D01*
X1163208Y1031009D01*
X1163052Y1031230D01*
X1162896Y1031412D01*
X1162766Y1031568D01*
X1162636Y1031698D01*
X1162545Y1031802D01*
X1162467Y1031880D01*
X1162415Y1031919D01*
X1162402Y1031932D01*
X1162116Y1032153D01*
X1161830Y1032335D01*
X1161531Y1032504D01*
X1161219Y1032647D01*
X1160920Y1032764D01*
X1160621Y1032868D01*
X1160322Y1032946D01*
X1160049Y1033011D01*
X1159789Y1033063D01*
X1159555Y1033102D01*
X1159347Y1033128D01*
X1159152Y1033141D01*
X1159009Y1033154D01*
X1158892Y1033167D01*
X1158801D01*
X1158476Y1033154D01*
X1158151Y1033128D01*
X1157852Y1033089D01*
X1157553Y1033024D01*
X1157267Y1032959D01*
X1156994Y1032881D01*
X1156747Y1032803D01*
X1156513Y1032712D01*
X1156305Y1032634D01*
X1156110Y1032556D01*
X1155941Y1032478D01*
X1155798Y1032413D01*
X1155694Y1032348D01*
X1155603Y1032309D01*
X1155551Y1032283D01*
X1155538Y1032270D01*
X1155265Y1032088D01*
X1155005Y1031893D01*
X1154771Y1031685D01*
X1154550Y1031464D01*
X1154355Y1031230D01*
X1154173Y1031009D01*
X1154004Y1030775D01*
X1153861Y1030567D01*
X1153731Y1030359D01*
X1153627Y1030164D01*
X1153523Y1029995D01*
X1153445Y1029839D01*
X1153393Y1029709D01*
X1153354Y1029618D01*
X1153328Y1029566D01*
X1153315Y1029540D01*
X1153198Y1029189D01*
X1153081Y1028825D01*
X1152990Y1028461D01*
X1152912Y1028097D01*
X1152782Y1027382D01*
X1152743Y1027031D01*
X1152704Y1026706D01*
X1152678Y1026407D01*
X1152652Y1026121D01*
X1152639Y1025874D01*
X1152626Y1025666D01*
X1152613Y1025484D01*
Y1025354D01*
Y1025315D01*
Y1025276D01*
Y1025263D01*
Y1025250D01*
X1152626Y1024899D01*
X1152639Y1024548D01*
X1152704Y1023872D01*
X1152756Y1023560D01*
X1152808Y1023248D01*
X1152860Y1022962D01*
X1152912Y1022702D01*
X1152964Y1022455D01*
X1153016Y1022234D01*
X1153068Y1022039D01*
X1153120Y1021883D01*
X1153159Y1021753D01*
X1153185Y1021649D01*
X1153211Y1021597D01*
Y1021571D01*
X1153328Y1021246D01*
X1153471Y1020934D01*
X1153627Y1020648D01*
X1153783Y1020375D01*
X1153965Y1020115D01*
X1154134Y1019881D01*
X1154303Y1019673D01*
X1154472Y1019478D01*
X1154641Y1019309D01*
X1154797Y1019153D01*
X1154927Y1019023D01*
X1155057Y1018919D01*
X1155148Y1018828D01*
X1155226Y1018776D01*
X1155278Y1018737D01*
X1155291Y1018724D01*
X1155577Y1018542D01*
X1155876Y1018373D01*
X1156188Y1018230D01*
X1156500Y1018113D01*
X1156812Y1018009D01*
X1157124Y1017918D01*
X1157423Y1017853D01*
X1157709Y1017788D01*
X1157969Y1017749D01*
X1158216Y1017710D01*
X1158437Y1017684D01*
X1158632Y1017671D01*
X1158788D01*
X1158905Y1017658D01*
X1158996D01*
X1159347Y1017671D01*
X1159685Y1017697D01*
X1160010Y1017749D01*
X1160309Y1017814D01*
X1160582Y1017879D01*
X1160855Y1017957D01*
X1161089Y1018048D01*
X1161310Y1018139D01*
X1161505Y1018230D01*
X1161687Y1018321D01*
X1161830Y1018399D01*
X1161960Y1018464D01*
X1162051Y1018529D01*
X1162129Y1018581D01*
X1162168Y1018607D01*
X1162181Y1018620D01*
X1162415Y1018815D01*
X1162636Y1019023D01*
X1162831Y1019257D01*
X1163026Y1019491D01*
X1163195Y1019751D01*
X1163364Y1019998D01*
X1163507Y1020258D01*
X1163637Y1020505D01*
X1163754Y1020739D01*
X1163845Y1020960D01*
X1163936Y1021155D01*
X1164001Y1021337D01*
X1164066Y1021480D01*
X1164105Y1021584D01*
X1164118Y1021649D01*
X1164131Y1021675D01*
X1166627Y1021077D01*
X1166471Y1020596D01*
X1166289Y1020141D01*
X1166081Y1019712D01*
X1165873Y1019309D01*
X1165652Y1018945D01*
X1165418Y1018607D01*
X1165184Y1018295D01*
X1164963Y1018022D01*
X1164742Y1017775D01*
X1164547Y1017554D01*
X1164365Y1017372D01*
X1164209Y1017229D01*
X1164066Y1017112D01*
X1163975Y1017021D01*
X1163910Y1016969D01*
X1163884Y1016956D01*
X1163507Y1016696D01*
X1163117Y1016475D01*
X1162714Y1016280D01*
X1162298Y1016111D01*
X1161895Y1015968D01*
X1161492Y1015851D01*
X1161102Y1015747D01*
X1160725Y1015669D01*
X1160387Y1015604D01*
X1160062Y1015565D01*
X1159776Y1015526D01*
X1159529Y1015513D01*
X1159321Y1015500D01*
X1159243Y1015487D01*
X1159048D01*
X1158580Y1015500D01*
X1158125Y1015539D01*
X1157683Y1015591D01*
X1157254Y1015669D01*
X1156851Y1015760D01*
X1156461Y1015851D01*
X1156097Y1015968D01*
X1155772Y1016072D01*
X1155473Y1016176D01*
X1155200Y1016280D01*
X1154966Y1016384D01*
X1154771Y1016475D01*
X1154602Y1016553D01*
X1154485Y1016605D01*
X1154420Y1016644D01*
X1154394Y1016657D01*
X1154004Y1016891D01*
X1153640Y1017138D01*
X1153302Y1017398D01*
X1152990Y1017671D01*
X1152704Y1017957D01*
X1152431Y1018243D01*
X1152184Y1018516D01*
X1151963Y1018789D01*
X1151768Y1019049D01*
X1151599Y1019283D01*
X1151456Y1019491D01*
X1151339Y1019686D01*
X1151248Y1019842D01*
X1151183Y1019946D01*
X1151144Y1020024D01*
X1151131Y1020037D01*
Y1020050D01*
X1150936Y1020479D01*
X1150754Y1020908D01*
X1150598Y1021350D01*
X1150468Y1021805D01*
X1150364Y1022247D01*
X1150273Y1022676D01*
X1150195Y1023092D01*
X1150130Y1023495D01*
X1150078Y1023859D01*
X1150052Y1024197D01*
X1150026Y1024496D01*
X1150000Y1024756D01*
Y1024873D01*
Y1024977D01*
X1149987Y1025055D01*
Y1025133D01*
Y1025185D01*
Y1025224D01*
Y1025250D01*
Y1025263D01*
X1150000Y1025770D01*
X1150026Y1026277D01*
X1150078Y1026758D01*
X1150143Y1027226D01*
X1150221Y1027681D01*
X1150312Y1028097D01*
X1150403Y1028500D01*
X1150494Y1028864D01*
X1150585Y1029202D01*
X1150676Y1029514D01*
X1150767Y1029774D01*
X1150845Y1029995D01*
X1150910Y1030177D01*
X1150962Y1030307D01*
X1150975Y1030346D01*
X1150988Y1030385D01*
X1151001Y1030398D01*
Y1030411D01*
X1151196Y1030840D01*
X1151417Y1031256D01*
X1151651Y1031633D01*
X1151885Y1031984D01*
X1152132Y1032322D01*
X1152379Y1032621D01*
X1152626Y1032894D01*
X1152860Y1033128D01*
X1153081Y1033349D01*
X1153289Y1033544D01*
X1153471Y1033700D01*
X1153640Y1033830D01*
X1153770Y1033934D01*
X1153861Y1033999D01*
X1153926Y1034051D01*
X1153952Y1034064D01*
X1154329Y1034285D01*
X1154732Y1034480D01*
X1155148Y1034649D01*
X1155564Y1034792D01*
X1155993Y1034909D01*
X1156409Y1035013D01*
X1156825Y1035104D01*
X1157215Y1035169D01*
X1157579Y1035221D01*
X1157930Y1035260D01*
X1158229Y1035286D01*
X1158489Y1035299D01*
X1158606Y1035312D01*
X1158710D01*
X1158801Y1035325D01*
X1159009D01*
X1159555Y1035312D01*
D02*
G37*
G36*
X1179029Y1030411D02*
X1181629D01*
Y1028253D01*
X1179029D01*
Y1015812D01*
X1177105D01*
X1168356Y1028253D01*
Y1030411D01*
X1176676D01*
Y1035000D01*
X1179029D01*
Y1030411D01*
D02*
G37*
G36*
X1155274Y1429253D02*
X1155677Y1429214D01*
X1156054Y1429149D01*
X1156418Y1429058D01*
X1156743Y1428967D01*
X1157068Y1428850D01*
X1157354Y1428733D01*
X1157614Y1428616D01*
X1157848Y1428486D01*
X1158056Y1428369D01*
X1158238Y1428252D01*
X1158394Y1428161D01*
X1158511Y1428070D01*
X1158602Y1428005D01*
X1158654Y1427966D01*
X1158667Y1427953D01*
X1158940Y1427693D01*
X1159187Y1427420D01*
X1159421Y1427134D01*
X1159616Y1426835D01*
X1159798Y1426523D01*
X1159967Y1426224D01*
X1160097Y1425925D01*
X1160227Y1425639D01*
X1160331Y1425353D01*
X1160409Y1425106D01*
X1160487Y1424872D01*
X1160539Y1424677D01*
X1160578Y1424508D01*
X1160604Y1424391D01*
X1160630Y1424313D01*
Y1424300D01*
Y1424287D01*
X1158277Y1423871D01*
X1158212Y1424183D01*
X1158147Y1424482D01*
X1158069Y1424755D01*
X1157978Y1425002D01*
X1157887Y1425236D01*
X1157783Y1425444D01*
X1157679Y1425639D01*
X1157588Y1425808D01*
X1157484Y1425964D01*
X1157393Y1426094D01*
X1157315Y1426211D01*
X1157237Y1426302D01*
X1157185Y1426367D01*
X1157133Y1426419D01*
X1157107Y1426445D01*
X1157094Y1426458D01*
X1156912Y1426614D01*
X1156730Y1426744D01*
X1156535Y1426861D01*
X1156353Y1426965D01*
X1156158Y1427043D01*
X1155963Y1427121D01*
X1155599Y1427225D01*
X1155443Y1427251D01*
X1155287Y1427277D01*
X1155144Y1427303D01*
X1155027Y1427316D01*
X1154936Y1427329D01*
X1154806D01*
X1154546Y1427316D01*
X1154312Y1427290D01*
X1154078Y1427251D01*
X1153870Y1427199D01*
X1153662Y1427134D01*
X1153480Y1427056D01*
X1153311Y1426978D01*
X1153155Y1426900D01*
X1153012Y1426822D01*
X1152895Y1426744D01*
X1152791Y1426666D01*
X1152700Y1426601D01*
X1152635Y1426549D01*
X1152583Y1426510D01*
X1152557Y1426484D01*
X1152544Y1426471D01*
X1152388Y1426302D01*
X1152258Y1426133D01*
X1152128Y1425964D01*
X1152037Y1425782D01*
X1151946Y1425600D01*
X1151881Y1425418D01*
X1151764Y1425080D01*
X1151738Y1424924D01*
X1151712Y1424781D01*
X1151686Y1424651D01*
X1151673Y1424547D01*
X1151660Y1424456D01*
Y1424378D01*
Y1424339D01*
Y1424326D01*
X1151673Y1424027D01*
X1151712Y1423754D01*
X1151777Y1423494D01*
X1151842Y1423260D01*
X1151946Y1423039D01*
X1152037Y1422831D01*
X1152154Y1422662D01*
X1152258Y1422493D01*
X1152375Y1422350D01*
X1152492Y1422233D01*
X1152583Y1422129D01*
X1152674Y1422051D01*
X1152752Y1421973D01*
X1152817Y1421934D01*
X1152856Y1421908D01*
X1152869Y1421895D01*
X1153090Y1421752D01*
X1153324Y1421635D01*
X1153558Y1421531D01*
X1153792Y1421440D01*
X1154026Y1421375D01*
X1154247Y1421310D01*
X1154468Y1421258D01*
X1154663Y1421219D01*
X1154858Y1421180D01*
X1155027Y1421154D01*
X1155183Y1421141D01*
X1155313Y1421128D01*
X1155430Y1421115D01*
X1155690D01*
X1155820Y1421128D01*
X1155872D01*
X1155911Y1421141D01*
X1155950D01*
X1156210Y1419074D01*
X1155859Y1419165D01*
X1155534Y1419230D01*
X1155248Y1419269D01*
X1155014Y1419308D01*
X1154819Y1419321D01*
X1154741D01*
X1154676Y1419334D01*
X1154559D01*
X1154260Y1419321D01*
X1153974Y1419295D01*
X1153701Y1419243D01*
X1153441Y1419165D01*
X1153207Y1419087D01*
X1152986Y1418996D01*
X1152778Y1418905D01*
X1152596Y1418814D01*
X1152427Y1418710D01*
X1152284Y1418619D01*
X1152167Y1418528D01*
X1152063Y1418450D01*
X1151972Y1418385D01*
X1151920Y1418333D01*
X1151881Y1418294D01*
X1151868Y1418281D01*
X1151686Y1418073D01*
X1151517Y1417865D01*
X1151374Y1417644D01*
X1151257Y1417423D01*
X1151153Y1417189D01*
X1151062Y1416968D01*
X1150997Y1416760D01*
X1150932Y1416552D01*
X1150893Y1416357D01*
X1150854Y1416175D01*
X1150828Y1416006D01*
X1150815Y1415876D01*
Y1415759D01*
X1150802Y1415681D01*
Y1415616D01*
Y1415603D01*
X1150815Y1415291D01*
X1150854Y1414992D01*
X1150906Y1414719D01*
X1150984Y1414446D01*
X1151062Y1414199D01*
X1151166Y1413965D01*
X1151270Y1413744D01*
X1151374Y1413549D01*
X1151478Y1413367D01*
X1151582Y1413211D01*
X1151686Y1413081D01*
X1151764Y1412964D01*
X1151842Y1412873D01*
X1151894Y1412808D01*
X1151933Y1412769D01*
X1151946Y1412756D01*
X1152167Y1412548D01*
X1152401Y1412379D01*
X1152635Y1412223D01*
X1152869Y1412093D01*
X1153103Y1411976D01*
X1153337Y1411885D01*
X1153558Y1411807D01*
X1153779Y1411742D01*
X1153987Y1411690D01*
X1154169Y1411664D01*
X1154338Y1411638D01*
X1154481Y1411612D01*
X1154598D01*
X1154676Y1411599D01*
X1154754D01*
X1155014Y1411612D01*
X1155261Y1411638D01*
X1155482Y1411677D01*
X1155716Y1411742D01*
X1155924Y1411807D01*
X1156119Y1411885D01*
X1156288Y1411963D01*
X1156457Y1412041D01*
X1156613Y1412119D01*
X1156743Y1412210D01*
X1156847Y1412275D01*
X1156951Y1412340D01*
X1157016Y1412405D01*
X1157081Y1412444D01*
X1157107Y1412470D01*
X1157120Y1412483D01*
X1157302Y1412665D01*
X1157458Y1412860D01*
X1157614Y1413081D01*
X1157744Y1413302D01*
X1157991Y1413783D01*
X1158186Y1414264D01*
X1158264Y1414485D01*
X1158329Y1414693D01*
X1158381Y1414875D01*
X1158433Y1415044D01*
X1158472Y1415174D01*
X1158485Y1415278D01*
X1158511Y1415343D01*
Y1415369D01*
X1160864Y1415057D01*
X1160799Y1414615D01*
X1160721Y1414199D01*
X1160604Y1413809D01*
X1160474Y1413445D01*
X1160318Y1413094D01*
X1160162Y1412769D01*
X1159993Y1412483D01*
X1159824Y1412210D01*
X1159668Y1411976D01*
X1159499Y1411755D01*
X1159356Y1411586D01*
X1159226Y1411430D01*
X1159122Y1411313D01*
X1159044Y1411222D01*
X1158979Y1411170D01*
X1158966Y1411157D01*
X1158641Y1410897D01*
X1158303Y1410663D01*
X1157952Y1410468D01*
X1157601Y1410299D01*
X1157250Y1410143D01*
X1156899Y1410026D01*
X1156561Y1409922D01*
X1156236Y1409844D01*
X1155937Y1409792D01*
X1155651Y1409740D01*
X1155404Y1409714D01*
X1155183Y1409688D01*
X1155014Y1409675D01*
X1154884Y1409662D01*
X1154767D01*
X1154247Y1409688D01*
X1153766Y1409740D01*
X1153298Y1409818D01*
X1152856Y1409935D01*
X1152440Y1410065D01*
X1152063Y1410208D01*
X1151712Y1410377D01*
X1151387Y1410533D01*
X1151101Y1410702D01*
X1150854Y1410858D01*
X1150633Y1411001D01*
X1150451Y1411131D01*
X1150308Y1411248D01*
X1150204Y1411326D01*
X1150152Y1411391D01*
X1150126Y1411404D01*
X1149801Y1411742D01*
X1149515Y1412093D01*
X1149281Y1412444D01*
X1149060Y1412808D01*
X1148891Y1413159D01*
X1148735Y1413510D01*
X1148618Y1413861D01*
X1148527Y1414186D01*
X1148449Y1414485D01*
X1148384Y1414771D01*
X1148345Y1415018D01*
X1148319Y1415239D01*
X1148306Y1415408D01*
X1148293Y1415538D01*
Y1415590D01*
Y1415629D01*
Y1415642D01*
Y1415655D01*
X1148306Y1415993D01*
X1148332Y1416318D01*
X1148384Y1416630D01*
X1148436Y1416929D01*
X1148514Y1417202D01*
X1148592Y1417449D01*
X1148683Y1417683D01*
X1148761Y1417904D01*
X1148852Y1418086D01*
X1148943Y1418255D01*
X1149021Y1418411D01*
X1149099Y1418528D01*
X1149151Y1418619D01*
X1149203Y1418697D01*
X1149229Y1418736D01*
X1149242Y1418749D01*
X1149424Y1418970D01*
X1149619Y1419178D01*
X1149827Y1419360D01*
X1150048Y1419529D01*
X1150269Y1419685D01*
X1150490Y1419815D01*
X1150698Y1419932D01*
X1150906Y1420036D01*
X1151114Y1420127D01*
X1151296Y1420192D01*
X1151452Y1420257D01*
X1151595Y1420309D01*
X1151712Y1420348D01*
X1151803Y1420374D01*
X1151855Y1420387D01*
X1151881D01*
X1151647Y1420504D01*
X1151426Y1420634D01*
X1151218Y1420764D01*
X1151023Y1420894D01*
X1150854Y1421024D01*
X1150685Y1421154D01*
X1150542Y1421297D01*
X1150412Y1421414D01*
X1150295Y1421531D01*
X1150191Y1421648D01*
X1150113Y1421752D01*
X1150035Y1421830D01*
X1149983Y1421908D01*
X1149944Y1421960D01*
X1149931Y1421986D01*
X1149918Y1421999D01*
X1149801Y1422194D01*
X1149697Y1422389D01*
X1149606Y1422597D01*
X1149528Y1422792D01*
X1149411Y1423169D01*
X1149320Y1423520D01*
X1149294Y1423676D01*
X1149281Y1423819D01*
X1149268Y1423949D01*
X1149255Y1424066D01*
X1149242Y1424157D01*
Y1424222D01*
Y1424261D01*
Y1424274D01*
X1149255Y1424521D01*
X1149268Y1424755D01*
X1149346Y1425210D01*
X1149463Y1425639D01*
X1149528Y1425821D01*
X1149593Y1426003D01*
X1149658Y1426159D01*
X1149723Y1426315D01*
X1149775Y1426432D01*
X1149840Y1426549D01*
X1149879Y1426627D01*
X1149918Y1426692D01*
X1149931Y1426731D01*
X1149944Y1426744D01*
X1150087Y1426952D01*
X1150230Y1427160D01*
X1150555Y1427524D01*
X1150724Y1427693D01*
X1150893Y1427849D01*
X1151062Y1427979D01*
X1151218Y1428109D01*
X1151374Y1428213D01*
X1151517Y1428317D01*
X1151647Y1428395D01*
X1151751Y1428473D01*
X1151842Y1428525D01*
X1151907Y1428564D01*
X1151959Y1428577D01*
X1151972Y1428590D01*
X1152219Y1428707D01*
X1152479Y1428811D01*
X1152726Y1428902D01*
X1152973Y1428980D01*
X1153467Y1429097D01*
X1153688Y1429149D01*
X1153909Y1429188D01*
X1154104Y1429214D01*
X1154286Y1429227D01*
X1154455Y1429240D01*
X1154585Y1429253D01*
X1154702Y1429266D01*
X1154858D01*
X1155274Y1429253D01*
D02*
G37*
G36*
X1171420Y1429500D02*
X1171875Y1429461D01*
X1172317Y1429409D01*
X1172746Y1429331D01*
X1173149Y1429240D01*
X1173539Y1429149D01*
X1173903Y1429032D01*
X1174228Y1428928D01*
X1174527Y1428824D01*
X1174800Y1428720D01*
X1175034Y1428616D01*
X1175229Y1428525D01*
X1175398Y1428447D01*
X1175515Y1428395D01*
X1175580Y1428356D01*
X1175606Y1428343D01*
X1175996Y1428109D01*
X1176360Y1427862D01*
X1176698Y1427602D01*
X1177010Y1427329D01*
X1177296Y1427043D01*
X1177569Y1426757D01*
X1177816Y1426484D01*
X1178037Y1426211D01*
X1178232Y1425951D01*
X1178401Y1425717D01*
X1178544Y1425509D01*
X1178661Y1425314D01*
X1178752Y1425158D01*
X1178817Y1425054D01*
X1178856Y1424976D01*
X1178869Y1424963D01*
Y1424950D01*
X1179064Y1424521D01*
X1179246Y1424092D01*
X1179402Y1423650D01*
X1179532Y1423195D01*
X1179636Y1422753D01*
X1179727Y1422324D01*
X1179805Y1421908D01*
X1179870Y1421505D01*
X1179922Y1421141D01*
X1179948Y1420803D01*
X1179974Y1420504D01*
X1180000Y1420244D01*
Y1420127D01*
Y1420023D01*
X1180013Y1419945D01*
Y1419867D01*
Y1419815D01*
Y1419776D01*
Y1419750D01*
Y1419737D01*
X1180000Y1419230D01*
X1179974Y1418723D01*
X1179922Y1418242D01*
X1179857Y1417774D01*
X1179779Y1417319D01*
X1179688Y1416903D01*
X1179597Y1416500D01*
X1179506Y1416136D01*
X1179415Y1415798D01*
X1179324Y1415486D01*
X1179233Y1415226D01*
X1179155Y1415005D01*
X1179090Y1414823D01*
X1179038Y1414693D01*
X1179025Y1414654D01*
X1179012Y1414615D01*
X1178999Y1414602D01*
Y1414589D01*
X1178804Y1414160D01*
X1178583Y1413744D01*
X1178349Y1413367D01*
X1178115Y1413016D01*
X1177868Y1412678D01*
X1177621Y1412379D01*
X1177374Y1412106D01*
X1177140Y1411872D01*
X1176919Y1411651D01*
X1176711Y1411456D01*
X1176529Y1411300D01*
X1176360Y1411170D01*
X1176230Y1411066D01*
X1176139Y1411001D01*
X1176074Y1410949D01*
X1176048Y1410936D01*
X1175671Y1410715D01*
X1175268Y1410520D01*
X1174852Y1410351D01*
X1174436Y1410208D01*
X1174007Y1410091D01*
X1173591Y1409987D01*
X1173175Y1409896D01*
X1172785Y1409831D01*
X1172421Y1409779D01*
X1172070Y1409740D01*
X1171771Y1409714D01*
X1171511Y1409701D01*
X1171394Y1409688D01*
X1171290D01*
X1171199Y1409675D01*
X1170991D01*
X1170445Y1409688D01*
X1169912Y1409740D01*
X1169418Y1409831D01*
X1168937Y1409935D01*
X1168495Y1410052D01*
X1168066Y1410195D01*
X1167689Y1410338D01*
X1167338Y1410494D01*
X1167013Y1410650D01*
X1166740Y1410793D01*
X1166493Y1410936D01*
X1166298Y1411053D01*
X1166129Y1411157D01*
X1166012Y1411248D01*
X1165947Y1411300D01*
X1165921Y1411313D01*
X1165544Y1411638D01*
X1165206Y1411989D01*
X1164881Y1412366D01*
X1164595Y1412756D01*
X1164335Y1413146D01*
X1164101Y1413549D01*
X1163893Y1413939D01*
X1163698Y1414316D01*
X1163542Y1414667D01*
X1163412Y1415005D01*
X1163295Y1415304D01*
X1163204Y1415564D01*
X1163165Y1415681D01*
X1163139Y1415785D01*
X1163113Y1415876D01*
X1163087Y1415941D01*
X1163074Y1416006D01*
X1163061Y1416045D01*
X1163048Y1416071D01*
Y1416084D01*
X1165583Y1416721D01*
X1165687Y1416279D01*
X1165817Y1415876D01*
X1165960Y1415486D01*
X1166116Y1415135D01*
X1166285Y1414797D01*
X1166454Y1414498D01*
X1166623Y1414225D01*
X1166792Y1413991D01*
X1166948Y1413770D01*
X1167104Y1413588D01*
X1167234Y1413432D01*
X1167364Y1413302D01*
X1167455Y1413198D01*
X1167533Y1413120D01*
X1167585Y1413081D01*
X1167598Y1413068D01*
X1167884Y1412847D01*
X1168170Y1412665D01*
X1168469Y1412496D01*
X1168781Y1412353D01*
X1169080Y1412236D01*
X1169379Y1412132D01*
X1169678Y1412054D01*
X1169951Y1411989D01*
X1170211Y1411937D01*
X1170445Y1411898D01*
X1170653Y1411872D01*
X1170848Y1411859D01*
X1170991Y1411846D01*
X1171108Y1411833D01*
X1171199D01*
X1171524Y1411846D01*
X1171849Y1411872D01*
X1172148Y1411911D01*
X1172447Y1411976D01*
X1172733Y1412041D01*
X1173006Y1412119D01*
X1173253Y1412197D01*
X1173487Y1412288D01*
X1173695Y1412366D01*
X1173890Y1412444D01*
X1174059Y1412522D01*
X1174202Y1412587D01*
X1174306Y1412652D01*
X1174397Y1412691D01*
X1174449Y1412717D01*
X1174462Y1412730D01*
X1174735Y1412912D01*
X1174995Y1413107D01*
X1175229Y1413315D01*
X1175450Y1413536D01*
X1175645Y1413770D01*
X1175827Y1413991D01*
X1175996Y1414225D01*
X1176139Y1414433D01*
X1176269Y1414641D01*
X1176373Y1414836D01*
X1176477Y1415005D01*
X1176555Y1415161D01*
X1176607Y1415291D01*
X1176646Y1415382D01*
X1176672Y1415434D01*
X1176685Y1415460D01*
X1176802Y1415811D01*
X1176919Y1416175D01*
X1177010Y1416539D01*
X1177088Y1416903D01*
X1177218Y1417618D01*
X1177257Y1417969D01*
X1177296Y1418294D01*
X1177322Y1418593D01*
X1177348Y1418879D01*
X1177361Y1419126D01*
X1177374Y1419334D01*
X1177387Y1419516D01*
Y1419646D01*
Y1419685D01*
Y1419724D01*
Y1419737D01*
Y1419750D01*
X1177374Y1420101D01*
X1177361Y1420452D01*
X1177296Y1421128D01*
X1177244Y1421440D01*
X1177192Y1421752D01*
X1177140Y1422038D01*
X1177088Y1422298D01*
X1177036Y1422545D01*
X1176984Y1422766D01*
X1176932Y1422961D01*
X1176880Y1423117D01*
X1176841Y1423247D01*
X1176815Y1423351D01*
X1176789Y1423403D01*
Y1423429D01*
X1176672Y1423754D01*
X1176529Y1424066D01*
X1176373Y1424352D01*
X1176217Y1424625D01*
X1176035Y1424885D01*
X1175866Y1425119D01*
X1175697Y1425327D01*
X1175528Y1425522D01*
X1175359Y1425691D01*
X1175203Y1425847D01*
X1175073Y1425977D01*
X1174943Y1426081D01*
X1174852Y1426172D01*
X1174774Y1426224D01*
X1174722Y1426263D01*
X1174709Y1426276D01*
X1174423Y1426458D01*
X1174124Y1426627D01*
X1173812Y1426770D01*
X1173500Y1426887D01*
X1173188Y1426991D01*
X1172876Y1427082D01*
X1172577Y1427147D01*
X1172291Y1427212D01*
X1172031Y1427251D01*
X1171784Y1427290D01*
X1171563Y1427316D01*
X1171368Y1427329D01*
X1171212D01*
X1171095Y1427342D01*
X1171004D01*
X1170653Y1427329D01*
X1170315Y1427303D01*
X1169990Y1427251D01*
X1169691Y1427186D01*
X1169418Y1427121D01*
X1169145Y1427043D01*
X1168911Y1426952D01*
X1168690Y1426861D01*
X1168495Y1426770D01*
X1168313Y1426679D01*
X1168170Y1426601D01*
X1168040Y1426536D01*
X1167949Y1426471D01*
X1167871Y1426419D01*
X1167832Y1426393D01*
X1167819Y1426380D01*
X1167585Y1426185D01*
X1167364Y1425977D01*
X1167169Y1425743D01*
X1166974Y1425509D01*
X1166805Y1425249D01*
X1166636Y1425002D01*
X1166493Y1424742D01*
X1166363Y1424495D01*
X1166246Y1424261D01*
X1166155Y1424040D01*
X1166064Y1423845D01*
X1165999Y1423663D01*
X1165934Y1423520D01*
X1165895Y1423416D01*
X1165882Y1423351D01*
X1165869Y1423325D01*
X1163373Y1423923D01*
X1163529Y1424404D01*
X1163711Y1424859D01*
X1163919Y1425288D01*
X1164127Y1425691D01*
X1164348Y1426055D01*
X1164582Y1426393D01*
X1164816Y1426705D01*
X1165037Y1426978D01*
X1165258Y1427225D01*
X1165453Y1427446D01*
X1165635Y1427628D01*
X1165791Y1427771D01*
X1165934Y1427888D01*
X1166025Y1427979D01*
X1166090Y1428031D01*
X1166116Y1428044D01*
X1166493Y1428304D01*
X1166883Y1428525D01*
X1167286Y1428720D01*
X1167702Y1428889D01*
X1168105Y1429032D01*
X1168508Y1429149D01*
X1168898Y1429253D01*
X1169275Y1429331D01*
X1169613Y1429396D01*
X1169938Y1429435D01*
X1170224Y1429474D01*
X1170471Y1429487D01*
X1170679Y1429500D01*
X1170757Y1429513D01*
X1170952D01*
X1171420Y1429500D01*
D02*
G37*
%LPC*%
G36*
X1338281Y1384288D02*
X1332535D01*
Y1377944D01*
X1338606D01*
X1338996Y1377957D01*
X1339347Y1377983D01*
X1339685Y1378022D01*
X1339997Y1378074D01*
X1340270Y1378152D01*
X1340530Y1378217D01*
X1340764Y1378295D01*
X1340972Y1378373D01*
X1341141Y1378464D01*
X1341297Y1378542D01*
X1341427Y1378607D01*
X1341544Y1378672D01*
X1341622Y1378737D01*
X1341674Y1378776D01*
X1341713Y1378802D01*
X1341726Y1378815D01*
X1341895Y1378984D01*
X1342051Y1379166D01*
X1342181Y1379348D01*
X1342298Y1379530D01*
X1342389Y1379725D01*
X1342467Y1379907D01*
X1342545Y1380089D01*
X1342597Y1380258D01*
X1342636Y1380427D01*
X1342662Y1380570D01*
X1342688Y1380713D01*
X1342701Y1380830D01*
X1342714Y1380921D01*
Y1380986D01*
Y1381038D01*
Y1381051D01*
X1342688Y1381389D01*
X1342636Y1381714D01*
X1342558Y1382013D01*
X1342467Y1382260D01*
X1342363Y1382481D01*
X1342324Y1382572D01*
X1342285Y1382637D01*
X1342259Y1382702D01*
X1342233Y1382741D01*
X1342207Y1382767D01*
Y1382780D01*
X1341999Y1383053D01*
X1341765Y1383300D01*
X1341518Y1383495D01*
X1341271Y1383651D01*
X1341050Y1383781D01*
X1340959Y1383833D01*
X1340881Y1383872D01*
X1340803Y1383898D01*
X1340751Y1383924D01*
X1340725Y1383937D01*
X1340712D01*
X1340517Y1384002D01*
X1340322Y1384054D01*
X1339880Y1384145D01*
X1339425Y1384197D01*
X1338983Y1384249D01*
X1338788Y1384262D01*
X1338593Y1384275D01*
X1338424D01*
X1338281Y1384288D01*
D02*
G37*
G36*
X1618905Y1129409D02*
X1610247D01*
Y1123403D01*
X1618905Y1129409D01*
D02*
G37*
G36*
X1769804Y1032316D02*
X1769739D01*
X1769440Y1032303D01*
X1769141Y1032251D01*
X1768868Y1032173D01*
X1768608Y1032069D01*
X1768374Y1031952D01*
X1768140Y1031822D01*
X1767932Y1031679D01*
X1767737Y1031536D01*
X1767568Y1031393D01*
X1767425Y1031250D01*
X1767295Y1031120D01*
X1767178Y1031003D01*
X1767100Y1030899D01*
X1767035Y1030821D01*
X1766996Y1030769D01*
X1766983Y1030756D01*
X1766879Y1030600D01*
X1766788Y1030431D01*
X1766697Y1030236D01*
X1766619Y1030041D01*
X1766476Y1029599D01*
X1766346Y1029118D01*
X1766242Y1028598D01*
X1766151Y1028078D01*
X1766073Y1027545D01*
X1766021Y1027025D01*
X1765969Y1026518D01*
X1765930Y1026037D01*
X1765917Y1025816D01*
Y1025595D01*
X1765904Y1025400D01*
X1765891Y1025218D01*
Y1025049D01*
Y1024906D01*
X1765878Y1024763D01*
Y1024659D01*
Y1024568D01*
Y1024503D01*
Y1024464D01*
Y1024451D01*
Y1024022D01*
X1765891Y1023606D01*
X1765904Y1023203D01*
X1765930Y1022826D01*
X1765956Y1022475D01*
X1765982Y1022124D01*
X1766008Y1021799D01*
X1766047Y1021487D01*
X1766086Y1021188D01*
X1766138Y1020915D01*
X1766177Y1020642D01*
X1766229Y1020395D01*
X1766281Y1020161D01*
X1766333Y1019940D01*
X1766372Y1019732D01*
X1766424Y1019550D01*
X1766476Y1019368D01*
X1766528Y1019212D01*
X1766580Y1019056D01*
X1766632Y1018913D01*
X1766723Y1018679D01*
X1766814Y1018497D01*
X1766879Y1018354D01*
X1766931Y1018250D01*
X1766970Y1018185D01*
X1766983Y1018172D01*
X1767191Y1017899D01*
X1767412Y1017652D01*
X1767646Y1017444D01*
X1767880Y1017262D01*
X1768101Y1017106D01*
X1768335Y1016989D01*
X1768556Y1016885D01*
X1768764Y1016794D01*
X1768959Y1016729D01*
X1769141Y1016677D01*
X1769297Y1016651D01*
X1769440Y1016625D01*
X1769557Y1016612D01*
X1769635Y1016599D01*
X1769713D01*
X1770012Y1016612D01*
X1770298Y1016664D01*
X1770558Y1016742D01*
X1770818Y1016846D01*
X1771065Y1016963D01*
X1771286Y1017093D01*
X1771494Y1017236D01*
X1771676Y1017379D01*
X1771858Y1017522D01*
X1772001Y1017665D01*
X1772131Y1017795D01*
X1772248Y1017912D01*
X1772326Y1018016D01*
X1772391Y1018094D01*
X1772430Y1018146D01*
X1772443Y1018159D01*
X1772547Y1018315D01*
X1772638Y1018484D01*
X1772729Y1018679D01*
X1772807Y1018887D01*
X1772950Y1019329D01*
X1773080Y1019810D01*
X1773184Y1020317D01*
X1773275Y1020837D01*
X1773353Y1021370D01*
X1773405Y1021890D01*
X1773457Y1022397D01*
X1773483Y1022878D01*
X1773509Y1023099D01*
Y1023307D01*
X1773522Y1023502D01*
X1773535Y1023684D01*
Y1023853D01*
Y1024009D01*
X1773548Y1024139D01*
Y1024243D01*
Y1024334D01*
Y1024399D01*
Y1024438D01*
Y1024451D01*
Y1024880D01*
X1773535Y1025309D01*
X1773522Y1025699D01*
X1773496Y1026089D01*
X1773470Y1026453D01*
X1773431Y1026804D01*
X1773392Y1027142D01*
X1773353Y1027467D01*
X1773314Y1027766D01*
X1773262Y1028052D01*
X1773210Y1028325D01*
X1773158Y1028585D01*
X1773106Y1028832D01*
X1773054Y1029053D01*
X1772989Y1029274D01*
X1772937Y1029469D01*
X1772885Y1029651D01*
X1772820Y1029833D01*
X1772768Y1029989D01*
X1772716Y1030132D01*
X1772612Y1030392D01*
X1772521Y1030587D01*
X1772443Y1030743D01*
X1772378Y1030860D01*
X1772339Y1030912D01*
X1772326Y1030938D01*
X1772144Y1031185D01*
X1771936Y1031393D01*
X1771728Y1031575D01*
X1771520Y1031731D01*
X1771299Y1031874D01*
X1771078Y1031978D01*
X1770870Y1032069D01*
X1770675Y1032147D01*
X1770480Y1032199D01*
X1770298Y1032238D01*
X1770142Y1032277D01*
X1770012Y1032290D01*
X1769895Y1032303D01*
X1769804Y1032316D01*
D02*
G37*
G36*
X1349288Y1227465D02*
X1342944D01*
Y1221394D01*
X1342957Y1221004D01*
X1342983Y1220653D01*
X1343022Y1220315D01*
X1343074Y1220003D01*
X1343152Y1219730D01*
X1343217Y1219470D01*
X1343295Y1219236D01*
X1343373Y1219028D01*
X1343464Y1218859D01*
X1343542Y1218703D01*
X1343607Y1218573D01*
X1343672Y1218456D01*
X1343737Y1218378D01*
X1343776Y1218326D01*
X1343802Y1218287D01*
X1343815Y1218274D01*
X1343984Y1218105D01*
X1344166Y1217949D01*
X1344348Y1217819D01*
X1344530Y1217702D01*
X1344725Y1217611D01*
X1344907Y1217533D01*
X1345089Y1217455D01*
X1345258Y1217403D01*
X1345427Y1217364D01*
X1345570Y1217338D01*
X1345713Y1217312D01*
X1345830Y1217299D01*
X1345921Y1217286D01*
X1345986D01*
X1346038D01*
X1346051D01*
X1346389Y1217312D01*
X1346714Y1217364D01*
X1347013Y1217442D01*
X1347260Y1217533D01*
X1347481Y1217637D01*
X1347572Y1217676D01*
X1347637Y1217715D01*
X1347702Y1217741D01*
X1347741Y1217767D01*
X1347767Y1217793D01*
X1347780D01*
X1348053Y1218001D01*
X1348300Y1218235D01*
X1348495Y1218482D01*
X1348651Y1218729D01*
X1348781Y1218950D01*
X1348833Y1219041D01*
X1348872Y1219119D01*
X1348898Y1219197D01*
X1348924Y1219249D01*
X1348937Y1219275D01*
Y1219288D01*
X1349002Y1219483D01*
X1349054Y1219678D01*
X1349145Y1220120D01*
X1349197Y1220575D01*
X1349249Y1221017D01*
X1349262Y1221212D01*
X1349275Y1221407D01*
Y1221576D01*
X1349288Y1221719D01*
Y1227465D01*
D02*
G37*
G36*
X1302377Y1138459D02*
X1302325D01*
X1302299D01*
X1301922Y1138446D01*
X1301571Y1138407D01*
X1301233Y1138355D01*
X1300921Y1138277D01*
X1300622Y1138186D01*
X1300349Y1138082D01*
X1300102Y1137978D01*
X1299868Y1137874D01*
X1299660Y1137770D01*
X1299491Y1137653D01*
X1299335Y1137562D01*
X1299205Y1137471D01*
X1299101Y1137393D01*
X1299036Y1137341D01*
X1298984Y1137302D01*
X1298971Y1137289D01*
X1298750Y1137068D01*
X1298542Y1136834D01*
X1298373Y1136600D01*
X1298230Y1136366D01*
X1298100Y1136132D01*
X1297996Y1135911D01*
X1297918Y1135690D01*
X1297840Y1135482D01*
X1297788Y1135287D01*
X1297749Y1135118D01*
X1297723Y1134962D01*
X1297710Y1134819D01*
X1297697Y1134715D01*
X1297684Y1134624D01*
Y1134559D01*
X1297697Y1134273D01*
X1297736Y1134013D01*
X1297788Y1133753D01*
X1297866Y1133506D01*
X1297957Y1133285D01*
X1298061Y1133064D01*
X1298165Y1132869D01*
X1298282Y1132687D01*
X1298399Y1132531D01*
X1298503Y1132375D01*
X1298607Y1132258D01*
X1298698Y1132154D01*
X1298763Y1132063D01*
X1298828Y1132011D01*
X1298867Y1131972D01*
X1298880Y1131959D01*
X1299114Y1131764D01*
X1299361Y1131608D01*
X1299621Y1131452D01*
X1299894Y1131335D01*
X1300154Y1131231D01*
X1300427Y1131140D01*
X1300687Y1131075D01*
X1300934Y1131010D01*
X1301181Y1130971D01*
X1301402Y1130932D01*
X1301597Y1130919D01*
X1301766Y1130893D01*
X1301909D01*
X1302013Y1130880D01*
X1302078D01*
X1302104D01*
X1302468Y1130893D01*
X1302819Y1130919D01*
X1303144Y1130971D01*
X1303456Y1131049D01*
X1303742Y1131127D01*
X1304002Y1131218D01*
X1304236Y1131309D01*
X1304444Y1131400D01*
X1304639Y1131504D01*
X1304808Y1131595D01*
X1304951Y1131686D01*
X1305068Y1131764D01*
X1305159Y1131829D01*
X1305224Y1131881D01*
X1305263Y1131920D01*
X1305276Y1131933D01*
X1305471Y1132141D01*
X1305653Y1132349D01*
X1305809Y1132570D01*
X1305939Y1132791D01*
X1306043Y1133025D01*
X1306134Y1133246D01*
X1306212Y1133467D01*
X1306277Y1133675D01*
X1306329Y1133870D01*
X1306355Y1134052D01*
X1306381Y1134208D01*
X1306407Y1134351D01*
Y1134468D01*
X1306420Y1134546D01*
Y1134624D01*
X1306407Y1134923D01*
X1306368Y1135209D01*
X1306316Y1135469D01*
X1306238Y1135729D01*
X1306160Y1135976D01*
X1306056Y1136197D01*
X1305952Y1136405D01*
X1305848Y1136587D01*
X1305744Y1136769D01*
X1305640Y1136912D01*
X1305536Y1137042D01*
X1305458Y1137159D01*
X1305380Y1137237D01*
X1305328Y1137302D01*
X1305289Y1137341D01*
X1305276Y1137354D01*
X1305055Y1137549D01*
X1304821Y1137718D01*
X1304574Y1137861D01*
X1304327Y1137991D01*
X1304080Y1138095D01*
X1303833Y1138186D01*
X1303586Y1138264D01*
X1303352Y1138316D01*
X1303144Y1138368D01*
X1302936Y1138394D01*
X1302754Y1138420D01*
X1302598Y1138446D01*
X1302481D01*
X1302377Y1138459D01*
D02*
G37*
G36*
X1300739Y1287718D02*
X1300674D01*
X1300622D01*
X1300609D01*
X1300388Y1287705D01*
X1300167Y1287679D01*
X1299972Y1287640D01*
X1299777Y1287575D01*
X1299426Y1287432D01*
X1299270Y1287354D01*
X1299127Y1287276D01*
X1298997Y1287198D01*
X1298880Y1287107D01*
X1298776Y1287042D01*
X1298698Y1286977D01*
X1298633Y1286912D01*
X1298581Y1286873D01*
X1298555Y1286847D01*
X1298542Y1286834D01*
X1298386Y1286665D01*
X1298256Y1286483D01*
X1298139Y1286288D01*
X1298035Y1286106D01*
X1297957Y1285924D01*
X1297879Y1285729D01*
X1297775Y1285378D01*
X1297749Y1285222D01*
X1297723Y1285066D01*
X1297697Y1284936D01*
X1297684Y1284819D01*
X1297671Y1284728D01*
Y1284598D01*
X1297684Y1284351D01*
X1297710Y1284117D01*
X1297749Y1283896D01*
X1297814Y1283688D01*
X1297879Y1283480D01*
X1297944Y1283298D01*
X1298035Y1283129D01*
X1298113Y1282973D01*
X1298191Y1282843D01*
X1298269Y1282713D01*
X1298347Y1282609D01*
X1298412Y1282518D01*
X1298477Y1282453D01*
X1298516Y1282401D01*
X1298542Y1282375D01*
X1298555Y1282362D01*
X1298724Y1282206D01*
X1298906Y1282063D01*
X1299088Y1281946D01*
X1299270Y1281842D01*
X1299452Y1281751D01*
X1299634Y1281686D01*
X1299816Y1281621D01*
X1299972Y1281582D01*
X1300141Y1281543D01*
X1300284Y1281517D01*
X1300414Y1281491D01*
X1300518Y1281478D01*
X1300609Y1281465D01*
X1300687D01*
X1300726D01*
X1300739D01*
X1300973Y1281478D01*
X1301181Y1281504D01*
X1301402Y1281543D01*
X1301597Y1281595D01*
X1301779Y1281673D01*
X1301948Y1281738D01*
X1302117Y1281816D01*
X1302260Y1281894D01*
X1302390Y1281985D01*
X1302507Y1282063D01*
X1302611Y1282128D01*
X1302689Y1282193D01*
X1302754Y1282258D01*
X1302806Y1282297D01*
X1302832Y1282323D01*
X1302845Y1282336D01*
X1303001Y1282505D01*
X1303131Y1282687D01*
X1303248Y1282869D01*
X1303339Y1283051D01*
X1303430Y1283246D01*
X1303495Y1283428D01*
X1303599Y1283779D01*
X1303625Y1283948D01*
X1303651Y1284091D01*
X1303677Y1284234D01*
X1303690Y1284351D01*
X1303703Y1284442D01*
Y1284572D01*
X1303690Y1284832D01*
X1303664Y1285066D01*
X1303625Y1285300D01*
X1303573Y1285508D01*
X1303508Y1285716D01*
X1303430Y1285898D01*
X1303352Y1286080D01*
X1303274Y1286236D01*
X1303196Y1286366D01*
X1303118Y1286496D01*
X1303040Y1286600D01*
X1302975Y1286691D01*
X1302923Y1286756D01*
X1302884Y1286808D01*
X1302858Y1286834D01*
X1302845Y1286847D01*
X1302676Y1287003D01*
X1302494Y1287133D01*
X1302312Y1287250D01*
X1302130Y1287354D01*
X1301935Y1287432D01*
X1301753Y1287510D01*
X1301402Y1287614D01*
X1301233Y1287640D01*
X1301090Y1287666D01*
X1300947Y1287692D01*
X1300830Y1287705D01*
X1300739Y1287718D01*
D02*
G37*
G36*
X1309579Y1288485D02*
X1309514D01*
X1309488D01*
X1309475D01*
X1309176Y1288472D01*
X1308877Y1288433D01*
X1308604Y1288381D01*
X1308344Y1288316D01*
X1308110Y1288225D01*
X1307876Y1288134D01*
X1307668Y1288043D01*
X1307486Y1287939D01*
X1307317Y1287835D01*
X1307161Y1287744D01*
X1307031Y1287640D01*
X1306927Y1287562D01*
X1306849Y1287497D01*
X1306784Y1287445D01*
X1306745Y1287406D01*
X1306732Y1287393D01*
X1306537Y1287185D01*
X1306368Y1286964D01*
X1306225Y1286730D01*
X1306095Y1286496D01*
X1305991Y1286275D01*
X1305900Y1286041D01*
X1305822Y1285820D01*
X1305770Y1285599D01*
X1305718Y1285404D01*
X1305679Y1285222D01*
X1305666Y1285053D01*
X1305640Y1284910D01*
Y1284793D01*
X1305627Y1284715D01*
Y1284637D01*
X1305640Y1284325D01*
X1305679Y1284026D01*
X1305731Y1283740D01*
X1305796Y1283480D01*
X1305887Y1283220D01*
X1305978Y1282986D01*
X1306082Y1282778D01*
X1306186Y1282583D01*
X1306290Y1282401D01*
X1306394Y1282245D01*
X1306485Y1282115D01*
X1306576Y1282011D01*
X1306641Y1281920D01*
X1306693Y1281855D01*
X1306732Y1281816D01*
X1306745Y1281803D01*
X1306953Y1281608D01*
X1307187Y1281426D01*
X1307408Y1281283D01*
X1307655Y1281153D01*
X1307889Y1281036D01*
X1308123Y1280945D01*
X1308344Y1280867D01*
X1308565Y1280815D01*
X1308773Y1280763D01*
X1308955Y1280737D01*
X1309124Y1280711D01*
X1309267Y1280685D01*
X1309384D01*
X1309475Y1280672D01*
X1309527D01*
X1309553D01*
X1309865Y1280685D01*
X1310151Y1280724D01*
X1310437Y1280776D01*
X1310697Y1280841D01*
X1310944Y1280932D01*
X1311165Y1281023D01*
X1311373Y1281127D01*
X1311568Y1281218D01*
X1311737Y1281322D01*
X1311893Y1281426D01*
X1312023Y1281517D01*
X1312127Y1281608D01*
X1312205Y1281673D01*
X1312270Y1281725D01*
X1312309Y1281764D01*
X1312322Y1281777D01*
X1312517Y1281985D01*
X1312673Y1282206D01*
X1312816Y1282440D01*
X1312946Y1282674D01*
X1313050Y1282908D01*
X1313141Y1283142D01*
X1313206Y1283363D01*
X1313271Y1283571D01*
X1313310Y1283779D01*
X1313349Y1283961D01*
X1313362Y1284130D01*
X1313388Y1284273D01*
Y1284390D01*
X1313401Y1284481D01*
Y1284559D01*
X1313375Y1284962D01*
X1313323Y1285326D01*
X1313232Y1285677D01*
X1313141Y1285976D01*
X1313089Y1286106D01*
X1313050Y1286223D01*
X1312998Y1286340D01*
X1312959Y1286418D01*
X1312933Y1286496D01*
X1312907Y1286548D01*
X1312881Y1286574D01*
Y1286587D01*
X1312673Y1286912D01*
X1312439Y1287198D01*
X1312192Y1287445D01*
X1311958Y1287640D01*
X1311750Y1287796D01*
X1311659Y1287861D01*
X1311581Y1287913D01*
X1311516Y1287952D01*
X1311464Y1287978D01*
X1311438Y1288004D01*
X1311425D01*
X1311074Y1288160D01*
X1310723Y1288277D01*
X1310385Y1288368D01*
X1310099Y1288420D01*
X1309956Y1288446D01*
X1309839Y1288459D01*
X1309735Y1288472D01*
X1309644D01*
X1309579Y1288485D01*
D02*
G37*
G36*
X1510701Y1033401D02*
X1510636D01*
X1510441Y1033388D01*
X1510259Y1033375D01*
X1509908Y1033310D01*
X1509570Y1033219D01*
X1509284Y1033102D01*
X1509154Y1033050D01*
X1509037Y1032998D01*
X1508933Y1032946D01*
X1508855Y1032907D01*
X1508777Y1032868D01*
X1508725Y1032842D01*
X1508699Y1032816D01*
X1508686D01*
X1508361Y1032569D01*
X1508075Y1032309D01*
X1507828Y1032023D01*
X1507620Y1031750D01*
X1507451Y1031503D01*
X1507386Y1031399D01*
X1507334Y1031308D01*
X1507295Y1031230D01*
X1507269Y1031178D01*
X1507243Y1031139D01*
Y1031126D01*
X1507074Y1030710D01*
X1506944Y1030294D01*
X1506853Y1029891D01*
X1506814Y1029709D01*
X1506788Y1029540D01*
X1506762Y1029371D01*
X1506749Y1029228D01*
X1506736Y1029098D01*
Y1028994D01*
X1506723Y1028903D01*
Y1028838D01*
Y1028799D01*
Y1028786D01*
X1506736Y1028448D01*
X1506775Y1028123D01*
X1506827Y1027824D01*
X1506892Y1027538D01*
X1506983Y1027265D01*
X1507074Y1027018D01*
X1507178Y1026797D01*
X1507282Y1026589D01*
X1507386Y1026407D01*
X1507490Y1026238D01*
X1507581Y1026108D01*
X1507672Y1025991D01*
X1507737Y1025900D01*
X1507789Y1025835D01*
X1507828Y1025796D01*
X1507841Y1025783D01*
X1508062Y1025575D01*
X1508283Y1025406D01*
X1508504Y1025250D01*
X1508738Y1025120D01*
X1508959Y1025016D01*
X1509193Y1024912D01*
X1509401Y1024847D01*
X1509609Y1024782D01*
X1509804Y1024730D01*
X1509986Y1024704D01*
X1510142Y1024678D01*
X1510285Y1024652D01*
X1510389D01*
X1510480Y1024639D01*
X1510545D01*
X1510844Y1024652D01*
X1511117Y1024691D01*
X1511390Y1024743D01*
X1511637Y1024821D01*
X1511884Y1024899D01*
X1512092Y1025003D01*
X1512300Y1025107D01*
X1512482Y1025211D01*
X1512651Y1025315D01*
X1512794Y1025419D01*
X1512911Y1025523D01*
X1513015Y1025601D01*
X1513106Y1025679D01*
X1513158Y1025731D01*
X1513197Y1025770D01*
X1513210Y1025783D01*
X1513392Y1026004D01*
X1513561Y1026251D01*
X1513704Y1026498D01*
X1513821Y1026758D01*
X1513925Y1027018D01*
X1514016Y1027278D01*
X1514081Y1027538D01*
X1514146Y1027772D01*
X1514185Y1028006D01*
X1514224Y1028227D01*
X1514250Y1028422D01*
X1514263Y1028591D01*
Y1028721D01*
X1514276Y1028825D01*
Y1028890D01*
Y1028916D01*
X1514263Y1029293D01*
X1514224Y1029644D01*
X1514172Y1029982D01*
X1514107Y1030294D01*
X1514029Y1030593D01*
X1513938Y1030866D01*
X1513834Y1031100D01*
X1513743Y1031334D01*
X1513639Y1031529D01*
X1513535Y1031698D01*
X1513444Y1031854D01*
X1513366Y1031971D01*
X1513301Y1032062D01*
X1513249Y1032140D01*
X1513210Y1032179D01*
X1513197Y1032192D01*
X1512989Y1032400D01*
X1512781Y1032595D01*
X1512560Y1032751D01*
X1512352Y1032894D01*
X1512131Y1033011D01*
X1511923Y1033102D01*
X1511715Y1033180D01*
X1511520Y1033245D01*
X1511338Y1033297D01*
X1511169Y1033336D01*
X1511013Y1033362D01*
X1510883Y1033388D01*
X1510779D01*
X1510701Y1033401D01*
D02*
G37*
G36*
X1176676Y1028253D02*
X1170670D01*
X1176676Y1019595D01*
Y1028253D01*
D02*
G37*
%LPD*%
D36*
X1516000Y1232000D02*
G03*
X1516000Y1208000I0J-12000D01*
G01*
X1394000Y1159000D02*
Y1281000D01*
X1516000Y1232000D02*
Y1281000D01*
Y1208000D02*
Y1232000D01*
Y1159000D02*
Y1208000D01*
D37*
X1194921Y1354764D02*
G03*
X1194921Y1354764I-4921J0D01*
G01*
X1871811Y1170000D02*
G03*
X1871811Y1170000I-4921J0D01*
G01*
D38*
X1252992Y1116575D02*
Y1313425D01*
X1127008Y1116575D02*
Y1313425D01*
X1603110Y1229055D02*
X1866890D01*
X1603110Y1339291D02*
X1866890D01*
Y1229055D02*
Y1339291D01*
X1603110Y1229055D02*
Y1339291D01*
%TF.MD5,34ea46817112b46f9beaf9fbf2ac973a*%
M02*
