%TF.GenerationSoftware,Altium Limited,Altium Designer,19.1.7 (138)*%
G04 Layer_Physical_Order=2*
G04 Layer_Color=36540*
%FSLAX26Y26*%
%MOIN*%
%TF.FileFunction,Copper,L2,Inr,Signal*%
%TF.Part,Single*%
G01*
G75*
%TA.AperFunction,ComponentPad*%
%ADD21C,0.061024*%
%ADD22R,0.061024X0.061024*%
%TA.AperFunction,ViaPad*%
%ADD23C,0.020000*%
G36*
X2000000Y1000000D02*
X1765067D01*
X1763550Y1005000D01*
X1764419Y1005581D01*
X1768840Y1012196D01*
X1769397Y1015000D01*
X1730603D01*
X1731160Y1012196D01*
X1735581Y1005581D01*
X1736450Y1005000D01*
X1734933Y1000000D01*
X1685067D01*
X1683550Y1005000D01*
X1684419Y1005581D01*
X1688840Y1012196D01*
X1689397Y1015000D01*
X1650603D01*
X1651160Y1012196D01*
X1655581Y1005581D01*
X1656450Y1005000D01*
X1654933Y1000000D01*
X1616970D01*
X1616478Y1005000D01*
X1618243Y1005351D01*
X1620853Y1005870D01*
X1625814Y1009186D01*
X1629130Y1014147D01*
X1630294Y1020000D01*
X1629130Y1025853D01*
X1625814Y1030814D01*
X1620853Y1034130D01*
X1615000Y1035294D01*
X1609147Y1034130D01*
X1604186Y1030814D01*
X1600870Y1025853D01*
X1599706Y1020000D01*
X1600870Y1014147D01*
X1604186Y1009186D01*
X1609147Y1005870D01*
X1611757Y1005351D01*
X1613522Y1005000D01*
X1613030Y1000000D01*
X1535067D01*
X1533550Y1005000D01*
X1534419Y1005581D01*
X1538840Y1012196D01*
X1539397Y1015000D01*
X1520000D01*
Y1020000D01*
X1515000D01*
Y1039397D01*
X1512196Y1038840D01*
X1505581Y1034419D01*
X1501160Y1027804D01*
X1500000Y1021970D01*
X1494902D01*
X1494130Y1025853D01*
X1490814Y1030814D01*
X1485853Y1034130D01*
X1480000Y1035294D01*
X1474147Y1034130D01*
X1469186Y1030814D01*
X1465870Y1025853D01*
X1464706Y1020000D01*
X1465870Y1014147D01*
X1469186Y1009186D01*
X1474147Y1005870D01*
X1478522Y1005000D01*
X1478030Y1000000D01*
X1443550D01*
X1442279Y1001945D01*
X1441359Y1005000D01*
X1444130Y1009147D01*
X1445294Y1015000D01*
X1444130Y1020853D01*
X1440814Y1025814D01*
X1435853Y1029130D01*
X1430000Y1030294D01*
X1424147Y1029130D01*
X1419186Y1025814D01*
X1416828D01*
X1414419Y1029419D01*
X1407804Y1033840D01*
X1405000Y1034397D01*
Y1015000D01*
X1400000D01*
Y1010000D01*
X1380603D01*
X1381160Y1007196D01*
X1382628Y1005000D01*
X1379955Y1000000D01*
X1200067D01*
X1198550Y1005000D01*
X1199419Y1005581D01*
X1203840Y1012196D01*
X1204397Y1015000D01*
X1185000D01*
Y1020000D01*
X1180000D01*
Y1039397D01*
X1177196Y1038840D01*
X1170581Y1034419D01*
X1166160Y1027804D01*
X1165000Y1021970D01*
X1159902D01*
X1159130Y1025853D01*
X1155814Y1030814D01*
X1150853Y1034130D01*
X1145000Y1035294D01*
X1139147Y1034130D01*
X1134186Y1030814D01*
X1130870Y1025853D01*
X1129706Y1020000D01*
X1130870Y1014147D01*
X1134186Y1009186D01*
X1139147Y1005870D01*
X1143522Y1005000D01*
X1143030Y1000000D01*
X1000000D01*
Y1450000D01*
X1129933D01*
X1131450Y1445000D01*
X1130581Y1444419D01*
X1126160Y1437804D01*
X1125603Y1435000D01*
X1145000D01*
Y1430000D01*
X1150000D01*
Y1410603D01*
X1152804Y1411160D01*
X1159419Y1415581D01*
X1163840Y1422196D01*
X1165000Y1428030D01*
X1170098D01*
X1170870Y1424147D01*
X1174186Y1419186D01*
X1179147Y1415870D01*
X1185000Y1414706D01*
X1190853Y1415870D01*
X1195814Y1419186D01*
X1199130Y1424147D01*
X1200294Y1430000D01*
X1199130Y1435853D01*
X1195814Y1440814D01*
X1190853Y1444130D01*
X1186478Y1445000D01*
X1186970Y1450000D01*
X1283030D01*
X1283522Y1445000D01*
X1281757Y1444649D01*
X1279147Y1444130D01*
X1274186Y1440814D01*
X1270870Y1435853D01*
X1269706Y1430000D01*
X1270870Y1424147D01*
X1274186Y1419186D01*
X1279147Y1415870D01*
X1285000Y1414706D01*
X1290853Y1415870D01*
X1295814Y1419186D01*
X1299130Y1424147D01*
X1300294Y1430000D01*
X1299130Y1435853D01*
X1295814Y1440814D01*
X1290853Y1444130D01*
X1288243Y1444649D01*
X1286478Y1445000D01*
X1286970Y1450000D01*
X1389933D01*
X1391450Y1445000D01*
X1390581Y1444419D01*
X1386160Y1437804D01*
X1385603Y1435000D01*
X1424397D01*
X1423840Y1437804D01*
X1419419Y1444419D01*
X1418550Y1445000D01*
X1420067Y1450000D01*
X2000000D01*
Y1000000D01*
D02*
G37*
%LPC*%
G36*
X1424397Y1425000D02*
X1410000D01*
Y1410603D01*
X1412804Y1411160D01*
X1419419Y1415581D01*
X1423840Y1422196D01*
X1424397Y1425000D01*
D02*
G37*
G36*
X1400000D02*
X1385603D01*
X1386160Y1422196D01*
X1390581Y1415581D01*
X1397196Y1411160D01*
X1400000Y1410603D01*
Y1425000D01*
D02*
G37*
G36*
X1140000D02*
X1125603D01*
X1126160Y1422196D01*
X1130581Y1415581D01*
X1137196Y1411160D01*
X1140000Y1410603D01*
Y1425000D01*
D02*
G37*
G36*
X1550000Y1430294D02*
X1544147Y1429130D01*
X1539186Y1425814D01*
X1535870Y1420853D01*
X1534706Y1415000D01*
X1535870Y1409147D01*
X1539186Y1404186D01*
X1544147Y1400870D01*
X1550000Y1399706D01*
X1555853Y1400870D01*
X1560814Y1404186D01*
X1564130Y1409147D01*
X1565294Y1415000D01*
X1564130Y1420853D01*
X1560814Y1425814D01*
X1555853Y1429130D01*
X1550000Y1430294D01*
D02*
G37*
G36*
X1850000Y1409397D02*
Y1395000D01*
X1864397D01*
X1863840Y1397804D01*
X1859419Y1404419D01*
X1852804Y1408840D01*
X1850000Y1409397D01*
D02*
G37*
G36*
X1840000D02*
X1837196Y1408840D01*
X1830581Y1404419D01*
X1826160Y1397804D01*
X1825603Y1395000D01*
X1840000D01*
Y1409397D01*
D02*
G37*
G36*
X1455000D02*
Y1395000D01*
X1469397D01*
X1468840Y1397804D01*
X1464419Y1404419D01*
X1457804Y1408840D01*
X1455000Y1409397D01*
D02*
G37*
G36*
X1445000D02*
X1442196Y1408840D01*
X1435581Y1404419D01*
X1431160Y1397804D01*
X1430603Y1395000D01*
X1445000D01*
Y1409397D01*
D02*
G37*
G36*
X1864397Y1385000D02*
X1850000D01*
Y1370603D01*
X1852804Y1371160D01*
X1859419Y1375581D01*
X1863840Y1382196D01*
X1864397Y1385000D01*
D02*
G37*
G36*
X1840000D02*
X1825603D01*
X1826160Y1382196D01*
X1830581Y1375581D01*
X1837196Y1371160D01*
X1840000Y1370603D01*
Y1385000D01*
D02*
G37*
G36*
X1469397D02*
X1455000D01*
Y1370603D01*
X1457804Y1371160D01*
X1464419Y1375581D01*
X1468840Y1382196D01*
X1469397Y1385000D01*
D02*
G37*
G36*
X1445000D02*
X1430603D01*
X1431160Y1382196D01*
X1435581Y1375581D01*
X1442196Y1371160D01*
X1445000Y1370603D01*
Y1385000D01*
D02*
G37*
G36*
X1650000Y1359397D02*
Y1345000D01*
X1664397D01*
X1663840Y1347804D01*
X1659419Y1354419D01*
X1652804Y1358840D01*
X1650000Y1359397D01*
D02*
G37*
G36*
X1640000D02*
X1637196Y1358840D01*
X1630581Y1354419D01*
X1626160Y1347804D01*
X1625603Y1345000D01*
X1640000D01*
Y1359397D01*
D02*
G37*
G36*
X1930000Y1410818D02*
X1920730Y1409598D01*
X1912091Y1406020D01*
X1904673Y1400327D01*
X1898980Y1392909D01*
X1895402Y1384270D01*
X1894182Y1375000D01*
X1895402Y1365730D01*
X1898980Y1357091D01*
X1904673Y1349673D01*
X1912091Y1343980D01*
X1920730Y1340402D01*
X1930000Y1339182D01*
X1939270Y1340402D01*
X1947909Y1343980D01*
X1955327Y1349673D01*
X1961020Y1357091D01*
X1964598Y1365730D01*
X1965818Y1375000D01*
X1964598Y1384270D01*
X1961020Y1392909D01*
X1955327Y1400327D01*
X1947909Y1406020D01*
X1939270Y1409598D01*
X1930000Y1410818D01*
D02*
G37*
G36*
X1070000D02*
X1060730Y1409598D01*
X1052091Y1406020D01*
X1044673Y1400327D01*
X1038980Y1392909D01*
X1035402Y1384270D01*
X1034182Y1375000D01*
X1035402Y1365730D01*
X1038980Y1357091D01*
X1044673Y1349673D01*
X1052091Y1343980D01*
X1060730Y1340402D01*
X1070000Y1339182D01*
X1079270Y1340402D01*
X1087909Y1343980D01*
X1095327Y1349673D01*
X1101020Y1357091D01*
X1104598Y1365730D01*
X1105818Y1375000D01*
X1104598Y1384270D01*
X1101020Y1392909D01*
X1095327Y1400327D01*
X1087909Y1406020D01*
X1079270Y1409598D01*
X1070000Y1410818D01*
D02*
G37*
G36*
X1664397Y1335000D02*
X1650000D01*
Y1320603D01*
X1652804Y1321160D01*
X1659419Y1325581D01*
X1663840Y1332196D01*
X1664397Y1335000D01*
D02*
G37*
G36*
X1640000D02*
X1625603D01*
X1626160Y1332196D01*
X1630581Y1325581D01*
X1637196Y1321160D01*
X1640000Y1320603D01*
Y1335000D01*
D02*
G37*
G36*
X1396063Y1330460D02*
Y1316063D01*
X1410460D01*
X1409903Y1318867D01*
X1405482Y1325482D01*
X1398867Y1329903D01*
X1396063Y1330460D01*
D02*
G37*
G36*
X1386063D02*
X1383259Y1329903D01*
X1376644Y1325482D01*
X1372223Y1318867D01*
X1371666Y1316063D01*
X1386063D01*
Y1330460D01*
D02*
G37*
G36*
X1315000Y1329397D02*
Y1315000D01*
X1329397D01*
X1328840Y1317804D01*
X1324419Y1324419D01*
X1317804Y1328840D01*
X1315000Y1329397D01*
D02*
G37*
G36*
X1305000D02*
X1302196Y1328840D01*
X1295581Y1324419D01*
X1291160Y1317804D01*
X1290603Y1315000D01*
X1305000D01*
Y1329397D01*
D02*
G37*
G36*
X1525000Y1345294D02*
X1519147Y1344130D01*
X1514186Y1340814D01*
X1510870Y1335853D01*
X1509706Y1330000D01*
X1510870Y1324147D01*
X1514186Y1319186D01*
X1519147Y1315870D01*
X1525000Y1314706D01*
X1530853Y1315870D01*
X1535814Y1319186D01*
X1539130Y1324147D01*
X1540294Y1330000D01*
X1539130Y1335853D01*
X1535814Y1340814D01*
X1530853Y1344130D01*
X1525000Y1345294D01*
D02*
G37*
G36*
X1329397Y1305000D02*
X1315000D01*
Y1290603D01*
X1317804Y1291160D01*
X1324419Y1295581D01*
X1328840Y1302196D01*
X1329397Y1305000D01*
D02*
G37*
G36*
X1305000D02*
X1290603D01*
X1291160Y1302196D01*
X1295581Y1295581D01*
X1302196Y1291160D01*
X1305000Y1290603D01*
Y1305000D01*
D02*
G37*
G36*
X1640000Y1305294D02*
X1634147Y1304130D01*
X1629186Y1300814D01*
X1625870Y1295853D01*
X1624706Y1290000D01*
X1625870Y1284147D01*
X1629186Y1279186D01*
X1634147Y1275870D01*
X1640000Y1274706D01*
X1645853Y1275870D01*
X1650814Y1279186D01*
X1654130Y1284147D01*
X1655294Y1290000D01*
X1654130Y1295853D01*
X1650814Y1300814D01*
X1645853Y1304130D01*
X1640000Y1305294D01*
D02*
G37*
G36*
X1410460Y1306063D02*
X1371666D01*
X1372223Y1303259D01*
X1376644Y1296644D01*
X1375277Y1291544D01*
X1374186Y1290814D01*
X1370870Y1285853D01*
X1369706Y1280000D01*
X1370870Y1274147D01*
X1374186Y1269186D01*
X1379147Y1265870D01*
X1385000Y1264706D01*
X1390853Y1265870D01*
X1395814Y1269186D01*
X1399130Y1274147D01*
X1400294Y1280000D01*
X1399130Y1285853D01*
X1398348Y1287022D01*
X1398867Y1292223D01*
X1405482Y1296644D01*
X1409903Y1303259D01*
X1410460Y1306063D01*
D02*
G37*
G36*
X1930000Y1310818D02*
X1920730Y1309598D01*
X1912091Y1306020D01*
X1904673Y1300327D01*
X1898980Y1292909D01*
X1895402Y1284270D01*
X1894182Y1275000D01*
X1895402Y1265730D01*
X1898980Y1257091D01*
X1904673Y1249673D01*
X1912091Y1243980D01*
X1920730Y1240402D01*
X1930000Y1239182D01*
X1939270Y1240402D01*
X1947909Y1243980D01*
X1955327Y1249673D01*
X1961020Y1257091D01*
X1964598Y1265730D01*
X1965818Y1275000D01*
X1964598Y1284270D01*
X1961020Y1292909D01*
X1955327Y1300327D01*
X1947909Y1306020D01*
X1939270Y1309598D01*
X1930000Y1310818D01*
D02*
G37*
G36*
X1070000D02*
X1060730Y1309598D01*
X1052091Y1306020D01*
X1044673Y1300327D01*
X1038980Y1292909D01*
X1035402Y1284270D01*
X1034182Y1275000D01*
X1035402Y1265730D01*
X1038980Y1257091D01*
X1044673Y1249673D01*
X1052091Y1243980D01*
X1060730Y1240402D01*
X1070000Y1239182D01*
X1079270Y1240402D01*
X1087909Y1243980D01*
X1095327Y1249673D01*
X1101020Y1257091D01*
X1104598Y1265730D01*
X1105818Y1275000D01*
X1104598Y1284270D01*
X1101020Y1292909D01*
X1095327Y1300327D01*
X1087909Y1306020D01*
X1079270Y1309598D01*
X1070000Y1310818D01*
D02*
G37*
G36*
X1425000Y1265294D02*
X1419147Y1264130D01*
X1414186Y1260814D01*
X1410870Y1255853D01*
X1409706Y1250000D01*
X1410870Y1244147D01*
X1414186Y1239186D01*
X1419147Y1235870D01*
X1425000Y1234706D01*
X1430853Y1235870D01*
X1435814Y1239186D01*
X1439130Y1244147D01*
X1440294Y1250000D01*
X1439130Y1255853D01*
X1435814Y1260814D01*
X1430853Y1264130D01*
X1425000Y1265294D01*
D02*
G37*
G36*
X1220000Y1255294D02*
X1214147Y1254130D01*
X1209186Y1250814D01*
X1205870Y1245853D01*
X1204706Y1240000D01*
X1205870Y1234147D01*
X1209186Y1229186D01*
X1214147Y1225870D01*
X1220000Y1224706D01*
X1225853Y1225870D01*
X1230814Y1229186D01*
X1234130Y1234147D01*
X1235294Y1240000D01*
X1234130Y1245853D01*
X1230814Y1250814D01*
X1225853Y1254130D01*
X1220000Y1255294D01*
D02*
G37*
G36*
X1260000Y1229397D02*
Y1215000D01*
X1274397D01*
X1273840Y1217804D01*
X1269419Y1224419D01*
X1262804Y1228840D01*
X1260000Y1229397D01*
D02*
G37*
G36*
X1250000D02*
X1247196Y1228840D01*
X1240581Y1224419D01*
X1236160Y1217804D01*
X1235242Y1213188D01*
X1233646Y1212332D01*
X1229806Y1211488D01*
X1225853Y1214130D01*
X1220000Y1215294D01*
X1214147Y1214130D01*
X1209186Y1210814D01*
X1205870Y1205853D01*
X1204706Y1200000D01*
X1205870Y1194147D01*
X1209186Y1189186D01*
X1214147Y1185870D01*
X1220000Y1184706D01*
X1225853Y1185870D01*
X1230814Y1189186D01*
X1234130Y1194147D01*
X1234450Y1195757D01*
X1239758Y1196812D01*
X1240581Y1195581D01*
X1244186Y1193172D01*
Y1190814D01*
X1240870Y1185853D01*
X1239706Y1180000D01*
X1240870Y1174147D01*
X1244186Y1169186D01*
X1249147Y1165870D01*
X1255000Y1164706D01*
X1260853Y1165870D01*
X1265814Y1169186D01*
X1269130Y1174147D01*
X1270294Y1180000D01*
X1269130Y1185853D01*
X1265814Y1190814D01*
Y1193172D01*
X1269419Y1195581D01*
X1273840Y1202196D01*
X1274397Y1205000D01*
X1255000D01*
Y1210000D01*
X1250000D01*
Y1229397D01*
D02*
G37*
G36*
X1385000Y1235294D02*
X1379147Y1234130D01*
X1374186Y1230814D01*
X1370870Y1225853D01*
X1369706Y1220000D01*
X1370870Y1214147D01*
X1374186Y1209186D01*
X1379147Y1205870D01*
X1385000Y1204706D01*
X1390853Y1205870D01*
X1395814Y1209186D01*
X1399130Y1214147D01*
X1400294Y1220000D01*
X1399130Y1225853D01*
X1395814Y1230814D01*
X1390853Y1234130D01*
X1385000Y1235294D01*
D02*
G37*
G36*
X1685000Y1215294D02*
X1679147Y1214130D01*
X1674186Y1210814D01*
X1670870Y1205853D01*
X1669706Y1200000D01*
X1670870Y1194147D01*
X1672798Y1191262D01*
X1671793Y1185229D01*
X1670581Y1184419D01*
X1666160Y1177804D01*
X1665603Y1175000D01*
X1704397D01*
X1703840Y1177804D01*
X1699419Y1184419D01*
X1698207Y1185229D01*
X1697503Y1191713D01*
X1699130Y1194147D01*
X1700294Y1200000D01*
X1699130Y1205853D01*
X1695814Y1210814D01*
X1690853Y1214130D01*
X1685000Y1215294D01*
D02*
G37*
G36*
X1930000Y1210818D02*
X1920730Y1209598D01*
X1912091Y1206020D01*
X1904673Y1200327D01*
X1898980Y1192909D01*
X1895402Y1184270D01*
X1894182Y1175000D01*
X1895402Y1165730D01*
X1898980Y1157091D01*
X1904673Y1149673D01*
X1912091Y1143980D01*
X1920730Y1140402D01*
X1930000Y1139182D01*
X1939270Y1140402D01*
X1947909Y1143980D01*
X1955327Y1149673D01*
X1961020Y1157091D01*
X1964598Y1165730D01*
X1965818Y1175000D01*
X1964598Y1184270D01*
X1961020Y1192909D01*
X1955327Y1200327D01*
X1947909Y1206020D01*
X1939270Y1209598D01*
X1930000Y1210818D01*
D02*
G37*
G36*
X1070000D02*
X1060730Y1209598D01*
X1052091Y1206020D01*
X1044673Y1200327D01*
X1038980Y1192909D01*
X1035402Y1184270D01*
X1034182Y1175000D01*
X1035402Y1165730D01*
X1038980Y1157091D01*
X1044673Y1149673D01*
X1052091Y1143980D01*
X1060730Y1140402D01*
X1070000Y1139182D01*
X1079270Y1140402D01*
X1087909Y1143980D01*
X1095327Y1149673D01*
X1101020Y1157091D01*
X1104598Y1165730D01*
X1105818Y1175000D01*
X1104598Y1184270D01*
X1101020Y1192909D01*
X1095327Y1200327D01*
X1087909Y1206020D01*
X1079270Y1209598D01*
X1070000Y1210818D01*
D02*
G37*
G36*
X1790000Y1149397D02*
Y1135000D01*
X1804397D01*
X1803840Y1137804D01*
X1799419Y1144419D01*
X1792804Y1148840D01*
X1790000Y1149397D01*
D02*
G37*
G36*
X1780000D02*
X1777196Y1148840D01*
X1770581Y1144419D01*
X1766160Y1137804D01*
X1765603Y1135000D01*
X1780000D01*
Y1149397D01*
D02*
G37*
G36*
X1315000D02*
Y1135000D01*
X1329397D01*
X1328840Y1137804D01*
X1324419Y1144419D01*
X1317804Y1148840D01*
X1315000Y1149397D01*
D02*
G37*
G36*
X1305000D02*
X1302196Y1148840D01*
X1295581Y1144419D01*
X1291160Y1137804D01*
X1290603Y1135000D01*
X1305000D01*
Y1149397D01*
D02*
G37*
G36*
X1704397Y1165000D02*
X1665603D01*
X1666160Y1162196D01*
X1670581Y1155581D01*
X1674186Y1153172D01*
Y1150814D01*
X1670870Y1145853D01*
X1669706Y1140000D01*
X1670870Y1134147D01*
X1674186Y1129186D01*
X1679147Y1125870D01*
X1685000Y1124706D01*
X1690853Y1125870D01*
X1695814Y1129186D01*
X1699130Y1134147D01*
X1700294Y1140000D01*
X1699130Y1145853D01*
X1697503Y1148287D01*
X1698207Y1154771D01*
X1699419Y1155581D01*
X1703840Y1162196D01*
X1704397Y1165000D01*
D02*
G37*
G36*
X1525250Y1162617D02*
X1519397Y1161453D01*
X1514436Y1158137D01*
X1511120Y1153176D01*
X1509956Y1147323D01*
X1511120Y1141470D01*
X1514436Y1136508D01*
X1518034Y1134104D01*
X1517401Y1128880D01*
X1517196Y1128840D01*
X1510581Y1124419D01*
X1506160Y1117804D01*
X1505603Y1115000D01*
X1544397D01*
X1543840Y1117804D01*
X1539419Y1124419D01*
X1532853Y1128807D01*
X1532806Y1128924D01*
X1532788Y1129021D01*
X1532351Y1134027D01*
X1536064Y1136508D01*
X1539380Y1141470D01*
X1540544Y1147323D01*
X1539380Y1153176D01*
X1536064Y1158137D01*
X1531103Y1161453D01*
X1525250Y1162617D01*
D02*
G37*
G36*
X1804397Y1125000D02*
X1790000D01*
Y1110603D01*
X1792804Y1111160D01*
X1799419Y1115581D01*
X1803840Y1122196D01*
X1804397Y1125000D01*
D02*
G37*
G36*
X1780000D02*
X1765603D01*
X1766160Y1122196D01*
X1770581Y1115581D01*
X1777196Y1111160D01*
X1780000Y1110603D01*
Y1125000D01*
D02*
G37*
G36*
X1329397D02*
X1315000D01*
Y1110603D01*
X1317804Y1111160D01*
X1324419Y1115581D01*
X1328840Y1122196D01*
X1329397Y1125000D01*
D02*
G37*
G36*
X1305000D02*
X1290603D01*
X1291160Y1122196D01*
X1295581Y1115581D01*
X1302196Y1111160D01*
X1305000Y1110603D01*
Y1125000D01*
D02*
G37*
G36*
X1544397Y1105000D02*
X1530000D01*
Y1090603D01*
X1532804Y1091160D01*
X1539419Y1095581D01*
X1543840Y1102196D01*
X1544397Y1105000D01*
D02*
G37*
G36*
X1520000D02*
X1505603D01*
X1506160Y1102196D01*
X1510581Y1095581D01*
X1517196Y1091160D01*
X1520000Y1090603D01*
Y1105000D01*
D02*
G37*
G36*
X1970512Y1115512D02*
X1935000D01*
Y1080000D01*
X1970512D01*
Y1115512D01*
D02*
G37*
G36*
X1110512D02*
X1075000D01*
Y1080000D01*
X1110512D01*
Y1115512D01*
D02*
G37*
G36*
X1065000D02*
X1029488D01*
Y1080000D01*
X1065000D01*
Y1115512D01*
D02*
G37*
G36*
X1925000D02*
X1889488D01*
Y1080000D01*
X1925000D01*
Y1115512D01*
D02*
G37*
G36*
X1970512Y1070000D02*
X1935000D01*
Y1034488D01*
X1970512D01*
Y1070000D01*
D02*
G37*
G36*
X1925000D02*
X1889488D01*
Y1034488D01*
X1925000D01*
Y1070000D01*
D02*
G37*
G36*
X1110512D02*
X1075000D01*
Y1034488D01*
X1110512D01*
Y1070000D01*
D02*
G37*
G36*
X1065000D02*
X1029488D01*
Y1034488D01*
X1065000D01*
Y1070000D01*
D02*
G37*
G36*
X1755000Y1039397D02*
Y1025000D01*
X1769397D01*
X1768840Y1027804D01*
X1764419Y1034419D01*
X1757804Y1038840D01*
X1755000Y1039397D01*
D02*
G37*
G36*
X1745000D02*
X1742196Y1038840D01*
X1735581Y1034419D01*
X1731160Y1027804D01*
X1730603Y1025000D01*
X1745000D01*
Y1039397D01*
D02*
G37*
G36*
X1675000D02*
Y1025000D01*
X1689397D01*
X1688840Y1027804D01*
X1684419Y1034419D01*
X1677804Y1038840D01*
X1675000Y1039397D01*
D02*
G37*
G36*
X1665000D02*
X1662196Y1038840D01*
X1655581Y1034419D01*
X1651160Y1027804D01*
X1650603Y1025000D01*
X1665000D01*
Y1039397D01*
D02*
G37*
G36*
X1525000D02*
Y1025000D01*
X1539397D01*
X1538840Y1027804D01*
X1534419Y1034419D01*
X1527804Y1038840D01*
X1525000Y1039397D01*
D02*
G37*
G36*
X1190000D02*
Y1025000D01*
X1204397D01*
X1203840Y1027804D01*
X1199419Y1034419D01*
X1192804Y1038840D01*
X1190000Y1039397D01*
D02*
G37*
G36*
X1395000Y1034397D02*
X1392196Y1033840D01*
X1385581Y1029419D01*
X1381160Y1022804D01*
X1380603Y1020000D01*
X1395000D01*
Y1034397D01*
D02*
G37*
%LPD*%
D21*
X1070000Y1175000D02*
D03*
X1930000D02*
D03*
Y1275000D02*
D03*
Y1375000D02*
D03*
X1070000Y1275000D02*
D03*
Y1375000D02*
D03*
D22*
X1930000Y1075000D02*
D03*
X1070000D02*
D03*
D23*
X1391063Y1311063D02*
D03*
X1310000Y1310000D02*
D03*
Y1130000D02*
D03*
X1525250Y1147323D02*
D03*
X1525000Y1110000D02*
D03*
X1845000Y1390000D02*
D03*
X1645000Y1340000D02*
D03*
X1640000Y1290000D02*
D03*
X1550000Y1415000D02*
D03*
X1450000Y1390000D02*
D03*
X1405000Y1430000D02*
D03*
X1185000D02*
D03*
X1145000D02*
D03*
Y1020000D02*
D03*
X1185000D02*
D03*
X1480000D02*
D03*
X1520000D02*
D03*
X1615000D02*
D03*
X1670000D02*
D03*
X1750000D02*
D03*
X1785000Y1130000D02*
D03*
X1685000Y1200000D02*
D03*
Y1170000D02*
D03*
Y1140000D02*
D03*
X1285000Y1430000D02*
D03*
X1255000Y1180000D02*
D03*
Y1210000D02*
D03*
X1430000Y1015000D02*
D03*
X1400000D02*
D03*
X1220000Y1200000D02*
D03*
Y1240000D02*
D03*
X1385000Y1220000D02*
D03*
X1425000Y1250000D02*
D03*
X1385000Y1280000D02*
D03*
X1525000Y1330000D02*
D03*
%TF.MD5,944afdd56e3d03eb6a1a7a5e1573d15f*%
M02*
