%TF.GenerationSoftware,Altium Limited,Altium Designer,19.1.7 (138)*%
G04 Layer_Physical_Order=4*
G04 Layer_Color=16711680*
%FSLAX26Y26*%
%MOIN*%
%TF.FileFunction,Copper,L4,Bot,Signal*%
%TF.Part,Single*%
G01*
G75*
%TA.AperFunction,SMDPad,CuDef*%
%ADD14R,0.024409X0.025984*%
%TA.AperFunction,Conductor*%
%ADD17C,0.005000*%
%ADD18C,0.010000*%
%TA.AperFunction,ComponentPad*%
%ADD21C,0.061024*%
%ADD22R,0.061024X0.061024*%
%TA.AperFunction,ViaPad*%
%ADD23C,0.020000*%
%TA.AperFunction,SMDPad,CuDef*%
%ADD24R,0.027559X0.033465*%
%ADD25R,0.029921X0.028346*%
%ADD26R,0.033465X0.027559*%
%ADD27R,0.020472X0.022047*%
%ADD28R,0.037402X0.033465*%
%ADD29R,0.033465X0.037402*%
%ADD30R,0.061024X0.061024*%
%ADD31R,0.013000X0.059000*%
%ADD32R,0.094488X0.074803*%
%TA.AperFunction,ConnectorPad*%
%ADD33R,0.039370X0.094488*%
%ADD34R,0.129921X0.094488*%
%TA.AperFunction,Conductor*%
%ADD35C,0.020000*%
D14*
X1555000Y1147323D02*
D03*
Y1112677D02*
D03*
D17*
X1552323Y1110787D02*
X1564705Y1123169D01*
X1575315Y1131834D02*
Y1166772D01*
X1570311Y1126831D02*
X1575315Y1131834D01*
X1569153Y1126831D02*
X1570311D01*
X1565492Y1123169D02*
X1569153Y1126831D01*
X1564705Y1123169D02*
X1565492D01*
X1552323Y1110000D02*
Y1110787D01*
X1564965Y1177122D02*
X1575315Y1166772D01*
X1564965Y1177122D02*
Y1188460D01*
X1555000Y1198425D02*
X1564965Y1188460D01*
X1525250Y1147323D02*
Y1221825D01*
X1538799Y1235374D01*
Y1237342D01*
X1553032Y1251575D01*
X1555000D01*
X1494000Y1145823D02*
Y1211000D01*
X1543307Y1390000D02*
X1550000Y1396693D01*
Y1415000D01*
X1519291Y1390000D02*
X1543307D01*
X1450000D02*
X1480709D01*
X1369213Y1415394D02*
X1390394D01*
X1405000Y1430000D01*
X1184291Y1429291D02*
X1185000Y1430000D01*
X1184291Y1390000D02*
Y1429291D01*
X1145000Y1430000D02*
X1145709Y1429291D01*
Y1390000D02*
Y1429291D01*
X1184291Y1020709D02*
X1185000Y1020000D01*
X1184291Y1020709D02*
Y1055000D01*
X1145000Y1054291D02*
X1145709Y1055000D01*
X1145000Y1020000D02*
Y1054291D01*
X1748583Y1070000D02*
X1750000Y1068583D01*
Y1020000D02*
Y1068583D01*
X1670000Y1068425D02*
X1671575Y1070000D01*
X1670000Y1020000D02*
Y1068425D01*
X1615000Y1066575D02*
X1618425Y1070000D01*
X1615000Y1020000D02*
Y1066575D01*
X1480000Y1015000D02*
Y1055709D01*
X1470709Y1065000D02*
X1480000Y1055709D01*
X1506831Y1066673D02*
X1520000Y1053504D01*
Y1020000D02*
Y1053504D01*
X1435000Y1100000D02*
X1455000Y1080000D01*
X1286693Y1430000D02*
X1301299Y1415394D01*
X1320000D01*
X1285000Y1430000D02*
X1286693D01*
X1495449Y1080000D02*
X1506831Y1068619D01*
X1455000Y1080000D02*
X1495449D01*
X1450000Y1065000D02*
X1470709D01*
X1416000Y1099000D02*
X1450000Y1065000D01*
X1506831Y1066673D02*
Y1068619D01*
X1435000Y1100000D02*
Y1134000D01*
X1416000Y1099000D02*
Y1134000D01*
X1385000Y1280000D02*
X1416000D01*
Y1306000D01*
X1307929Y1347071D02*
X1365000Y1290000D01*
X1107071Y1347071D02*
X1307929D01*
X1100160Y1340160D02*
X1107071Y1347071D01*
X1103089Y1357071D02*
X1494000D01*
X1085160Y1375000D02*
X1103089Y1357071D01*
X1494000Y1134000D02*
Y1144000D01*
X1280000Y1190000D02*
X1285394Y1195394D01*
X1315000D01*
X1280000Y1160354D02*
Y1190000D01*
Y1250000D02*
X1285394Y1244606D01*
X1315000D01*
X1280000Y1250000D02*
Y1279646D01*
X1206063D02*
X1220000Y1265709D01*
X1190000Y1295709D02*
X1206063Y1279646D01*
X1220000Y1240000D02*
Y1265709D01*
X1216063Y1160354D02*
X1220000Y1164291D01*
Y1200000D01*
X1475000Y1230000D02*
X1494000Y1211000D01*
X1475000Y1230000D02*
Y1306000D01*
X1435429Y1199571D02*
X1455000Y1180000D01*
Y1134000D02*
Y1180000D01*
X1380429Y1199571D02*
X1435429D01*
X1365000Y1215000D02*
X1380429Y1199571D01*
X1365000Y1215000D02*
Y1290000D01*
X1100160Y1305160D02*
Y1340160D01*
X1070000Y1275000D02*
X1100160Y1305160D01*
X1070000Y1375000D02*
X1085160D01*
X1494000Y1306000D02*
Y1357071D01*
X1434874Y1254874D02*
X1435000Y1255000D01*
X1433933Y1254874D02*
X1434874D01*
X1429059Y1250000D02*
X1433933Y1254874D01*
X1425000Y1250000D02*
X1429059D01*
X1435000Y1255000D02*
Y1306000D01*
X1430000Y1220000D02*
X1455000Y1245000D01*
Y1306000D01*
X1385000Y1220000D02*
X1430000D01*
X1216063Y1160354D02*
X1280000D01*
X1206063Y1279646D02*
X1280000D01*
D18*
X1525250Y1147323D02*
X1555000D01*
X1495500D02*
X1525250D01*
X1309646Y1310354D02*
X1310000Y1310000D01*
X1280000Y1310354D02*
X1309646D01*
Y1129646D02*
X1310000Y1130000D01*
X1280000Y1129646D02*
X1309646D01*
X1494000Y1144000D02*
Y1145823D01*
X1495500Y1147323D01*
X1525000Y1110000D02*
X1552323D01*
D21*
X1070000Y1175000D02*
D03*
X1930000D02*
D03*
Y1275000D02*
D03*
Y1375000D02*
D03*
X1070000Y1275000D02*
D03*
Y1375000D02*
D03*
D22*
X1930000Y1075000D02*
D03*
X1070000D02*
D03*
D23*
X1391063Y1311063D02*
D03*
X1310000Y1310000D02*
D03*
Y1130000D02*
D03*
X1525250Y1147323D02*
D03*
X1525000Y1110000D02*
D03*
X1845000Y1390000D02*
D03*
X1645000Y1340000D02*
D03*
X1640000Y1290000D02*
D03*
X1550000Y1415000D02*
D03*
X1450000Y1390000D02*
D03*
X1405000Y1430000D02*
D03*
X1185000D02*
D03*
X1145000D02*
D03*
Y1020000D02*
D03*
X1185000D02*
D03*
X1480000D02*
D03*
X1520000D02*
D03*
X1615000D02*
D03*
X1670000D02*
D03*
X1750000D02*
D03*
X1785000Y1130000D02*
D03*
X1685000Y1200000D02*
D03*
Y1170000D02*
D03*
Y1140000D02*
D03*
X1285000Y1430000D02*
D03*
X1255000Y1180000D02*
D03*
Y1210000D02*
D03*
X1430000Y1015000D02*
D03*
X1400000D02*
D03*
X1220000Y1200000D02*
D03*
Y1240000D02*
D03*
X1385000Y1220000D02*
D03*
X1425000Y1250000D02*
D03*
X1385000Y1280000D02*
D03*
X1525000Y1330000D02*
D03*
D24*
X1320000Y1415394D02*
D03*
X1369213D02*
D03*
D25*
X1519291Y1390000D02*
D03*
X1480709D02*
D03*
X1184291D02*
D03*
X1145709D02*
D03*
X1480709Y1055000D02*
D03*
X1519291D02*
D03*
X1145709D02*
D03*
X1184291D02*
D03*
D26*
X1315000Y1244606D02*
D03*
Y1195394D02*
D03*
D27*
X1280000Y1129646D02*
D03*
Y1160354D02*
D03*
Y1310354D02*
D03*
Y1279646D02*
D03*
D28*
X1555000Y1198425D02*
D03*
Y1251575D02*
D03*
D29*
X1618425Y1070000D02*
D03*
X1671575D02*
D03*
D30*
X1821417D02*
D03*
X1748583D02*
D03*
D31*
X1494000Y1134000D02*
D03*
X1475000D02*
D03*
X1455000D02*
D03*
X1435000D02*
D03*
X1416000D02*
D03*
Y1306000D02*
D03*
X1435000D02*
D03*
X1455000D02*
D03*
X1475000D02*
D03*
X1494000D02*
D03*
D32*
X1190000Y1134291D02*
D03*
Y1295709D02*
D03*
D33*
X1825551Y1170000D02*
D03*
X1735000D02*
D03*
X1644449D02*
D03*
D34*
X1735000Y1398347D02*
D03*
D35*
X1654134Y1140000D02*
X1685000D01*
X1644449Y1149685D02*
X1654134Y1140000D01*
X1644449Y1149685D02*
Y1170000D01*
X1735000Y1083583D02*
X1748583Y1070000D01*
X1735000Y1083583D02*
Y1170000D01*
X1825551D02*
X1830551Y1175000D01*
X1930000D01*
X1821417Y1070000D02*
X1825551Y1074134D01*
Y1170000D01*
%TF.MD5,342c353fdd10bd14ab279866e8487494*%
M02*
